<?xml version="1.0" standalone="no"?>
<!DOCTYPE svg PUBLIC "-//W3C//DTD SVG 1.1//EN" "http://www.w3.org/Graphics/SVG/1.1/DTD/svg11.dtd" >
<svg xmlns="http://www.w3.org/2000/svg" xmlns:xlink="http://www.w3.org/1999/xlink" version="1.1">
<metadata>
Created by FontForge 20200511 at Mon Jul 12 09:57:00 2021
 By convertio
copyright missing
</metadata>
<defs>
<font id="Constant-Display" horiz-adv-x="521" >
  <font-face 
    font-family="Constant Display"
    font-weight="400"
    font-stretch="normal"
    units-per-em="1000"
    panose-1="0 0 5 0 0 0 0 0 0 0"
    ascent="780"
    descent="-220"
    x-height="440.998"
    cap-height="661.998"
    bbox="-160 -221 829.001 779.999"
    underline-thickness="50"
    underline-position="-100"
    unicode-range="U+0020-301E"
  />
<missing-glyph horiz-adv-x="100" 
 />
    <glyph glyph-name=".notdef" horiz-adv-x="100" 
 />
    <glyph glyph-name="space" unicode=" " horiz-adv-x="250" 
 />
    <glyph glyph-name="exclam" unicode="!" horiz-adv-x="237" 
d="M133 147l-73 -0.000976562v515h137v-10c-17.333 0 -32.333 -6.16699 -45 -18.5s-19 -27.166 -19 -44.499v-442zM133 -0.000976562h-73v74h73v-74z" />
    <glyph glyph-name="quotedbl" unicode="&#x22;" horiz-adv-x="264" 
d="M114 583l-11.001 0.000976562c0 17.333 -6.16699 32.166 -18.5 44.499s-27.166 18.5 -44.499 18.5v84h74v-147zM223.999 583.001l-10 0.000976562c0 17.333 -6.33301 32.166 -19 44.499s-27.667 18.5 -45 18.5v84h74v-147z" />
    <glyph glyph-name="numbersign" unicode="#" horiz-adv-x="595" 
d="M188 0h-74l25 221h-99v36h103l16 148h-119v36h123l25 221h73l-24 -221h147l24 221h74l-25 -221h98v-36h-102l-16 -148h118v-36h-122l-25 -221h-73l24 221h-147zM233 405l-17 -148h147l17 148h-147z" />
    <glyph glyph-name="dollar" unicode="$" horiz-adv-x="531" 
d="M284 -74h-48.999v75c-54.667 4.66699 -100.834 27.334 -138.501 68.001s-56.5 89 -56.5 145v7h73c0 -59.333 20.833 -109.333 62.5 -150s92.167 -61 151.5 -61h80v253c0 19.333 -6 36.5 -18 51.5s-27.333 24.5 -46 28.5l-230 54
c-21.333 4.66699 -38.833 15.834 -52.5 33.501s-20.5 37.5 -20.5 59.5v172h196v74h49v-75c55.333 -4.66699 101.833 -27.334 139.5 -68.001s56.5 -89 56.5 -145v-7h-74c0 59.333 -20.667 109.333 -62 150s-92 61 -152 61h-80v-179c0 -19.333 6 -36.5 18 -51.5
s27.333 -24.5 46 -28.5l231 -54c21.333 -4.66699 38.833 -15.834 52.5 -33.501s20.5 -37.5 20.5 -59.5v-246h-197v-74z" />
    <glyph glyph-name="percent" unicode="%" horiz-adv-x="640" 
d="M202 405h-58c-28 0 -52.333 12.333 -73 37s-31 54 -31 88v7c0 34 10.333 63.333 31 88s45 37 73 37h58c28 0 52.333 -12.333 73 -37s31 -54 31 -88v-7c0 -34 -10.333 -63.333 -31 -88s-45 -37 -73 -37zM173 0h-73l367 662h74zM173 415
c25.333 1.33301 45.333 12.833 60 34.5s22 49.5 22 83.5s-7.33301 61.833 -22 83.5s-34.667 33.5 -60 35.5c-25.333 -2 -45.166 -13.833 -59.499 -35.5s-21.5 -49.5 -21.5 -83.5s7.16699 -61.833 21.5 -83.5s34.166 -33.167 59.499 -34.5zM496 0h-57
c-28 -0 -52.5 12.333 -73.5 37s-31.5 54 -31.5 88v8c0 34 10.5 63.167 31.5 87.5s45.5 36.5 73.5 36.5h57c28 0 52.333 -12.167 73 -36.5s31 -53.5 31 -87.5v-8c0 -34 -10.333 -63.333 -31 -88s-45 -37 -73 -37zM467 10c25.333 2 45.333 13.833 60 35.5s22 49.5 22 83.5
s-7.33301 61.833 -22 83.5s-34.667 33.167 -60 34.5c-25.333 -1.33301 -45.166 -13 -59.499 -35s-21.5 -49.667 -21.5 -83c0 -34 7.16699 -61.833 21.5 -83.5s34.166 -33.5 59.499 -35.5z" />
    <glyph glyph-name="ampersand" unicode="&#x26;" 
d="M40 0c0 70 15.499 135.667 46.499 197s73.167 112.666 126.5 153.999l-173 311h227c59.333 0 109.833 -21 151.5 -63s62.5 -92.333 62.5 -151v-17c-79.333 0 -147.666 -20.333 -204.999 -61l120 -217c8 20.667 12 43.334 12 68.001v73h73v-80
c0 -49.333 -15 -93.333 -45 -132l45 -82h-73l-21 37c-36.667 -24.667 -76.667 -37 -120 -37h-227zM118.999 652l148.001 -266c44.667 24.667 91.667 41 141 49v6c-0.666992 59.333 -21.834 109.333 -63.501 150s-92.167 61 -151.5 61h-74zM113 10h80
c68 0 123.333 25.667 166 77l-133 240c-73.333 -78 -111 -183.667 -113 -317z" />
    <glyph glyph-name="quotesingle" unicode="'" horiz-adv-x="133" 
d="M83 583l-10.001 0.000976562c0 17.333 -6.16699 32.166 -18.5 44.499s-27.166 18.5 -44.499 18.5v84h73v-147z" />
    <glyph glyph-name="parenleft" unicode="(" horiz-adv-x="303" 
d="M263 -43l-7.00098 -7.00098l-109 109c-71.333 70.667 -107 157 -107 259c0 101.333 35.667 187.333 107 258l109 109l7 -7l-6 -6c-99.333 -99.333 -149 -217.333 -149 -354c0 -65.333 12.833 -128.666 38.5 -189.999s62.834 -116.333 111.501 -165z" />
    <glyph glyph-name="parenright" unicode=")" horiz-adv-x="303" 
d="M156 59l-109.001 -109l-7 7l5 6c48.667 48.667 85.834 103.667 111.501 165s38.5 124.666 38.5 189.999c0 136.667 -50 255 -150 355l-5 5l7 7l109 -109c71.333 -71.333 107 -157.333 107 -258c0 -101.333 -35.667 -187.666 -107 -258.999z" />
    <glyph glyph-name="asterisk" unicode="*" horiz-adv-x="389" 
d="M143 498l-39.999 -13.0029l-2 8c-3.33301 11.333 -5 21 -5 29c0 20.667 6 39.334 18 56.001s28 28.334 48 35.001l22 7c-16 20 -37.333 30 -64 30c-18.667 0 -35.334 -5.33301 -50.001 -16l-5 -3l-25 34l7 5c16.667 12 35.334 18 56.001 18c31.333 0 57 -13 77 -39
l14 -19c8.66699 12.667 13 27.667 13 45c0 27.333 -11.667 50 -35 68l-4 3l24 34l7 -5c26 -20 39 -45.667 39 -77c0 -20 -6 -38.667 -18 -56l-14 -18c6.66699 -2 13.667 -3 21 -3c18 0 34.333 5.33301 49 16s25 24.667 31 42l2 6l40 -13l-3 -8
c-8 -24.667 -23.667 -43.334 -47 -56.001c-13.333 -6.66699 -27.666 -10 -42.999 -10c-8.66699 0 -18.667 1.66699 -30 5l-22 7c1.33301 -22 10.166 -40.667 26.499 -56s35.5 -23 57.5 -23h6v-42h-8c-26.667 0 -49.334 9.33301 -68.001 28s-28 41.334 -28 68.001v23
c-16.667 -6.66699 -29.667 -17.167 -39 -31.5s-14 -30.166 -14 -47.499c0 -9.33301 1.33301 -18 4 -26z" />
    <glyph glyph-name="plus" unicode="+" 
d="M297 110h-137v10c17.333 0 32.166 6.16699 44.499 18.5s18.833 27.166 19.5 44.499v123h-184v49h184v196h136v-10c-17.333 0 -32.166 -6.16699 -44.499 -18.5s-18.5 -27.166 -18.5 -44.499v-123h184v-49h-184v-196z" />
    <glyph glyph-name="comma" unicode="," horiz-adv-x="153" 
d="M91 -74h-10c2 6 3 12 3 18c0 13.333 -4 24.333 -12 33s-18.333 13 -31 13h-1v84h73v-74z" />
    <glyph glyph-name="hyphen" unicode="-" horiz-adv-x="374" 
d="M334 266h-294v48h294v-48z" />
    <glyph glyph-name="period" unicode="." horiz-adv-x="153" 
d="M113 0h-73v74h73v-74z" />
    <glyph glyph-name="slash" unicode="/" horiz-adv-x="468" 
d="M114 0h-74l295 662h73z" />
    <glyph glyph-name="zero" unicode="0" horiz-adv-x="538" 
d="M274 0h-264v448c0 58.667 21 109 63 151s92.333 63 151 63h264v-448c0 -58.667 -21 -109 -63 -151s-92.333 -63 -151 -63zM84 441v-431h117c59.333 0 109.833 20.333 151.5 61s62.5 90.667 62.5 150v431h-117c-60 0 -110.667 -20.333 -152 -61s-62 -90.667 -62 -150z
M286 294h-74v74h74v-74z" />
    <glyph glyph-name="one" unicode="1" horiz-adv-x="344" 
d="M294 662l0.000976562 -662.001h-137v10c17.333 0 32.166 6.33301 44.499 19s18.5 27.667 18.5 45v420c-39.333 -35.333 -86 -53 -140 -53h-80v11h6c59.333 0 109.833 20.333 151.5 61s62.5 90.334 62.5 149.001h74z" />
    <glyph glyph-name="two" unicode="2" horiz-adv-x="502" 
d="M452 74v-74h-442v74h4c76.667 0.666992 143 20.5 199 59.5s97.5 90.5 124.5 154.5s40.5 136.333 40.5 217v147h-80c-59.333 0 -109.833 -20.333 -151.5 -61s-62.5 -90.667 -62.5 -150h-74v7c0 59.333 21 109.833 63 151.5s92.667 62.5 152 62.5h227v-158
c0 -104.667 -32.667 -197 -98 -277s-148 -131 -248 -153h346z" />
    <glyph glyph-name="three" unicode="3" horiz-adv-x="501" 
d="M237 0h-227v10h154c59.333 0 109.833 20.333 151.5 61s62.5 90.667 62.5 150v147h-184l177 284h-73c-60 0 -110.667 -20.333 -152 -61s-62 -90.667 -62 -150h-74v7c0 58.667 21 109 63 151s92.333 63 151 63h227l-177 -284h177v-164
c0 -59.333 -20.833 -109.833 -62.5 -151.5s-92.167 -62.5 -151.5 -62.5z" />
    <glyph glyph-name="four" unicode="4" horiz-adv-x="575" 
d="M441 10l-0.00195312 -10.001h-137v221h-294c0 80 16.333 153.833 49 221.5s77.334 121.167 134.001 160.5s118.334 59 185.001 59v-380c48.667 41.333 73 94.333 73 159h74v-6c0 -46.667 -13.667 -88.667 -41 -126s-62.666 -63.333 -105.999 -78v-158
c0 -17.333 6.16699 -32.166 18.5 -44.499s27.166 -18.5 44.499 -18.5zM82.998 230.999h154.002c21.333 0 43.666 3.33301 66.999 10v401c-70.667 -20 -124.834 -67 -162.501 -141s-57.167 -164 -58.5 -270z" />
    <glyph glyph-name="five" unicode="5" horiz-adv-x="501" 
d="M237 0l-227.001 0.000976562v10h154c59.333 0 109.833 20.333 151.5 61s62.5 90.667 62.5 150v210h-80c-59.333 0 -109.833 -20.333 -151.5 -61s-62.5 -90.334 -62.5 -149.001h-74v304l185 137h256v-147h-10c0 38 -13.333 70.333 -40 97s-59 40 -97 40l-220 -164v-99
c38.667 34.667 85.334 52 140.001 52h227v-227c0 -59.333 -20.833 -109.833 -62.5 -151.5s-92.167 -62.5 -151.5 -62.5z" />
    <glyph glyph-name="six" unicode="6" horiz-adv-x="502" 
d="M10 0v220.999l1 20c5.33301 117.333 50.666 216.833 135.999 298.5s187 122.5 305 122.5v-10c-82.667 0 -152.667 -21.667 -210 -65s-99.666 -102 -126.999 -176c34 20 70.667 30 110 30h227c0 -121.333 -43.167 -225.166 -129.5 -311.499s-190.5 -129.5 -312.5 -129.5z
M84 220.999l0.000976562 -203.998c92 17.333 163.667 63.666 215 138.999s77.666 167 78.999 275h-80c-59.333 0 -109.833 -20.333 -151.5 -61s-62.5 -90.334 -62.5 -149.001z" />
    <glyph glyph-name="seven" unicode="7" horiz-adv-x="501" 
d="M231 0h-74l219 655h-78c-59.333 0 -109.833 -20.833 -151.5 -62.5s-62.5 -92.167 -62.5 -151.5h-74v7c0 58.667 21 109 63 151s92.333 63 151 63h227z" />
    <glyph glyph-name="eight" unicode="8" horiz-adv-x="585" 
d="M321 0h-301v227c0 56.667 19.5 105.667 58.5 147s86.833 63.666 143.5 66.999h-166v7c0 59.333 21 109.833 63 151.5s92.667 62.5 152 62.5h227v-7c0 -56.667 -19.667 -105.667 -59 -147s-87 -63.666 -143 -66.999h239v-227c0 -58.667 -20.833 -109 -62.5 -151
s-92.167 -63 -151.5 -63zM130 451h80c57.333 0 106.666 19.167 147.999 57.5s63.333 85.833 66 142.5h-80c-57.333 0 -106.666 -19.167 -147.999 -57.5s-63.333 -85.833 -66 -142.5zM93 221v-210.999h154c59.333 0 109.833 20.333 151.5 61s62.5 90.667 62.5 150v210h-154
c-59.333 0 -109.833 -20.333 -151.5 -61s-62.5 -90.334 -62.5 -149.001z" />
    <glyph glyph-name="nine" unicode="9" horiz-adv-x="511" 
d="M20 0l0.000976562 10.001c82.667 0 152.667 21.667 210 65s99.666 102 126.999 176c-34 -20 -70.667 -30 -110 -30h-227c0 121.333 43.167 225.166 129.5 311.499s190.166 129.5 311.499 129.5v-241c-5.33301 -117.333 -50.666 -216.833 -135.999 -298.5
s-187 -122.5 -305 -122.5zM94.001 231.001l79.999 -0.00195312c59.333 0 109.833 20.333 151.5 61s62.5 90.334 62.5 149.001v204c-92 -17.333 -163.667 -63.666 -215 -138.999s-77.666 -167 -78.999 -275z" />
    <glyph glyph-name="colon" unicode=":" horiz-adv-x="143" 
d="M103 368h-73v73h73v-73zM103 0h-73v74h73v-74z" />
    <glyph glyph-name="semicolon" unicode=";" horiz-adv-x="153" 
d="M113 368h-73v73h73v-73zM91 -74h-10c2 6 3 12 3 18c0 12.667 -4.16699 23.5 -12.5 32.5s-18.5 13.5 -30.5 13.5h-1v84h73v-74z" />
    <glyph glyph-name="less" unicode="&#x3c;" horiz-adv-x="447" 
d="M407 74v-74.002c-74 0 -142.667 18.5 -206 55.5s-114 86.833 -152 149.5l-9 16l9 15c38 63.333 88.5 113.333 151.5 150s131.833 55 206.5 55v-73c-73.333 0 -140.833 -12.667 -202.5 -38s-110.834 -61.666 -147.501 -108.999
c36.667 -47.333 85.834 -83.666 147.501 -108.999s129.167 -38 202.5 -38z" />
    <glyph glyph-name="equal" unicode="=" 
d="M481 343l-10.001 0.000976562c0 17.333 -6.16699 32.166 -18.5 44.499s-27.166 18.5 -44.499 18.5h-368v49h441v-112zM480.999 210.001l-441 -0.000976562v112h10c0 -17.333 6.33301 -32.166 19 -44.499s27.667 -18.5 45 -18.5h367v-49z" />
    <glyph glyph-name="greater" unicode="&#x3e;" horiz-adv-x="447" 
d="M40 0v74.002c73.333 0 140.833 12.667 202.5 38s110.834 61.666 147.501 108.999c-36.667 47.333 -85.834 83.666 -147.501 108.999s-129.167 38 -202.5 38v73c74.667 0 143.5 -18.333 206.5 -55s113.5 -86.667 151.5 -150l9 -15l-9 -16
c-38 -62.667 -88.667 -112.5 -152 -149.5s-132 -55.5 -206 -55.5z" />
    <glyph glyph-name="question" unicode="?" 
d="M297 147l-72.999 0.00195312v221c24 0.666992 48.333 6 73 16c31.333 13.333 57 34 77 62s31.333 59.333 34 94v112h-80c-60 0 -110.833 -20.333 -152.5 -61s-62.5 -90.667 -62.5 -150h-73v7c0 58.667 21 109 63 151s92.333 63 151 63h227v-172
c0 -20.667 -6.33301 -39.834 -19 -57.501s-28.334 -28.834 -47.001 -33.501l-118 -28v-224zM297.001 0.00195312h-73v74h73v-74z" />
    <glyph glyph-name="at" unicode="@" horiz-adv-x="605" 
d="M194 0h-153.997v154c0 58.667 21 109 63 151s92.333 63 151 63h154v-294c0 -17.333 6.16699 -32.333 18.5 -45s27.166 -19 44.499 -19s32.166 6.33301 44.499 19s18.5 27.667 18.5 45v153c0 59.333 -20.333 109.833 -61 151.5s-90.334 62.5 -149.001 62.5h-284v74h291
c59.333 0 109.833 -20.833 151.5 -62.5s62.5 -92.167 62.5 -151.5v-301h-211v53c-39.333 -35.333 -86 -53 -140 -53zM113.003 147l0.000976562 -137h7c59.333 0 109.833 20.333 151.5 61s62.5 90.667 62.5 150v137h-6c-59.333 0 -109.833 -20.5 -151.5 -61.5
s-62.834 -90.833 -63.501 -149.5z" />
    <glyph glyph-name="A" unicode="A" horiz-adv-x="702" 
d="M442 662l220 -662.001h-137v10c17.333 0 29.5 6 36.5 18s7.83301 27.333 2.5 46l-97 293c-88 -5.33301 -161.167 -26.5 -219.5 -63.5s-102.5 -96.833 -132.5 -179.5l-9 -27c-4.66699 -16 -8.33398 -30 -11.001 -42c-1.33301 -13.333 1.83398 -24.166 9.50098 -32.499
s18.5 -12.5 32.5 -12.5v-10h-137l221 662h221zM270 588.999l-108 -324c71.333 94.667 165.333 151.667 282 171l-73 216h-38c-27.333 0 -48.333 -21 -63 -63z" />
    <glyph glyph-name="B" unicode="B" horiz-adv-x="585" 
d="M451 448v-7h74v-130c0 -86 -30.333 -159.333 -91 -220s-134 -91 -220 -91h-194v10c17.333 0 32.333 6.33301 45 19s19 27.667 19 45v588h153c59.333 0 109.833 -20.833 151.5 -62.5s62.5 -92.167 62.5 -151.5zM164 652h-7v-321c57.333 68 131 104.667 221 110
c0 59.333 -20.833 109.333 -62.5 150s-92.167 61 -151.5 61zM515 431c-118.667 0 -218.5 -40.5 -299.5 -121.5s-121.5 -180.833 -121.5 -299.5c118 0 217.667 40.667 299 122s122 181 122 299z" />
    <glyph glyph-name="C" unicode="C" horiz-adv-x="615" 
d="M530 0h-272c-62.667 -0 -116.334 31.333 -161.001 94s-67 138.334 -67 227.001v20c0 88.667 22.333 164.334 67 227.001s98.334 94 161.001 94h272l35 -151h-10c-9.33301 41.333 -30.666 75.166 -63.999 101.499s-71.333 39.5 -114 39.5h-41
c-63.333 0 -118 -31.5 -164 -94.5s-69 -138.5 -69 -226.5s23 -163.5 69 -226.5s100.667 -94.5 164 -94.5h41c42.667 0 80.667 13.167 114 39.5s54.666 60.166 63.999 101.499h10z" />
    <glyph glyph-name="D" unicode="D" horiz-adv-x="605" 
d="M94 0l-74.001 -0.000976562v662h301c59.333 0 109.833 -21 151.5 -63s62.5 -92.333 62.5 -151v-7c0 -121.333 -43.167 -225.166 -129.5 -311.499s-190.166 -129.5 -311.499 -129.5zM93.999 588.999l-0.000976562 -579.001c115.333 0 205.333 40.667 270 122
s97 184.333 97 309c0 59.333 -20.833 109.333 -62.5 150s-92.167 61 -151.5 61h-90c-17.333 0 -32.166 -6.16699 -44.499 -18.5s-18.5 -27.166 -18.5 -44.499z" />
    <glyph glyph-name="E" unicode="E" 
d="M247 0l-227 0.000976562v525l184 137h257v-147h-10c0 37.333 -13.5 69.5 -40.5 96.5s-59.167 40.5 -96.5 40.5l-221 -164v-99c40 34.667 87 52 141 52h154v-10h-81c-59.333 0 -109.833 -20.333 -151.5 -61s-62.5 -90.334 -62.5 -149.001v-211h80
c60 0 110.833 20.333 152.5 61s62.5 90.667 62.5 150h73v-7c0 -58.667 -20.833 -109 -62.5 -151s-92.167 -63 -151.5 -63z" />
    <glyph glyph-name="F" unicode="F" horiz-adv-x="511" 
d="M20 0l0.000976562 525l185 137h256v-147h-10c0 37.333 -13.333 69.5 -40 96.5s-58.667 40.5 -96 40.5l-221 -164v-99c40 34.667 87 52 141 52h153v-10h-80c-59.333 0 -109.833 -20.333 -151.5 -61s-62.5 -90.334 -62.5 -149.001v-148
c0 -17.333 6.16699 -32.166 18.5 -44.499s27.166 -18.5 44.499 -18.5v-10h-137z" />
    <glyph glyph-name="G" unicode="G" horiz-adv-x="585" 
d="M525 441l-0.000976562 -440.998h-74c-122 0 -226 43.167 -312 129.5s-129 190.166 -129 311.499v84l184 137h257v-147h-11c0 37.333 -13.333 69.5 -40 96.5s-58.667 40.5 -96 40.5l-221 -164v-47c0 -124.667 32.5 -227.667 97.5 -309s155.167 -122 270.5 -122v358
c0 17.333 -6.16699 32.166 -18.5 44.499s-27.166 18.5 -44.499 18.5v10h137z" />
    <glyph glyph-name="H" unicode="H" horiz-adv-x="551" 
d="M471 0h-136.999v10c17.333 0 32.166 6.16699 44.499 18.5s18.833 27.166 19.5 44.499l-1 323l-163 -37c-37.333 -11.333 -68 -32.333 -92 -63s-37 -65.334 -39 -104.001v-192h-73v662h137v-10c-17.333 0 -32.333 -6.16699 -45 -18.5s-19 -27.166 -19 -44.499v-250l37 8
l118 28c39.333 8.66699 72 28.834 98 60.501s40 67.5 42 107.5v119h73v-662z" />
    <glyph glyph-name="I" unicode="I" horiz-adv-x="270" 
d="M220 0l-200.001 -0.000976562v10c17.333 0 32.333 6.33301 45 19s19 27.667 19 45v515c-0.666992 17.333 -7.16699 32.166 -19.5 44.499s-27.166 18.5 -44.499 18.5v10h200v-10c-17.333 0 -32.166 -6.16699 -44.499 -18.5s-18.5 -27.166 -18.5 -44.499v-516
c0 -17.333 6.16699 -32.166 18.5 -44.499s27.166 -18.5 44.499 -18.5v-10z" />
    <glyph glyph-name="J" unicode="J" horiz-adv-x="511" 
d="M461 525v-524.999c-121.333 0 -225.166 43.167 -311.499 129.5s-129.5 190.166 -129.5 311.499h74c0 -110 25.667 -203.833 77 -281.5s123.666 -125.167 216.999 -142.5v471l-221 164c-38 0 -70.333 -13.333 -97 -40s-40 -59 -40 -97h-10v147h257z" />
    <glyph glyph-name="K" unicode="K" horiz-adv-x="511" 
d="M461 0l-74.002 -0.000976562c0 110 -25.667 204 -77 282s-123.666 125.667 -216.999 143v-425h-73v662h73v-10c-17.333 0 -32.166 -6.16699 -44.499 -18.5s-18.5 -27.166 -18.5 -44.499v-11c0 -37.333 13.333 -69.5 40 -96.5s59 -40.5 97 -40.5l284 211h10v-84l-185 -137
h-161c100 -22 182.667 -73.167 248 -153.5s98 -172.833 98 -277.5z" />
    <glyph glyph-name="L" unicode="L" horiz-adv-x="501" 
d="M20 0v661.998h137v-10c-17.333 0 -32.333 -6.16699 -45 -18.5s-19 -27.166 -19 -44.499v-572c93.333 17.333 165.833 64.833 217.5 142.5s77.5 171.5 77.5 281.5h73c0 -121.333 -43 -225.166 -129 -311.499s-190 -129.5 -312 -129.5z" />
    <glyph glyph-name="M" unicode="M" horiz-adv-x="889" 
d="M829 221l0.000976562 -221h-137v10c17.333 0 32.166 6.16699 44.499 18.5s18.5 27.166 18.5 44.499v148c0 110 -25.667 203.833 -77 281.5s-123.666 125.167 -216.999 142.5v-424h-73c0 110 -25.833 203.833 -77.5 281.5s-124.167 125.167 -217.5 142.5v-572
c0 -17.333 6.33301 -32.166 19 -44.499s27.667 -18.5 45 -18.5v-10h-137v652v10c75.333 0 145.5 -17.667 210.5 -53s117.5 -83.333 157.5 -144v187v10c121.333 0 225.166 -43 311.499 -129s129.5 -190 129.5 -312z" />
    <glyph glyph-name="N" unicode="N" horiz-adv-x="605" 
d="M399 662h136v-662h-73v221c0 124.667 -32.5 227.667 -97.5 309s-155.167 122 -270.5 122v-579c0 -17.333 6.16699 -32.166 18.5 -44.499s27.166 -18.5 44.499 -18.5v-10h-137v662h74c76 0 146.333 -17.667 211 -53s117 -83.333 157 -144v124
c0 17.333 -6.16699 32.166 -18.5 44.499s-27.166 18.5 -44.499 18.5v10z" />
    <glyph glyph-name="O" unicode="O" horiz-adv-x="648" 
d="M360 0h-132c-62.667 -0 -116.334 31.333 -161.001 94s-67 138.334 -67 227.001v20c0 88.667 22.333 164.334 67 227.001s98.334 94 161.001 94h132c62.667 0 116.334 -31.333 161.001 -94s67 -138.334 67 -227.001v-20c0 -88.667 -22.333 -164.334 -67 -227.001
s-98.334 -94 -161.001 -94zM294 11c60.667 4.66699 112.667 38 156 100s65 135.333 65 220s-21.667 158 -65 220s-95.333 95.333 -156 100c-60.667 -4.66699 -112.5 -38 -155.5 -100s-64.5 -135.333 -64.5 -220s21.5 -158 64.5 -220s94.833 -95.333 155.5 -100z" />
    <glyph glyph-name="P" unicode="P" horiz-adv-x="511" 
d="M93 0l-73 0.000976562v662h227c60 0 110.667 -18.833 152 -56.5s62 -85.5 62 -143.5v-7l-237 -55c-38 -10.667 -69.167 -32.334 -93.5 -65.001s-36.833 -69 -37.5 -109v-226zM93 652.001v-271.999l295 68c-2 57.333 -23.667 105.666 -65 144.999s-91 59 -149 59h-81z" />
    <glyph glyph-name="Q" unicode="Q" horiz-adv-x="669" 
d="M599 -74h-148.003l-51 76c-12 -1.33301 -22 -2 -30 -2h-132c-63.333 -0 -117.166 31.333 -161.499 94s-66.5 138.334 -66.5 227.001v20c0 88.667 22.333 164.334 67 227.001s98.334 94 161.001 94h132c62.667 0 116.334 -31.333 161.001 -94s67 -138.334 67 -227.001v-20
c0 -65.333 -12.833 -124.833 -38.5 -178.5s-59.167 -92.834 -100.5 -117.501l29 -44c24 -29.333 61 -44.333 111 -45v-10zM303.997 10c25.333 2 50.334 10 75.001 24l-38 57c-24.667 30 -61.334 45 -110.001 45v11h147l50 -75c30 30 53.667 67.5 71 112.5s26 93.5 26 145.5
c0 85.333 -21.667 159 -65 221s-95.333 95.333 -156 100c-60.667 -4.66699 -112.5 -38 -155.5 -100s-64.5 -135.667 -64.5 -221c0 -84.667 21.5 -158 64.5 -220s94.833 -95.333 155.5 -100z" />
    <glyph glyph-name="R" unicode="R" horiz-adv-x="575" 
d="M535 10v-10.001h-112l-138 414l-61 -14c-38 -11.333 -69.167 -33.166 -93.5 -65.499s-36.5 -68.5 -36.5 -108.5v-226h-74v662h227c60.667 0 111.667 -18.833 153 -56.5s62 -85.5 62 -143.5v-7l-109 -25l119 -358c14.667 -41.333 35.667 -62 63 -62zM94 651.999v-271.999
l294 68c-2 57.333 -23.667 105.666 -65 144.999s-91 59 -149 59h-80z" />
    <glyph glyph-name="S" unicode="S" 
d="M461 0h-227c-59.333 -0 -109.833 20.833 -151.5 62.5s-62.5 92.167 -62.5 151.5v7h73c0 -59.333 20.833 -109.333 62.5 -150s92.167 -61 151.5 -61h80v253c0 19.333 -6 36.5 -18 51.5s-27.333 24.5 -46 28.5l-230 54c-21.333 4.66699 -38.833 15.834 -52.5 33.501
s-20.5 37.5 -20.5 59.5v172h227c59.333 0 109.833 -21 151.5 -63s62.5 -92.333 62.5 -151v-7h-74c0 59.333 -20.667 109.333 -62 150s-92 61 -152 61h-80v-179c0 -19.333 6 -36.5 18 -51.5s27.333 -24.5 46 -28.5l231 -54c21.333 -4.66699 38.833 -15.834 52.5 -33.501
s20.5 -37.5 20.5 -59.5v-246z" />
    <glyph glyph-name="T" unicode="T" horiz-adv-x="629" 
d="M314 441v-440.999h-136v10c17.333 0 32 6.16699 44 18.5s18.333 27.166 19 44.499v579h-74c-37.333 0 -69.5 -13.333 -96.5 -40s-40.5 -59 -40.5 -97h-10v147h294v-53c40.667 35.333 87.667 53 141 53h154v-10h-81c-59.333 0 -109.833 -20.333 -151.5 -61
s-62.5 -90.667 -62.5 -150z" />
    <glyph glyph-name="U" unicode="U" horiz-adv-x="575" 
d="M84 0l-74.0029 -0.000976562v662h137v-10c-17.333 0 -32.166 -6.16699 -44.499 -18.5s-18.5 -27.166 -18.5 -44.499v-579c115.333 0 205.333 40.667 270 122s97 184.333 97 309v148c0 17.333 -6.16699 32.166 -18.5 44.499s-27.166 18.5 -44.499 18.5v10h137v-221
c0 -121.333 -43.167 -225.166 -129.5 -311.499s-190.166 -129.5 -311.499 -129.5z" />
    <glyph glyph-name="V" unicode="V" horiz-adv-x="678" 
d="M417 0l-186.002 -0.000976562l-221 662h137v-10c-13.333 0 -23.666 -3.83301 -30.999 -11.5s-11 -17.5 -11 -29.5c0 -7.33301 1 -14.666 3 -21.999l193 -579h4c27.333 0 48.333 21.333 63 64l172 515c2 8 3 15.333 3 22c0 12 -3.66699 21.833 -11 29.5
s-17.666 11.5 -30.999 11.5v10h137z" />
    <glyph glyph-name="W" unicode="W" horiz-adv-x="899" 
d="M692 662h136.998v-652v-10c-76 0 -146.333 17.667 -211 53s-117 83.333 -157 144v-187v-10c-122 0 -226 43 -312 129s-129 190 -129 312v221h136v-10c-17.333 0 -32.166 -6.16699 -44.499 -18.5s-18.5 -27.166 -18.5 -44.499v-148c0 -110 25.833 -203.833 77.5 -281.5
s123.834 -125.167 216.501 -142.5v424h74c0 -110 25.667 -203.833 77 -281.5s123.666 -125.167 216.999 -142.5v572c0 17.333 -6.16699 32.166 -18.5 44.499s-27.166 18.5 -44.499 18.5v10z" />
    <glyph glyph-name="X" unicode="X" horiz-adv-x="565" 
d="M149 0l-138.998 0.00292969v10c0 84.667 20.333 158.167 61 220.5s90 97.166 148 104.499l-209 327h87l205 -316c49.333 14 85 41.667 107 83s35.333 94.666 40 159.999c0 17.333 -6.16699 32.166 -18.5 44.499s-27.166 18.5 -44.499 18.5v10h139v-10
c0 -85.333 -20.5 -159.333 -61.5 -222s-90.833 -97.334 -149.5 -104.001l211 -326h-92l-202 316c-48.667 -14.667 -83.834 -42.667 -105.501 -84s-34.834 -94.333 -39.501 -159c0 -17.333 6.16699 -32.166 18.5 -44.499s27.166 -18.5 44.499 -18.5v-10z" />
    <glyph glyph-name="Y" unicode="Y" horiz-adv-x="618" 
d="M284 441v-441h-137v10c17.333 0 32.333 6.16699 45 18.5s19 27.166 19 44.499v368l-111 166c-23.333 28.667 -60 43.667 -110 45v10h147l140 -210h14c47.333 0 89.5 13.333 126.5 40s62.5 61.334 76.5 104.001c-1.33301 15.333 -8 28.5 -20 39.5s-26.333 16.5 -43 16.5
v10h147v-6c0 -59.333 -20.833 -110 -62.5 -152s-92.167 -63 -151.5 -63h-80z" />
    <glyph glyph-name="Z" unicode="Z" horiz-adv-x="528" 
d="M274 0h-264l384 652h-97c-59.333 0 -109.833 -20.333 -151.5 -61s-62.5 -90.667 -62.5 -150h-73v7c0 59.333 20.833 109.833 62.5 151.5s92.167 62.5 151.5 62.5h264l-381 -652h93c59.333 0 109.833 20.333 151.5 61s62.5 90.667 62.5 150h74v-7
c0 -58.667 -21 -109 -63 -151s-92.333 -63 -151 -63z" />
    <glyph glyph-name="bracketleft" unicode="[" horiz-adv-x="192" 
d="M152 -50l-112 -0.000976562v734h112v-10c-17.333 0 -32.166 -6.16699 -44.499 -18.5s-18.5 -27.166 -18.5 -44.499v-587c0 -17.333 6.16699 -32.333 18.5 -45s27.166 -19 44.499 -19v-10z" />
    <glyph glyph-name="backslash" unicode="\" horiz-adv-x="438" 
d="M398 0h-74l-294 662h73z" />
    <glyph glyph-name="bracketright" unicode="]" horiz-adv-x="192" 
d="M152 -50h-112v10c17.333 0 32.166 6.33301 44.499 19s18.5 27.334 18.5 44.001v588c0 17.333 -6.16699 32.166 -18.5 44.499s-27.166 18.5 -44.499 18.5v10h112v-734z" />
    <glyph glyph-name="underscore" unicode="_" horiz-adv-x="447" 
d="M407 -69h-367v49h367v-49z" />
    <glyph glyph-name="a" unicode="a" horiz-adv-x="468" 
d="M428 0l-103 -0.00195312v53c-40.667 -35.333 -87.667 -53 -141 -53h-154c0 88.667 17.667 159.834 53 213.501s91.333 80.5 168 80.5h74v137h-7c-32.667 0 -60.667 -1.66699 -84 -5s-45.5 -9.66602 -66.5 -18.999s-36.833 -23.5 -47.5 -42.5s-16 -42.5 -16 -70.5h-74v4
c0 30 5.33301 54.833 16 74.5s26.5 34.334 47.5 44.001s43.167 16.167 66.5 19.5s51.333 5 84 5h154v-404c0 -8.66699 3 -15.834 9 -21.501s13 -8.5 21 -8.5v-7zM104 56.998l-0.000976562 -46.999h6c60 0 110.833 20.333 152.5 61s62.5 90.667 62.5 150v63h-74
c-27.333 0 -50.333 -4 -69 -12s-33 -17.833 -43 -29.5s-17.667 -28.334 -23 -50.001s-8.66602 -42 -9.99902 -61s-2 -43.833 -2 -74.5z" />
    <glyph glyph-name="b" unicode="b" horiz-adv-x="496" 
d="M30 0l-0.00195312 661.998h137v-10c-17.333 0 -32.166 -6.16699 -44.499 -18.5s-18.5 -27.166 -18.5 -44.499v-200c38.667 34.667 85.334 52 140.001 52h227c0 -121.333 -43 -225.166 -129 -311.499s-190 -129.5 -312 -129.5zM103.998 220.998l0.000976562 -203.998
c91.333 17.333 162.666 63.666 213.999 138.999s78 167 80 275h-80c-59.333 0 -109.833 -20.333 -151.5 -61s-62.5 -90.334 -62.5 -149.001z" />
    <glyph glyph-name="c" unicode="c" horiz-adv-x="443" 
d="M388 10l0.00390625 -10h-154c-58.667 0 -109 21 -151 63s-63 92.333 -63 151v13c0 59.333 16.667 109.833 50 151.5s73.666 62.5 120.999 62.5h197l35 -150h-11c-8.66699 39.333 -28.834 72 -60.501 98s-67.834 40 -108.501 42c-44.667 -2 -80.834 -23 -108.501 -63
s-41.5 -89 -41.5 -147c0 -59.333 20.833 -109.333 62.5 -150s92.167 -61 151.5 -61h81z" />
    <glyph glyph-name="d" unicode="d" 
d="M377 0v6.99902c8.66699 0 15.834 2.83301 21.501 8.5s8.83398 12.834 9.50098 21.501v16c-40.667 -35.333 -87.667 -53 -141 -53h-227c0 108.667 35 204 105 286s157.667 131.667 263 149v191c-0.666992 8 -3.83398 14.833 -9.50098 20.5s-12.834 8.5 -21.501 8.5v7h104
v-662h-104zM113 9.99902h80c60 0 110.833 20.333 152.5 61s62.5 90.667 62.5 150v204c-92 -17.333 -163.667 -63.833 -215 -139.5s-78 -167.5 -80 -275.5z" />
    <glyph glyph-name="e" unicode="e" horiz-adv-x="427" 
d="M317 10l79.998 0.000976562v-10h-153c-59.333 0 -109.833 20.833 -151.5 62.5s-62.5 92.167 -62.5 151.5v227h153c58.667 0 108.834 -20.333 150.501 -61s62.834 -90.334 63.501 -149.001v-3v-1v-6h-294c0 -59.333 20.833 -109.333 62.5 -150s92.167 -61 151.5 -61z
M109.998 431.001h-7.00098v-200h221c-2.66699 56.667 -24.667 104.167 -66 142.5s-90.666 57.5 -147.999 57.5z" />
    <glyph glyph-name="f" unicode="f" horiz-adv-x="358" 
d="M358 662l-0.00195312 -72.998c-89.333 0 -146.333 -2.33301 -171 -7c-59.333 -10.667 -95 -40.334 -107 -89.001c-4 -15.333 -6 -32.666 -6 -51.999h210v-73h-10c0 17.333 -6.16699 32.166 -18.5 44.499s-27.166 18.5 -44.499 18.5h-74v-431h-74v368
c0 17.333 -6.16699 32.166 -18.5 44.499s-27.166 18.5 -44.499 18.5v10h63c0 76.667 27 132.667 81 168s125.333 53 214 53z" />
    <glyph glyph-name="g" unicode="g" horiz-adv-x="511" 
d="M30 -220l0.000976562 74.001c103.333 0 192.666 22.833 267.999 68.5s125 110.167 149 193.5c-18 -34.667 -44 -62.5 -78 -83.5s-71.333 -31.5 -112 -31.5h-227c0 121.333 43 225.166 129 311.499s190 129.5 312 129.5v-227c0 -6 -0.333008 -10.667 -1 -14
c-5.33301 -117.333 -50.5 -216.833 -135.5 -298.5s-186.5 -122.5 -304.5 -122.5zM103.001 11.001l80 -0.000976562c59.333 0 109.833 20.333 151.5 61s62.5 90.334 62.5 149.001v204c-91.333 -17.333 -162.833 -63.833 -214.5 -139.5s-78.167 -167.167 -79.5 -274.5z" />
    <glyph glyph-name="h" unicode="h" horiz-adv-x="511" 
d="M103 589v-154.002c105.333 -17.333 193 -67 263 -149s105 -177.333 105 -286h-73c0 110 -25.833 204 -77.5 282s-124.167 125.667 -217.5 143v-352c0.666992 -17.333 7.16699 -32.166 19.5 -44.499s27.166 -18.5 44.499 -18.5v-10h-137v662h137v-10
c-17.333 0 -32.166 -6.16699 -44.499 -18.5s-18.833 -27.166 -19.5 -44.499z" />
    <glyph glyph-name="i" unicode="i" horiz-adv-x="177" 
d="M20 551h73v-73h-73v73zM157 10l0.000976562 -10.001h-137v441h73v-368c0.666992 -17.333 7.16699 -32.166 19.5 -44.499s27.166 -18.5 44.499 -18.5z" />
    <glyph glyph-name="j" unicode="j" horiz-adv-x="194" 
d="M134 479h-74v73h74v-73zM-80 -220l-80 -0.000976562v11h6c59.333 0 109.833 20.333 151.5 61s62.5 90.334 62.5 149.001v442h74v-448c0 -59.333 -20.833 -110 -62.5 -152s-92.167 -63 -151.5 -63z" />
    <glyph glyph-name="k" unicode="k" horiz-adv-x="501" 
d="M103 0l-73.002 -0.000976562v662h136v-10c-17.333 0 -32.166 -6.16699 -44.499 -18.5s-18.5 -27.166 -18.5 -44.499v-148h74c37.333 0 69.5 13.5 96.5 40.5s40.5 59.167 40.5 96.5h10v-147h-199c100 -22 182.667 -73.167 248 -153.5s98 -172.833 98 -277.5h-74
c0 110 -25.667 204 -77 282s-123.666 125.667 -216.999 143v-425z" />
    <glyph glyph-name="l" unicode="l" horiz-adv-x="210" 
d="M180 0l-135.999 -0.000976562v588c0 17.333 -6.33301 32.333 -19 45s-27.667 19 -45 19v10h137v-589c0 -17.333 6.16699 -32.166 18.5 -44.499s27.166 -18.5 44.499 -18.5v-10z" />
    <glyph glyph-name="m" unicode="m" horiz-adv-x="732" 
d="M104 0l-74 0.000976562v441c59.333 0 114.833 -15.667 166.5 -47s94.5 -74.333 128.5 -129v176c101.333 0 187.833 -43 259.5 -129s107.5 -190 107.5 -312h-140v10c17.333 0 32.333 6.16699 45 18.5s19 27.166 19 44.499c-8 90.667 -30.5 167 -67.5 229
s-87.167 101.667 -150.5 119v-421h-73c0 108 -18.833 200.167 -56.5 276.5s-92.5 124.5 -164.5 144.5v-421z" />
    <glyph glyph-name="n" unicode="n" horiz-adv-x="512" 
d="M472 441l0.000976562 -440.998h-137v10c17.333 0 32.166 6.16699 44.499 18.5s18.5 27.166 18.5 44.499v352c-93.333 -17.333 -165.666 -65 -216.999 -143s-77 -172 -77 -282h-74c0 89.333 23.667 190.666 71 303.999c14 34.667 14.333 64.5 1 89.5
s-37.333 37.5 -72 37.5v10h147v-10c-48 -81.333 -84 -165 -108 -251c35.333 78 89.166 141 161.499 189s152.833 72 241.5 72z" />
    <glyph glyph-name="o" unicode="o" horiz-adv-x="496" 
d="M300 0h-99c-47.333 -0 -87.666 20.833 -120.999 62.5s-50 92.167 -50 151.5v13c0 59.333 16.667 109.833 50 151.5s73.666 62.5 120.999 62.5h99c47.333 0 87.666 -20.833 120.999 -62.5s50 -92.167 50 -151.5v-13c0 -58.667 -16.667 -109 -50 -151
s-73.666 -63 -120.999 -63zM250 11c44 2.66699 79.5 23.834 106.5 63.501s40.5 88.5 40.5 146.5s-13.5 106.833 -40.5 146.5s-62.5 60.834 -106.5 63.501c-44 -2.66699 -79.5 -23.834 -106.5 -63.501s-40.5 -88.5 -40.5 -146.5s13.5 -106.833 40.5 -146.5
s62.5 -60.834 106.5 -63.501z" />
    <glyph glyph-name="p" unicode="p" horiz-adv-x="476" 
d="M147 -220l-136.999 -0.000976562v448c0 58.667 21 109 63 151s92.333 63 151 63h227c0 -108.667 -35 -204 -105 -286s-157.667 -131.667 -263 -149v-154c0.666992 -17.333 7.16699 -32.166 19.5 -44.499s27.166 -18.5 44.499 -18.5v-10zM83.001 220.999v-203.001
c92 16.667 163.667 62.834 215 138.501s78 167.5 80 275.5h-80c-60 0 -110.833 -20.333 -152.5 -61s-62.5 -90.667 -62.5 -150z" />
    <glyph glyph-name="q" unicode="q" horiz-adv-x="501" 
d="M461 -221l-136.999 0.000976562v10c17.333 0 32.166 6.16699 44.499 18.5s18.5 27.166 18.5 44.499v154c-104.667 17.333 -192 67 -262 149s-105 177.333 -105 286h227c59.333 0 109.833 -20.833 151.5 -62.5s62.5 -92.167 62.5 -151.5v-448zM387.001 16.001v204
c0 59.333 -20.667 109.333 -62 150s-92 61 -152 61h-80c1.33301 -108 27.833 -199.833 79.5 -275.5s123.167 -122.167 214.5 -139.5z" />
    <glyph glyph-name="r" unicode="r" horiz-adv-x="339" 
d="M157 0h-74.001v367c0 17.333 -6.16699 32.333 -18.5 45s-27.166 19 -44.499 19v10h137v-56c36 37.333 85 56 147 56h35v-10h-35c-31.333 0 -57 -4.66699 -77 -14s-34.833 -23.833 -44.5 -43.5s-16.167 -40 -19.5 -61s-5.33301 -48.167 -6 -81.5v-231z" />
    <glyph glyph-name="s" unicode="s" horiz-adv-x="428" 
d="M388 -1l-154 0.000976562c-32.667 0 -60.667 1.66699 -84 5s-45.5 9.83301 -66.5 19.5s-36.833 24.334 -47.5 44.001s-16 44.5 -16 74.5v4h74c0 -28 5.33301 -51.5 16 -70.5s26.5 -33.167 47.5 -42.5s43.167 -15.666 66.5 -18.999s51.333 -5 84 -5h7v131
c0 16.667 -5.33301 31.667 -16 45s-24 21.666 -40 24.999l-165 39c-21.333 5.33301 -39 16.5 -53 33.5s-21 36.833 -21 59.5v99h154c32.667 0 60.667 -1.66699 84 -5s45.5 -9.83301 66.5 -19.5s36.833 -24.334 47.5 -44.001s16 -44.5 16 -74.5v-5h-73
c0 28.667 -5.33301 52.334 -16 71.001s-26.5 32.667 -47.5 42s-43.167 15.666 -66.5 18.999s-51.333 5 -84 5h-7v-113c0 -16.667 5.16699 -31.667 15.5 -45s23.833 -22 40.5 -26l165 -38c21.333 -4.66699 38.833 -15.834 52.5 -33.501s20.5 -37.5 20.5 -59.5v-116z" />
    <glyph glyph-name="t" unicode="t" horiz-adv-x="359" 
d="M114 0h-74.001v662h74v-10c-17.333 0 -32.166 -6.33301 -44.499 -19s-18.5 -27.667 -18.5 -45v-10c0 -38 13.333 -70.333 40 -97s59 -40 97 -40h146v-10h-220v-431z" />
    <glyph glyph-name="u" unicode="u" horiz-adv-x="510" 
d="M30 0l0.000976562 440.999h137v-10c-17.333 0 -32.333 -6.16699 -45 -18.5s-19 -27.166 -19 -44.499v-352c93.333 17.333 165.833 65 217.5 143s77.5 172 77.5 282h73c0 -92 -23.667 -193.333 -71 -304c-6.66699 -16 -10 -32.667 -10 -50c0 -23.333 7.16699 -42 21.5 -56
s34.166 -21 59.499 -21v-10h-147v10c48 81.333 84.333 165 109 251c-35.333 -78 -89.333 -141 -162 -189s-153 -72 -241 -72z" />
    <glyph glyph-name="v" unicode="v" horiz-adv-x="512" 
d="M472 441v-440.999c-122 0 -226.167 43 -312.5 129s-129.5 190 -129.5 312h74c0 -110 25.667 -204 77 -282s123.666 -125.667 216.999 -143v352c0 17.333 -6.16699 32.166 -18.5 44.499s-27.166 18.5 -44.499 18.5v10h137z" />
    <glyph glyph-name="w" unicode="w" horiz-adv-x="742" 
d="M408 0c-101.333 0 -188.002 43.001 -260.002 129.001s-108 190 -108 312h74c0 -108 18.667 -200.167 56 -276.5s92 -124.5 164 -144.5v421h74c0 -108 18.833 -200.167 56.5 -276.5s92.5 -124.5 164.5 -144.5v348c-0.666992 17.333 -7.16699 32.166 -19.5 44.499
s-27.166 18.5 -44.499 18.5v10h137v-441c-59.333 0 -114.666 15.667 -165.999 47s-94 74.333 -128 129v-176z" />
    <glyph glyph-name="x" unicode="x" horiz-adv-x="438" 
d="M103 0l-73 -0.00195312v6c0 56 14 104.833 42 146.5s62.333 65.167 103 70.5l-145 218h73l140 -209c16 4.66699 29.167 12.167 39.5 22.5s18.333 20.833 24 31.5s9.83398 26.167 12.501 46.5s4.16699 37 4.5 50s0.5 32.5 0.5 58.5h74v-7c0 -56 -14 -104.667 -42 -146
s-62.667 -64.666 -104 -69.999l146 -218h-74l-140 209c-16 -5.33301 -29.167 -13.166 -39.5 -23.499s-18.333 -20.833 -24 -31.5s-9.83398 -26 -12.501 -46s-4.16699 -36.5 -4.5 -49.5s-0.5 -32.5 -0.5 -58.5z" />
    <glyph glyph-name="y" unicode="y" horiz-adv-x="481" 
d="M451 442v-447.999c0 -58.667 -20.833 -109 -62.5 -151s-92.167 -63 -151.5 -63h-80v10h6c59.333 0 109.833 20.333 151.5 61s62.5 90.667 62.5 150v6c-104.667 17.333 -192 67 -262 149s-105 177.333 -105 286h73c0 -110 25.667 -203.833 77 -281.5
s123.666 -125.167 216.999 -142.5v351c0 17.333 -6.16699 32.166 -18.5 44.499s-27.166 18.5 -44.499 18.5v10h137z" />
    <glyph glyph-name="z" unicode="z" horiz-adv-x="408" 
d="M153 0l-153 0.000976562v10l294 421h-7c-32.667 0 -60.667 -1.66699 -84 -5s-45.5 -9.66602 -66.5 -18.999s-36.833 -23.333 -47.5 -42s-16 -42.334 -16 -71.001h-73v5c-0 30 5.33301 54.833 16 74.5s26.5 34.334 47.5 44.001s43.167 16.167 66.5 19.5s51.333 5 84 5h154
l-1 -11l-294 -421h7c32.667 0 60.667 1.66699 84 5s45.5 9.66602 66.5 18.999s36.833 23.5 47.5 42.5s16 42.5 16 70.5h74v-4c0 -30 -5.33301 -54.833 -16 -74.5s-26.667 -34.334 -48 -44.001s-43.5 -16.167 -66.5 -19.5s-51.167 -5 -84.5 -5z" />
    <glyph glyph-name="braceleft" unicode="{" horiz-adv-x="227" 
d="M187 -43l-6.99707 -6.99609l-109 109c-16 16 -24 35 -24 57c0 14.667 5.16699 38.334 15.5 71.001s15.5 58 15.5 76c0 6 -0.333008 10.667 -1 14c0 4.66699 -6.16699 11.5 -18.5 20.5s-18.5 15.833 -18.5 20.5c0 4 6.16699 9.66699 18.5 17s18.5 12.666 18.5 15.999
c2 20.667 -2.66699 49.5 -14 86.5s-17 63.167 -17 78.5c0 23.333 8.33301 43.333 25 60l109 109l7 -7l-5 -6c-28.667 -28.667 -47.167 -59.834 -55.5 -93.501s-12.5 -75.167 -12.5 -124.5v-39c0 -14.667 -0.666992 -36 -2 -64c0 -3.33301 -6.16699 -8.66602 -18.5 -15.999
s-18.5 -13 -18.5 -17c0 -4.66699 6.16699 -11.5 18.5 -20.5s18.833 -15.833 19.5 -20.5c1.33301 -18.667 2.16602 -46.334 2.49902 -83.001s1.16602 -65.334 2.49902 -86.001s7.16602 -44.834 17.499 -72.501s25.833 -51.834 46.5 -72.501z" />
    <glyph glyph-name="braceright" unicode="}" horiz-adv-x="228" 
d="M156 59l-109.003 -109.005l-7 7l6 6c28.667 29.333 47.167 61 55.5 95s12.5 76.333 12.5 127v40c0 26.667 0.333008 46.667 1 60c0 3.33301 6.16699 8.66602 18.5 15.999s18.5 13 18.5 17c0 4.66699 -6.16699 11.5 -18.5 20.5s-18.5 15.5 -18.5 19.5
c-1.33301 18.667 -2.16602 46.334 -2.49902 83.001s-1.16602 65.334 -2.49902 86.001s-7.16602 44.834 -17.499 72.501s-25.833 51.834 -46.5 72.501l-6 6l7 7l109 -109c16 -15.333 24 -34 24 -56c0 -14.667 -5.16699 -38.5 -15.5 -71.5s-15.5 -58.5 -15.5 -76.5
c0 -2 0.166992 -4.5 0.5 -7.5s0.5 -5.16699 0.5 -6.5c0 -4 6.33301 -10.5 19 -19.5s19 -15.833 19 -20.5c0 -4 -6.16699 -9.66699 -18.5 -17s-18.5 -12.666 -18.5 -15.999c-2 -20.667 2.66699 -49.667 14 -87s17 -63.666 17 -78.999c0 -22.667 -8.66699 -42.667 -26 -60z
" />
    <glyph glyph-name="asciitilde" unicode="~" horiz-adv-x="602" 
d="M410 237c-36 0 -63.333 9.33301 -82 28l-31 33c-16 16 -37.333 24 -64 24c-49.333 0 -98.666 -22.667 -147.999 -68l-45 47l5 4c40 39.333 88.667 59 146 59c38 0 66 -9.66699 84 -29l31 -32c16 -16 37.333 -24 64 -24c49.333 0 98.666 22.667 147.999 68l44 -46l-5 -4
c-42 -40 -91 -60 -147 -60z" />
    <glyph glyph-name="cent" unicode="&#xa2;" horiz-adv-x="483" 
d="M285 -74h-47.9961v75c-55.333 4.66699 -102 27.334 -140 68.001s-57 89 -57 145v13c0 59.333 16.667 109.833 50 151.5s73.666 62.5 120.999 62.5h26v74h48v-74h123l35 -150h-10c-8.66699 39.333 -28.834 72 -60.501 98s-67.834 40 -108.501 42
c-44.667 -2 -80.834 -22.833 -108.501 -62.5s-41.5 -88.834 -41.5 -147.501s20.833 -108.5 62.5 -149.5s92.167 -61.5 151.5 -61.5h80v-10h-123v-74z" />
    <glyph glyph-name="sterling" unicode="&#xa3;" horiz-adv-x="531" 
d="M187 0h-136.999v10c17.333 0 32.166 6.33301 44.499 19s18.5 27.667 18.5 45v233h-73v49h73v306h154c59.333 0 109.833 -21 151.5 -63s62.5 -92.333 62.5 -151v-7h-73c0 59.333 -20.833 109.333 -62.5 150s-92.5 61 -152.5 61h-6v-296h147v-49h-147v-86
c0 -59.333 20.833 -109.333 62.5 -150s92.167 -61 151.5 -61h80v-10h-154c-54 0 -100.667 17.667 -140 53v-53z" />
    <glyph glyph-name="yen" unicode="&#xa5;" horiz-adv-x="517" 
d="M295 0h-73v172h-111v49h111v73h-111v49h140v31c0 60 -20.333 110.833 -61 152.5s-90.667 62.5 -150 62.5v73h7c53.333 0 99.833 -17.167 139.5 -51.5s63.5 -77.5 71.5 -129.5c8 52 32 95.167 72 129.5s86.667 51.5 140 51.5h7v-73c-59.333 0 -109.333 -20.833 -150 -62.5
s-61 -92.5 -61 -152.5v-31h140v-49h-111v-73h111v-49h-111v-172z" />
    <glyph glyph-name="copyright" unicode="&#xa9;" horiz-adv-x="742" 
d="M371 0c-91.333 0 -169.333 32.333 -234 97s-97 142.667 -97 234s32.333 169.333 97 234s142.667 97 234 97s169.333 -32.333 234 -97s97 -142.667 97 -234s-32.333 -169.333 -97 -234s-142.667 -97 -234 -97zM371 40c80 0 148.5 28.5 205.5 85.5s85.5 125.5 85.5 205.5
s-28.5 148.5 -85.5 205.5s-125.5 85.5 -205.5 85.5s-148.5 -28.5 -205.5 -85.5s-85.5 -125.5 -85.5 -205.5s28.5 -148.5 85.5 -205.5s125.5 -85.5 205.5 -85.5zM486 165l-0.00195312 -7.00098h-118c-45.333 0 -84.166 16 -116.499 48s-48.5 70.667 -48.5 116v10
c0 45.333 12.833 84.166 38.5 116.499s56.834 48.5 93.501 48.5h150l27 -116h-8c-6.66699 30.667 -22 56 -46 76s-51.667 30.667 -83 32c-34.667 -2 -62.5 -18.167 -83.5 -48.5s-31.5 -68.166 -31.5 -113.499s16 -83.666 48 -114.999s70.667 -47 116 -47h62z" />
    <glyph glyph-name="registered" unicode="&#xae;" horiz-adv-x="448" 
d="M224 362c-50.667 0 -94 18 -130 54s-54 79.333 -54 130s18 94 54 130s79.333 54 130 54s94 -18 130 -54s54 -79.333 54 -130s-18 -94 -54 -130s-79.333 -54 -130 -54zM224 395c42 0 77.667 14.833 107 44.5s44 65.167 44 106.5s-14.667 76.833 -44 106.5
s-65 44.5 -107 44.5c-41.333 0 -76.833 -14.833 -106.5 -44.5s-44.5 -65.167 -44.5 -106.5s14.833 -76.833 44.5 -106.5s65.167 -44.5 106.5 -44.5zM191 453l-28.001 0.000976562v186h71c16.667 0 30.834 -5.33301 42.501 -16s17.5 -24 17.5 -40v-2l-31 -7l34 -100
c3.33301 -12 9.33301 -18 18 -18v-3h-39l-38 115l-10 -2c-10.667 -2.66699 -19.5 -8.83398 -26.5 -18.501s-10.5 -20.167 -10.5 -31.5v-63zM190.999 636.001v-76l75 17c0 16.667 -4.83301 30.667 -14.5 42s-22.5 17 -38.5 17h-22z" />
    <glyph glyph-name="Euro" unicode="&#x20ac;" horiz-adv-x="531" 
d="M481 0h-154c-59.333 0 -109.833 21 -151.5 63s-62.5 92.333 -62.5 151v7h-73v49h73v98h-73v49h73v31c0 58.667 20.833 109 62.5 151s92.167 63 151.5 63h154v-10h-80c-59.333 0 -109.833 -20.333 -151.5 -61s-62.5 -90.667 -62.5 -150v-24h147v-49h-147v-98h147v-49h-147
c0 -59.333 20.833 -109.333 62.5 -150s92.167 -61 151.5 -61h80v-10z" />
    <glyph glyph-name="trademark" unicode="&#x2122;" horiz-adv-x="311" 
d="M97 602h-28v100h-29v28h86v-28h-29v-100zM171 602h-28v128h28l36 -92l36 92h28v-128h-28v56l-22 -56h-28l-22 56v-56z" />
    <glyph glyph-name="uni301D" unicode="&#x301d;" horiz-adv-x="265" 
d="M113 583l-73 0.000976562v74l22 73h10c-2 -6 -3 -12 -3 -18c0 -12.667 4 -23.334 12 -32.001s18.333 -13 31 -13h1v-84zM225 583.001l-74 0.000976562v74l22 73h10c-2 -6 -3 -12 -3 -18c0 -12.667 4.16699 -23.334 12.5 -32.001s18.833 -13 31.5 -13h1v-84z" />
    <glyph glyph-name="uni301E" unicode="&#x301e;" horiz-adv-x="263" 
d="M91 583l-9 -0.000976562c2 6 3 12 3 18c0 12.667 -4.16699 23.334 -12.5 32.001s-18.833 13 -31.5 13h-1v84h74v-74zM201 582.999l-10 -0.000976562c2 6 3 12 3 18c0 12.667 -4 23.334 -12 32.001s-18.333 13 -31 13h-1v84h73v-74z" />
    <glyph glyph-name=".null" horiz-adv-x="0" 
 />
    <glyph glyph-name="nonmarkingreturn" horiz-adv-x="333" 
 />
    </font>
</defs>
</svg>
