<?xml version="1.0" encoding="utf-8"?>
<!-- Generator: Adobe Illustrator 27.8.0, SVG Export Plug-In . SVG Version: 6.00 Build 0)  -->
<svg width="30px" height="30px" version="1.1" id="Ebene_1" xmlns="http://www.w3.org/2000/svg" xmlns:xlink="http://www.w3.org/1999/xlink" x="0px" y="0px"
	 viewBox="0 0 30 30" style="enable-background:new 0 0 30 30;" xml:space="preserve">
<style type="text/css">
	.st0{fill:#E9E9E9;}
</style>
<path class="st0" d="M15,0.2c-8.3,0-15,6.7-15,15c0,7,4.8,12.9,11.4,14.5c-0.1-0.2-0.1-0.5-0.1-0.8v-2.5c-0.6,0-1.6,0-1.9,0
	c-1.1,0-1.9-0.5-2.4-1.2c-0.5-0.9-0.6-2.3-1.8-3.1c-0.3-0.3-0.1-0.6,0.3-0.5c0.8,0.2,1.4,0.8,2,1.5s0.9,1,2,1c0.6,0,1.4,0,2.1-0.1
	c0.4-1,1.1-2,2-2.5c-5-0.5-7.4-3-7.4-6.3c0-1.4,0.6-2.9,1.7-4.1C7.5,9.9,7.1,7.5,8,6.5c2.2,0,3.6,1.4,3.9,1.9
	c1.1-0.4,2.3-0.6,3.7-0.6c1.3,0,2.5,0.2,3.6,0.6c0.3-0.4,1.7-1.9,4-1.9c0.9,0.9,0.5,3.3,0.1,4.5c1,1.2,1.6,2.6,1.6,4.1
	c0,3.3-2.4,5.8-7.4,6.3c1.4,0.7,2.4,2.7,2.4,4.2v3.4c0,0.1,0,0.2,0,0.4c5.8-2.1,10-7.6,10-14.2C30,6.9,23.3,0.2,15,0.2z"/>
</svg>
