<?xml version="1.0" encoding="utf-8"?>
<!-- Generator: Adobe Illustrator 27.8.0, SVG Export Plug-In . SVG Version: 6.00 Build 0)  -->
<svg width="40px" height="40px" version="1.1" id="Ebene_1" xmlns="http://www.w3.org/2000/svg" xmlns:xlink="http://www.w3.org/1999/xlink" x="0px" y="0px"
	 viewBox="0 0 40 40" style="enable-background:new 0 0 40 40;" xml:space="preserve">
<style type="text/css">
	.st0{fill:#E9E9E9;}
</style>
<path class="st0" d="M39.7,22.3c-1.3-6.8-8-7.6-8-7.6H1.3c-1,0-1.1,1.3-1.1,1.3s-0.1,12.1,0,19.6c0.3,4,4.3,4.4,4.3,4.4
	s13.7,0,19.8-0.1c4-0.7,4.4-4.2,4.4-6.2C35.9,34.1,41,29,39.7,22.3L39.7,22.3z M21.4,28.1c-2.1,2.4-6.6,6.6-6.6,6.6s-0.2,0.2-0.5,0
	c-0.1-0.1-0.2-0.1-0.2-0.1c-0.7-0.7-5.6-5-6.7-6.5c-1.2-1.6-1.7-4.5-0.1-6.1s5-1.8,7.2,0.7c0,0,2.6-3,5.7-1.6
	C23.3,22.3,23.2,25.9,21.4,28.1L21.4,28.1z M31.6,28.9c-1.5,0.2-2.8,0-2.8,0v-9.4h2.9c0,0,3.3,0.9,3.3,4.4
	C35,27.1,33.4,28.3,31.6,28.9L31.6,28.9z"/>
</svg>
