<?xml version="1.0" encoding="utf-8"?>
<!-- Generator: Adobe Illustrator 27.1.1, SVG Export Plug-In . SVG Version: 6.00 Build 0)  -->
<svg version="1.1" id="Ebene_1" xmlns="http://www.w3.org/2000/svg" xmlns:xlink="http://www.w3.org/1999/xlink" x="0px" y="0px"
	 viewBox="0 0 2934 370" style="enable-background:new 0 0 2934 370;" xml:space="preserve">
<style type="text/css">
	.st0{fill:#FFFFFF;}
	.st1{fill:none;stroke:#FFFFFF;stroke-width:4;stroke-miterlimit:10;}
</style>
<g>
	<g>
		<g>
			<path class="st0" d="M1569.14,645.5c-110.2-4.2-106.8-7.6-102.6,102.6c4.2-110.2,7.6-106.8-102.6-102.6
				c110.2,4.2,106.8,7.6,102.6-102.6C1462.34,653.1,1458.94,649.7,1569.14,645.5z"/>
		</g>
		<path class="st0" d="M1519.62,677.16c-17.62,0-31.91-14.29-31.91-31.91s14.29-31.91,31.91-31.91c10.96,0,20.63,5.53,26.38,13.95
			c-6.7-13.94-20.95-23.57-37.45-23.57c-22.93,0-41.53,18.59-41.53,41.53s18.59,41.53,41.53,41.53c16.5,0,30.76-9.63,37.45-23.57
			C1540.26,671.63,1530.58,677.16,1519.62,677.16z"/>
		<path class="st0" d="M1414.38,677.16c17.62,0,31.91-14.29,31.91-31.91s-14.29-31.91-31.91-31.91c-10.96,0-20.63,5.53-26.38,13.95
			c6.7-13.94,20.95-23.57,37.45-23.57c22.93,0,41.53,18.59,41.53,41.53s-18.59,41.53-41.53,41.53c-16.5,0-30.76-9.63-37.45-23.57
			C1393.74,671.63,1403.42,677.16,1414.38,677.16z"/>
	</g>
	<g>
		<g>
			<g>
				<line class="st1" x1="1707.25" y1="645" x2="2086.75" y2="645"/>
			</g>
			<g>
				<line class="st1" x1="2429.75" y1="645" x2="2561.75" y2="645"/>
			</g>
			<line class="st1" x1="1914.75" y1="620" x2="1914.75" y2="670"/>
			<g>
				<line class="st1" x1="2368.75" y1="607.5" x2="2368.75" y2="683.5"/>
				<line class="st1" x1="2406.75" y1="645.5" x2="2330.75" y2="645.5"/>
			</g>
			<g>
				<path class="st0" d="M2175.08,646.23c-78.39-3.36-83.06-6.09-88.81-51.91c-5.75,45.82-10.42,48.55-88.81,51.91
					c78.39,3.36,83.06,6.09,88.81,51.91C2092.03,652.32,2096.69,649.59,2175.08,646.23z"/>
			</g>
			<g>
				<circle class="st0" cx="2587.75" cy="645" r="4"/>
				<circle class="st0" cx="2604.75" cy="645" r="3"/>
				<circle class="st0" cx="2619.75" cy="645" r="2"/>
			</g>
		</g>
		<g>
			<g>
				<line class="st1" x1="1226.75" y1="645" x2="847.25" y2="645"/>
			</g>
			<g>
				<line class="st1" x1="504.25" y1="645" x2="372.25" y2="645"/>
			</g>
			<line class="st1" x1="1019" y1="620" x2="1019.5" y2="670"/>
			<g>
				<line class="st1" x1="565.25" y1="607.5" x2="565.25" y2="683.5"/>
				<line class="st1" x1="527.25" y1="645.5" x2="603.25" y2="645.5"/>
			</g>
			<g>
				<path class="st0" d="M758.92,646.23c78.39-3.36,83.06-6.09,88.81-51.91c5.75,45.82,10.42,48.55,88.81,51.91
					c-78.39,3.36-83.06,6.09-88.81,51.91C841.97,652.32,837.31,649.59,758.92,646.23z"/>
			</g>
			<g>
				<circle class="st0" cx="346.25" cy="645" r="4"/>
				<circle class="st0" cx="329.25" cy="645" r="3"/>
				<circle class="st0" cx="314.25" cy="645" r="2"/>
			</g>
		</g>
	</g>
	<g>
		<g>
			<g>
				<path class="st0" d="M2249.61,647.9c12.01-20.8-9.24-20.8,2.77,0c-12.01-20.8-22.63-2.4,1.39-2.4c-24.02,0-13.39,18.4-1.39-2.4
					c-12.01,20.8,9.24,20.8-2.77,0c12.01,20.8,22.63,2.4-1.39,2.4C2272.25,645.5,2261.62,627.1,2249.61,647.9z"/>
			</g>
			<g>
				<path class="st0" d="M2205.61,647.9c12.01-20.8-9.24-20.8,2.77,0c-12.01-20.8-22.63-2.4,1.39-2.4c-24.02,0-13.39,18.4-1.39-2.4
					c-12.01,20.8,9.24,20.8-2.77,0c12.01,20.8,22.63,2.4-1.39,2.4C2228.25,645.5,2217.62,627.1,2205.61,647.9z"/>
			</g>
			<g>
				<path class="st0" d="M2293.61,647.9c12.01-20.8-9.24-20.8,2.77,0c-12.01-20.8-22.63-2.4,1.39-2.4c-24.02,0-13.39,18.4-1.39-2.4
					c-12.01,20.8,9.24,20.8-2.77,0c12.01,20.8,22.63,2.4-1.39,2.4C2316.25,645.5,2305.62,627.1,2293.61,647.9z"/>
			</g>
		</g>
		<g>
			<g>
				<path class="st0" d="M681.61,648.4c12.01-20.8-9.24-20.8,2.77,0c-12.01-20.8-22.63-2.4,1.39-2.4c-24.02,0-13.39,18.4-1.39-2.4
					c-12.01,20.8,9.24,20.8-2.77,0c12.01,20.8,22.63,2.4-1.39,2.4C704.25,646,693.62,627.6,681.61,648.4z"/>
			</g>
			<g>
				<path class="st0" d="M637.61,648.4c12.01-20.8-9.24-20.8,2.77,0c-12.01-20.8-22.63-2.4,1.39-2.4c-24.02,0-13.39,18.4-1.39-2.4
					c-12.01,20.8,9.24,20.8-2.77,0c12.01,20.8,22.63,2.4-1.39,2.4C660.25,646,649.62,627.6,637.61,648.4z"/>
			</g>
			<g>
				<path class="st0" d="M725.61,648.4c12.01-20.8-9.24-20.8,2.77,0c-12.01-20.8-22.63-2.4,1.39-2.4c-24.02,0-13.39,18.4-1.39-2.4
					c-12.01,20.8,9.24,20.8-2.77,0c12.01,20.8,22.63,2.4-1.39,2.4C748.25,646,737.62,627.6,725.61,648.4z"/>
			</g>
		</g>
	</g>
</g>
<g>
	<g>
		<g>
			<path class="st0" d="M1569.14,185c-110.2-4.2-106.8-7.6-102.6,102.6c4.2-110.2,7.6-106.8-102.6-102.6
				c110.2,4.2,106.8,7.6,102.6-102.6C1462.34,192.6,1458.94,189.2,1569.14,185z"/>
		</g>
		<path class="st0" d="M1519.62,216.66c-17.62,0-31.91-14.29-31.91-31.91s14.29-31.91,31.91-31.91c10.96,0,20.63,5.53,26.38,13.95
			c-6.7-13.94-20.95-23.57-37.45-23.57c-22.93,0-41.53,18.59-41.53,41.53s18.59,41.53,41.53,41.53c16.5,0,30.76-9.63,37.45-23.57
			C1540.26,211.13,1530.58,216.66,1519.62,216.66z"/>
		<path class="st0" d="M1414.38,216.66c17.62,0,31.91-14.29,31.91-31.91s-14.29-31.91-31.91-31.91c-10.96,0-20.63,5.53-26.38,13.95
			c6.7-13.94,20.95-23.57,37.45-23.57c22.93,0,41.53,18.59,41.53,41.53s-18.59,41.53-41.53,41.53c-16.5,0-30.76-9.63-37.45-23.57
			C1393.74,211.13,1403.42,216.66,1414.38,216.66z"/>
	</g>
	<g>
		<g>
			<g>
				<line class="st1" x1="1707.25" y1="184.5" x2="2086.75" y2="184.5"/>
			</g>
			<g>
				<line class="st1" x1="2429.75" y1="184.5" x2="2561.75" y2="184.5"/>
			</g>
			<line class="st1" x1="1914.75" y1="159.5" x2="1914.75" y2="209.5"/>
			<g>
				<line class="st1" x1="2368.75" y1="147" x2="2368.75" y2="223"/>
				<line class="st1" x1="2406.75" y1="185" x2="2330.75" y2="185"/>
			</g>
			<g>
				<path class="st0" d="M2175.08,185.73c-78.39-3.36-83.06-6.09-88.81-51.91c-5.75,45.82-10.42,48.55-88.81,51.91
					c78.39,3.36,83.06,6.09,88.81,51.91C2092.03,191.82,2096.69,189.09,2175.08,185.73z"/>
			</g>
			<g>
				<circle class="st0" cx="2587.75" cy="184.5" r="4"/>
				<circle class="st0" cx="2604.75" cy="184.5" r="3"/>
				<circle class="st0" cx="2619.75" cy="184.5" r="2"/>
			</g>
		</g>
		<g>
			<g>
				<line class="st1" x1="1226.75" y1="184.5" x2="847.25" y2="184.5"/>
			</g>
			<g>
				<line class="st1" x1="504.25" y1="184.5" x2="372.25" y2="184.5"/>
			</g>
			<line class="st1" x1="1019" y1="159.5" x2="1019.5" y2="209.5"/>
			<g>
				<line class="st1" x1="565.25" y1="147" x2="565.25" y2="223"/>
				<line class="st1" x1="527.25" y1="185" x2="603.25" y2="185"/>
			</g>
			<g>
				<path class="st0" d="M758.92,185.73c78.39-3.36,83.06-6.09,88.81-51.91c5.75,45.82,10.42,48.55,88.81,51.91
					c-78.39,3.36-83.06,6.09-88.81,51.91C841.97,191.82,837.31,189.09,758.92,185.73z"/>
			</g>
			<g>
				<circle class="st0" cx="346.25" cy="184.5" r="4"/>
				<circle class="st0" cx="329.25" cy="184.5" r="3"/>
				<circle class="st0" cx="314.25" cy="184.5" r="2"/>
			</g>
		</g>
	</g>
	<g>
		<g>
			<g>
				<path class="st0" d="M2249.61,187.4c12.01-20.8-9.24-20.8,2.77,0c-12.01-20.8-22.63-2.4,1.39-2.4c-24.02,0-13.39,18.4-1.39-2.4
					c-12.01,20.8,9.24,20.8-2.77,0c12.01,20.8,22.63,2.4-1.39,2.4C2272.25,185,2261.62,166.6,2249.61,187.4z"/>
			</g>
			<g>
				<path class="st0" d="M2205.61,187.4c12.01-20.8-9.24-20.8,2.77,0c-12.01-20.8-22.63-2.4,1.39-2.4c-24.02,0-13.39,18.4-1.39-2.4
					c-12.01,20.8,9.24,20.8-2.77,0c12.01,20.8,22.63,2.4-1.39,2.4C2228.25,185,2217.62,166.6,2205.61,187.4z"/>
			</g>
			<g>
				<path class="st0" d="M2293.61,187.4c12.01-20.8-9.24-20.8,2.77,0c-12.01-20.8-22.63-2.4,1.39-2.4c-24.02,0-13.39,18.4-1.39-2.4
					c-12.01,20.8,9.24,20.8-2.77,0c12.01,20.8,22.63,2.4-1.39,2.4C2316.25,185,2305.62,166.6,2293.61,187.4z"/>
			</g>
		</g>
		<g>
			<g>
				<path class="st0" d="M681.61,187.9c12.01-20.8-9.24-20.8,2.77,0c-12.01-20.8-22.63-2.4,1.39-2.4c-24.02,0-13.39,18.4-1.39-2.4
					c-12.01,20.8,9.24,20.8-2.77,0c12.01,20.8,22.63,2.4-1.39,2.4C704.25,185.5,693.62,167.1,681.61,187.9z"/>
			</g>
			<g>
				<path class="st0" d="M637.61,187.9c12.01-20.8-9.24-20.8,2.77,0c-12.01-20.8-22.63-2.4,1.39-2.4c-24.02,0-13.39,18.4-1.39-2.4
					c-12.01,20.8,9.24,20.8-2.77,0c12.01,20.8,22.63,2.4-1.39,2.4C660.25,185.5,649.62,167.1,637.61,187.9z"/>
			</g>
			<g>
				<path class="st0" d="M725.61,187.9c12.01-20.8-9.24-20.8,2.77,0c-12.01-20.8-22.63-2.4,1.39-2.4c-24.02,0-13.39,18.4-1.39-2.4
					c-12.01,20.8,9.24,20.8-2.77,0c12.01,20.8,22.63,2.4-1.39,2.4C748.25,185.5,737.62,167.1,725.61,187.9z"/>
			</g>
		</g>
	</g>
</g>
</svg>
