<?xml version="1.0" encoding="utf-8"?>
<!-- Generator: Adobe Illustrator 27.8.0, SVG Export Plug-In . SVG Version: 6.00 Build 0)  -->
<svg version="1.1" xmlns="http://www.w3.org/2000/svg" xmlns:xlink="http://www.w3.org/1999/xlink" x="0px" y="0px"
	 viewBox="0 0 2934 388" style="enable-background:new 0 0 2934 388;" xml:space="preserve">
<style type="text/css">
	.st0{fill:#FFFFFF;}
	.st1{fill:#121212;}
	.st2{fill:none;stroke:#FFFFFF;stroke-width:4;stroke-miterlimit:10;}
</style>
<g id="Ebene_2">
</g>
<g id="Ebene_1">
	<g>
		<g>
			<g>
				<path class="st0" d="M1464.02,90.09c-4.13,96.26-7.48,101.98-63.74,109.05c56.26,7.07,59.61,12.79,63.74,109.05
					c4.13-96.26,7.48-101.98,63.74-109.05C1471.5,192.08,1468.15,186.35,1464.02,90.09z"/>
			</g>
			<polygon class="st0" points="1506.31,156.85 1471.22,199.14 1506.31,241.43 1464.02,206.34 1421.73,241.43 1456.82,199.14 
				1421.73,156.85 1464.02,191.94 			"/>
			<g>
				<path class="st1" d="M1464.02,142.67c-2.14,49.85-3.87,52.81-33.01,56.47c29.14,3.66,30.87,6.63,33.01,56.47
					c2.14-49.85,3.87-52.81,33.01-56.47C1467.89,195.48,1466.16,192.52,1464.02,142.67z"/>
			</g>
		</g>
		<ellipse class="st2" cx="1463.5" cy="196.75" rx="270" ry="47.5"/>
		<g>
			<g>
				<line class="st2" x1="1528.24" y1="134.92" x2="1513.13" y2="150.03"/>
				<line class="st2" x1="1414.91" y1="248.25" x2="1399.8" y2="263.36"/>
			</g>
			<g>
				<line class="st2" x1="1528.24" y1="263.36" x2="1513.13" y2="248.25"/>
				<line class="st2" x1="1414.91" y1="150.03" x2="1399.8" y2="134.92"/>
			</g>
		</g>
		<g>
			<g>
				<polyline class="st2" points="1608,199.78 1830.84,199.78 1897.32,154.25 1964.22,199.78 2031.66,154.25 2101.05,199.78 
					2165.82,154.25 2233.03,199.78 2309.98,154.25 2383.51,199.78 2538,199.78 				"/>
				<g>
					<circle class="st0" cx="2553" cy="200.25" r="4"/>
					<circle class="st0" cx="2570" cy="200.25" r="3"/>
					<circle class="st0" cx="2585" cy="200.25" r="2"/>
				</g>
				<g>
					<g>
						<path class="st0" d="M1799.25,199.5c49.5,26.1,28.35,47.25,2.25-2.25c-26.1,49.5-47.25,28.35,2.25,2.25
							c-49.5-26.1-28.35-47.25-2.25,2.25C1827.6,152.25,1848.75,173.4,1799.25,199.5z"/>
					</g>
				</g>
				<g>
					<g>
						<path class="st0" d="M1896.45,258.75c23.1,12.18,13.23,22.05,1.05-1.05c-12.18,23.1-22.05,13.23,1.05,1.05
							c-23.1-12.18-13.23-22.05-1.05,1.05C1909.68,236.7,1919.55,246.58,1896.45,258.75z"/>
					</g>
				</g>
				<g>
					<line class="st2" x1="2347" y1="177.45" x2="1862.9" y2="177.45"/>
				</g>
				<g>
					<path class="st0" d="M2497,233.25c-44-44-22-44-66,0c44-44,44-22,0-66c44,44,22,44,66,0C2453,211.25,2453,189.25,2497,233.25z"
						/>
				</g>
				<g>
					<path class="st0" d="M1776,199.9c0,0-52.03-34.33-86.36,0C1723.97,234.23,1776,199.9,1776,199.9z"/>
					<path class="st0" d="M1750.71,261.71c0,0-12.51-61.07-61.07-61.07C1689.64,249.19,1750.71,261.71,1750.71,261.71z"/>
					<path class="st0" d="M1750.71,138.09c0,0-12.51,61.07-61.07,61.07C1689.64,150.61,1750.71,138.09,1750.71,138.09z"/>
				</g>
			</g>
			<g>
				<polyline class="st2" points="1319,199.78 1096.16,199.78 1029.68,154.25 962.78,199.78 895.34,154.25 825.95,199.78 
					761.18,154.25 693.97,199.78 617.02,154.25 543.49,199.78 389,199.78 				"/>
				<g>
					<circle class="st0" cx="374" cy="200.25" r="4"/>
					<circle class="st0" cx="357" cy="200.25" r="3"/>
					<circle class="st0" cx="342" cy="200.25" r="2"/>
				</g>
				<g>
					<g>
						<path class="st0" d="M1127.75,199.5c-49.5,26.1-28.35,47.25-2.25-2.25c26.1,49.5,47.25,28.35-2.25,2.25
							c49.5-26.1,28.35-47.25,2.25,2.25C1099.4,152.25,1078.25,173.4,1127.75,199.5z"/>
					</g>
				</g>
				<g>
					<g>
						<path class="st0" d="M1030.55,258.75c-23.1,12.18-13.23,22.05-1.05-1.05c12.18,23.1,22.05,13.23-1.05,1.05
							c23.1-12.18,13.23-22.05,1.05,1.05C1017.32,236.7,1007.45,246.58,1030.55,258.75z"/>
					</g>
				</g>
				<g>
					<line class="st2" x1="580" y1="177.45" x2="1064.1" y2="177.45"/>
				</g>
				<g>
					<path class="st0" d="M430,233.25c44-44,22-44,66,0c-44-44-44-22,0-66c-44,44-22,44-66,0C474,211.25,474,189.25,430,233.25z"/>
				</g>
				<g>
					<path class="st0" d="M1151,199.9c0,0,52.03-34.33,86.36,0C1203.03,234.23,1151,199.9,1151,199.9z"/>
					<path class="st0" d="M1176.29,261.71c0,0,12.51-61.07,61.07-61.07C1237.36,249.19,1176.29,261.71,1176.29,261.71z"/>
					<path class="st0" d="M1176.29,138.09c0,0,12.51,61.07,61.07,61.07C1237.36,150.61,1176.29,138.09,1176.29,138.09z"/>
				</g>
			</g>
		</g>
		<g>
			<g>
				<g>
					<g>
						<path class="st0" d="M1565.52,169.39c0,0-21.4,4.39-21.4,21.4C1561.14,190.8,1565.52,169.39,1565.52,169.39z"/>
						<path class="st0" d="M1565.52,232.76c0,0-21.4-4.39-21.4-21.4C1561.14,211.36,1565.52,232.76,1565.52,232.76z"/>
					</g>
					<path class="st0" d="M1574.41,201.08c0,0-18.23-12.03-30.27,0C1556.17,213.11,1574.41,201.08,1574.41,201.08z"/>
				</g>
				<circle class="st0" cx="1580.63" cy="201.14" r="2.54"/>
			</g>
			<g>
				<g>
					<g>
						<path class="st0" d="M1362,169.39c0,0,21.4,4.39,21.4,21.4C1366.38,190.8,1362,169.39,1362,169.39z"/>
						<path class="st0" d="M1362,232.76c0,0,21.4-4.39,21.4-21.4C1366.38,211.36,1362,232.76,1362,232.76z"/>
					</g>
					<path class="st0" d="M1353.11,201.08c0,0,18.23-12.03,30.27,0C1371.35,213.11,1353.11,201.08,1353.11,201.08z"/>
				</g>
				<circle class="st0" cx="1347.41" cy="200.63" r="2.54"/>
			</g>
		</g>
		<circle class="st0" cx="1538.42" cy="273.46" r="2.54"/>
		<circle class="st0" cx="1389.62" cy="273.46" r="2.54"/>
	</g>
</g>
</svg>
