<?xml version="1.0" encoding="utf-8"?>
<!-- Generator: Adobe Illustrator 27.1.1, SVG Export Plug-In . SVG Version: 6.00 Build 0)  -->
<svg version="1.1" xmlns="http://www.w3.org/2000/svg" xmlns:xlink="http://www.w3.org/1999/xlink" x="0px" y="0px"
	 viewBox="0 0 926.8 1316.6" style="enable-background:new 0 0 926.8 1316.6;" xml:space="preserve">
<style type="text/css">
	.st0{display:none;}
	.st1{fill:none;stroke:#FFFFFF;stroke-width:1.5;stroke-miterlimit:10;}
	.st2{fill:none;stroke:#FFFFFF;stroke-width:3;stroke-miterlimit:10;}
</style>
<g id="Ebene_1" class="st0">
	
		<image style="display:inline;overflow:visible;opacity:0.4392;" width="700" height="893" xlink:href="CCA3BFFE095B1278.png"  transform="matrix(0 -1.3438 1.3438 0 6.8627 1098.4365)">
	</image>
</g>
<g id="Ebene_2">
	<path class="st1" d="M611.6,548.4c13.3-5.4,24.4-16,30.3-29.1"/>
	<path class="st2" d="M503.8,249c3.7,2.7,10.2,8.7,11.4,8.7"/>
	<path class="st2" d="M484.4,262.3c1.5,0,7.9-9.4,12.2-12.1c0.7-0.4,2.2-0.8,3-0.9"/>
	<path class="st2" d="M639.9,434.8c6.8-7.8,12.6-16.6,17-26c0.2-0.5,0.5-1,1-1.3c0.6-0.4,1.4-0.2,2.2,0c5.2,1.4,10.5,3.5,14,7.5
		c4.3,5.1,5,12.4,4.5,19c-0.3,4.4-0.9,8.8-1.5,13.2c-0.6,4.2-1.2,8.4-2.9,12.2c-2.2,4.9-5.9,8.9-9.6,12.8
		c-9.6,10-23.3,23.6-32.9,33.6"/>
	<path class="st2" d="M516.3,591.5c-3.8-2.3-13.5-7.2-18.5-13c-5-5.9-9.4-12.4-15.6-16.9c-5-3.7-11-5.9-15.6-10.1
		c-4.5-4.2-7.6-10.4-13.4-12.6c-1.7-0.7-3.6-0.9-5.3-1.8c-1.2-0.6-2.2-1.5-3.3-2.3c-3.3-2.4-7.2-3.6-11.1-4.8
		c-2.8-0.9-5.7-1.7-8.5-2.6c-5.1-1.6-10.2-3.1-15.4-4.1c-9.9-1.8-23.1-5.2-29.8,1.2c8.3,3.9,9.6,6.3,12.6,10
		c3.7,4.6,4.5,8.7,7.4,13.8c2.2,4,5,7.6,7.8,11.2c5.7,7.5,11.5,15,18.3,21.5c9.6,9.1,21.2,16,33.8,20.1c4.3,1.4,8.7,2.5,13.3,2.7
		C488.8,604.6,503.2,595.3,516.3,591.5z"/>
	<path class="st2" d="M382.2,522.7c-2.5,1.3-4.9,3.3-6.5,4.7c-1.4,1.3-1.1,0.7-4.3,3.6c5.1,1.5,9.8,4.2,13.8,7.8
		c2.1,1.9,3.9,4,6,5.8c3.3,2.9,7,5.3,11,7.1"/>
	<path class="st2" d="M428,583c-11.2,2.5-21.5,8.8-28.4,17.9s-10.4,20.9-8.9,32.2c0.3,2.1,0.7,4.1,0.4,6.2c-0.4,2.9-2.2,5.4-3.1,8.2
		c-0.4,1.1-0.6,2.3-0.3,3.4c0.3,0.8,0.8,1.5,1.4,2.2c2.1,2.3,4.3,4.5,6.8,6.5c0.8,0.6,1.6,1.3,2.6,1.4c1,0.2,1.9-0.1,2.9-0.3
		c8.2-1.8,16.8,1.9,25.1,0.3c7.7-1.5,13.9-7.5,21.5-9.4c1.8-0.4,3.6-0.6,5.3-1.5c1.4-0.7,2.5-1.8,3.6-2.9c6.2-6,12.8-11.6,19.8-16.6
		c8.9-6.4,18.5-11.9,26.2-19.6c5.9-5.9,10.8-12.9,15.7-19.7"/>
	<path class="st2" d="M389.9,628.2c-4.2-5.3-8.9-10.3-13.8-15c-2.3-2.2-4.7-4.3-7.7-5.5c-2.2-0.9-4.6-1.3-6.7-2.2
		c-2.2-0.9-4.3-2.5-4.9-4.8c-0.4-1.8,0.1-3.6,0.4-5.4c0.7-4.1,0-8.4,0-12.6c0.2-9.7,4.5-19.1,3.2-28.7c-0.3-2.2-0.9-4.6,0.4-6.5
		c1-1.5,2.8-2.1,4.5-2.7c3-1,6.2-1.9,9.3-1.4c1.5,0.2,3,0.8,4.4,1.2c3.5,0.9,7.4,0.4,10.6-1.2"/>
	<path class="st2" d="M393.7,520.8c-3.8-3.6-5.3-8.9-5.6-14.1c-0.2-5.2,0.2-11.5,0.7-16.6c1.1-10.6,0.2-21.3-2.4-31.6
		c-0.5-2-1.1-4.1-0.9-6.1c0.3-3.6,2.9-6.6,5.3-9.3c0.6,3.8,2.5,7.3,5.1,10c2.6,2.6,6,4.5,8.5,7.2c4.8,5.1,5.9,12.7,10,18.4
		c2.5,3.5,5.9,6.2,8.4,9.7c2.7,3.6,4.2,7.9,6.2,11.9c2.2,4.4,4.8,8.6,8,12.4c3.3,4,7,7.6,10,11.7c3.2,4.5,5.6,9.6,6.9,15"/>
	<path class="st2" d="M454.4,539c6.7,1.7,14,0.4,20.6,2.6c2.8,0.9,5.3,2.4,8.1,3.3c3.2,1,6.6,1.2,9.9,1.9s6.6,2,8.7,4.6
		c0.9,1.2,1.5,2.6,2.5,3.8c2.1,2.7,5.5,4,8.8,4.7c3.3,0.7,6.8,0.8,10.1,1.6c7.3,1.9,13.3,7.2,18.1,13.1c2,2.4,4,5,7.4,6.3
		c-3.2-3.3-3.2-8.8-6.2-12.4c-0.9-1.1-2-1.9-3-2.8c-8.8-7-17.8-14-27.8-19.1c-10.2-5.2-21.5-8.3-32.9-9.2c-3.5-0.3-7.1-0.3-10.6-0.4
		C463.1,537,458.2,536.9,454.4,539z"/>
	<path class="st2" d="M516,591.7c2.1,2.4,5.9,2,9,1.3c4.5-1,9.1-2.2,12.6-5.1c1.9-1.6,3.3-3.6,5.4-4.9c1.8-1.1,4-1.5,6.2-1.9"/>
	<path class="st2" d="M388.5,491.5c-3.7-3.7-7.7-7.4-12.7-8.6c-2.7-0.6-5.5-0.5-8.3-0.4c-10.9,0.6-22,1.2-32.6,3.8
		c-4.8,1.2-10,3.3-12,7.8c-1.3,2.9-1,6.3-0.4,9.4c2.3,12.3,8.2,23.5,14,34.6c0.7,1.4,1.6,2.9,3.1,3.5c1.9,0.7,3.9-0.3,5.9-0.6
		c3.2-0.6,6.6,0.7,8.6,3.1c1.9-1.7,4.3-2.5,6.7-3.5c2.3-1,4.7-2.4,5.6-4.8c0.4-0.9,0.5-1.9,0.9-2.8c0.7-1.3,2.1-2.3,3.5-2.4"/>
	<path class="st2" d="M328.6,489.3c-4.7-2.4-8.1-7.3-8.5-12.5c-0.2-2.5,0.2-5-0.1-7.5c-0.3-2.8-1.4-5.5-2.2-8.2
		c-0.1-0.4-0.2-0.7-0.1-1.1c0.1-0.3,0.4-0.6,0.7-0.8c3.9-3.1,7.9-6.2,12.5-8c4.7-1.9,9.9-2.3,14.4-4.4c2.9-1.3,5.4-3.3,8.3-4.6
		c2.9-1.3,6.3-2,9.1-0.8c3.2,1.4,4.9,4.8,5.7,8.2s0.7,6.9,1.4,10.3c1.1,4.8,3.7,9.1,6.3,13.2c1.7,2.7,3.4,5.4,5.1,8.1
		c1.9,3,3.8,6.1,6.4,8.6"/>
	<path class="st2" d="M397.2,431.3c-1.9-10.6-11.2-19.4-21.8-20.7c-0.7-0.1-1.4-0.1-1.9,0.3c-0.4,0.3-0.6,0.9-0.8,1.4
		c-3.5,12.5-4,26.4-4,39.4"/>
	<path class="st2" d="M397.8,453.9c1.4-7,0.9-14.4-1.4-21.1c-0.2-0.5,0.2-1,0.7-1c5.4-0.5,10.9-0.9,16.4-0.3
		c6.5,0.7,12.7,2.8,18.8,5.2c6.3,2.4,12.4,5.2,18.4,8.3c2.4,1.2,4.7,2.6,6.7,4.4c2.2,2,4,4.7,4.4,7.7"/>
	<path class="st2" d="M382.7,412.8c-1.5-1-2.6-3.2-3.7-4.6s-1.8-3.3-1.4-5.1c0.6-2.7,3.3-4.3,5.8-5.5c8.4-4,17.5-7.9,23-15.5"/>
	<path class="st2" d="M378.2,403.1c-4-1.2-5.8-5.9-6.1-10c-0.3-4.2,0.3-8.6-1.4-12.4c2.2-1.9,5.5-2.3,8.1-1.1
		c1.6,0.7,3.1,2.1,4.8,2.3c2.3,0.2,4.3-1.4,6.5-2.1c1.8-0.6,3.7-0.5,5.6-0.4c3.6,0.2,7.8,0.8,9.4,4.1"/>
	<path class="st2" d="M372.1,393.1c-3.4-2.6-7.2-4.7-11.1-6.4c2.1-2.5,4.8-4.4,7.8-5.7c0.8-0.3,1.7-0.6,2.4-0.2"/>
	<path class="st2" d="M428.1,434.9c-8.9-7.8-13.9-19-17.6-30.2c-1.8-5.5-3.4-11.1-3.8-16.9c-0.4-5.8,0.5-11.7,3.3-16.8
		c1.4-2.5,3.3-4.8,5.2-7c4.6-5.4,9.3-10.9,15.3-14.6s13.7-5.5,20.3-2.8c1.5,0.6,3,1.5,4.2,2.7c2.3,2.4,3.2,5.9,3.5,9.3
		c1.2,11.5-2.3,23-2.4,34.6c-0.1,8.3,1.7,16.6,5,24.2c1,2.2,2.1,4.3,2.6,6.7c0.5,2.2,0.4,4.4,0.3,6.7c-0.4,8.8-0.8,17.6-1.2,26.3"/>
	<path class="st2" d="M436.4,511.6c-1.1-7-0.1-14.3,2.8-20.8c1.3-2.9,2.9-5.7,3.9-8.7c1-3.2,1.3-6.6,2.8-9.6
		c1.6-3.1,4.5-5.4,7.3-7.6c2.6-2,5.2-4.1,7.8-6.1c2.5-1.9,5-3.9,7.9-4.8c3-0.9,6.5-0.6,8.7,1.6c2.5,2.5,2.6,6.4,2.5,9.8
		c-0.3,13.7-0.6,27.6-5,40.6c-1.4,4.1-3.2,8-4.9,12c-2.9,6.6-5.9,13.1-8.8,19.7"/>
	<path class="st2" d="M480,460.8c5.7,2,8.9,8.2,10.1,14.1s1.2,12.1,3.1,17.8c1.4,4.2,4,8.4,3,12.7c1.4-0.5,3-0.7,4.5-0.4
		c1.5,0.3,2.9,1.1,4.3,1.6c6,2.2,13.3,0.9,18.4,4.7"/>
	<path class="st2" d="M477.8,455.8c7.2,1,13.1,6.3,17.4,12.2c4.3,5.9,7.5,12.5,12.2,18.1c3.2,3.9,7.2,7.2,10.2,11.2
		c3,4,5.2,8.8,9,11.9"/>
	<path class="st2" d="M539.1,565.3c6.3-5.7,14.2-9.7,19.2-16.4c5.6-7.5,6.9-18.1,3.2-26.7c-0.9-2.2-2.2-4.2-2.9-6.5
		c-0.6-1.8-0.8-3.7-1.8-5.3c-0.8-1.2-2-2.1-2.8-3.3c-1.2-1.7-1.8-3.9-3.2-5.4c-1.4-1.5-3.6-2.1-5.7-2.1c-5.6,0-10.5,3.6-14.8,7.1
		c-5.5,4.3-10.9,8.7-16.4,13c-2,1.6-4,3.2-5.9,5c-4.6,4.6-7.6,10.5-10.5,16.3"/>
	<path class="st2" d="M556.6,510.1c5.4-1.1,10.9-0.6,16.3,0c7.6,0.7,15.5,1.6,22.1,5.4c3.5,2,6.4,4.7,9.4,7.4
		c5.2,4.7,10.4,9.5,15.7,14.2c-5.2,8.8-12,16.6-19.9,23.1c-2.4,2-5,3.8-7.7,5.3c-14.1,7.8-31.8,5.3-46.7,11.5"/>
	<path class="st2" d="M520.2,500.7c1.4-3,3.1-5.8,5.1-8.5c0.5-0.7,1.1-1.4,1.8-1.9c1.5-1,3.5-0.6,5.3-0.3c5.5,0.9,11.2,1.1,16.8,0.4
		c1.3-0.1,2.6-0.3,3.9,0s2.5,1.3,2.6,2.6c0.1,0.9-0.3,1.8-0.7,2.7c-1.1,2.2-2.2,4.3-3.2,6.5"/>
	<path class="st2" d="M496.5,469.5c6.6-6.9,13.6-13.4,20.9-19.6c0.6-0.5,1.3-1.1,2.2-1.2c0.9-0.1,1.8,0.4,2.6,0.8
		c3.9,1.9,8.4,2.4,12.4,3.9c4.1,1.5,8.1,4.5,8.9,8.8c0.2,1.1,0.2,2.2,0.1,3.2c-0.1,5.7-0.3,11.5-0.4,17.2c-0.1,2.8-0.1,5.6-0.4,8.4"
		/>
	<path class="st2" d="M556.2,492.3c13.3-9.8,31.5-12.8,47.2-7.7c3.9,1.2,7.6,2.9,11.6,3.4c0.7,0.1,1.4,0.2,1.9,0.6
		c0.5,0.4,0.7,1,0.9,1.7c4,13.4,2.1,28.3-5,40.3"/>
	<path class="st2" d="M502.8,463.1c-0.3-7.1,0.3-14.2,1.9-21.2c1-4.5,2.5-9,5.5-12.4c2.5-2.9,5.8-4.9,9-6.8c1.6-1,3.7-1.9,5.3-0.9
		c0.4,0.3,0.8,0.7,1.2,0.7c0.5,0.1,1-0.3,1.5-0.5c3-1.9,6.8-2.3,10.1-1c3.3,1.2,5.9,4.1,6.9,7.4c1,3.3,0.4,6.9-0.4,10.3
		c-1.4,5.8-3.5,11.4-6.3,16.6"/>
	<path class="st2" d="M587.3,463.9c-0.7-3.9-2-7.8-3.7-11.4c-0.7-1.4-1.5-2.8-1.8-4.4c-0.3-1.5-0.2-3.1-0.5-4.6
		c-0.7-3.4-3.9-6.1-7.4-6.2c-1.5-0.1-3,0.3-4.5,0c-2.9-0.5-4.8-3.3-6.7-5.5s-5-4.4-7.6-3.1c-0.9,0.4-1.8,1.1-2.6,0.6
		c-0.6-0.4-0.6-1.3-1.1-1.8c-0.8-0.9-2.3-0.4-3.2,0.3c-0.9,0.7-1.8,1.7-3,1.8"/>
	<path class="st2" d="M571,484.8c2.5-4.4,4.6-7.4,7.8-11.3c3.7-4.5,7.9-8.6,10.9-13.7c2.7-4.5,4.2-9.6,5.5-14.7
		c1.1-4.1,2-8.3,1.8-12.5c-0.6-11.7-10.2-21.6-10.4-33.2c6.8,5.9,14,12.4,16.2,21.1c2.2,8.5-0.8,17.5-0.3,26.2
		c0.2,3,0.7,5.9,0.7,8.9c0.1,9.8-5.7,18.6-11.3,26.7"/>
	<path class="st2" d="M586.9,403.7c-0.9,2.7-4.2,3.4-7,3.9c-4.3,0.7-8.6,1.8-12.5,3.8c-6.9,3.6-12,9.9-16.9,16"/>
	<path class="st2" d="M466.7,454.8c0.7-4.6,1.4-9.2,2.2-13.8c0.7-4.2,1.3-8.4,1.2-12.6c-0.2-6.1-2.2-12.3-0.8-18.3
		c0.7-3.2,2.4-6.1,2.7-9.4c0.3-2.9-0.4-5.7-1.2-8.5c-2.2-8.5-4.5-17-6.7-25.5c-0.1-0.3-0.2-0.7,0-1c0.3-0.6,1.2-0.3,1.8,0
		c4.9,2.5,9.9,5,14.8,7.6c1.4,0.7,2.8,1.5,3.8,2.7c1,1.2,1.3,2.8,1.6,4.3c1,4.5,2.3,9.9,3,14.5c2.5,15.1,5.3,32.9-4.7,61.9"/>
	<path class="st2" d="M504.3,440.7c2-8,3.2-16.2,3.6-24.5c0.2-4.9,0.1-10.1-2.7-14.1c-1.5-2.1-3.5-3.7-5.4-5.5
		c-5.5-5.1-10.5-12.9-14.6-19.2"/>
	<path class="st2" d="M485.1,458.6c2.6-4,5.3-8.1,8.5-11.6s7.1-6.7,11.6-8.4"/>
	<path class="st2" d="M561.3,414.4c-1.4-6-6.3-10.7-11.7-13.7c-3.8-2.1-8-3.6-11.1-6.7c-0.3-0.3-0.7-0.6-1.1-0.5
		c-0.2,0-0.3,0.2-0.5,0.3c-2,1.6-4,3.3-6,4.9c-2.1,1.7-4.2,3.4-5.4,5.8c-1.3,2.6-1.3,5.7-0.9,8.7c0.5,2.9,1.4,5.7,1.9,8.6"/>
	<path class="st2" d="M538.1,394c1-2.1,1-4.6,0.1-6.7s-3-3.7-5.2-4.1c-2.3-0.4-4.5,0.5-6.5,1.6c-4.3,2.5-7.6,6.4-10.4,10.4
		c-2.8,4.1-5.3,8.4-8.6,12.1"/>
	<path class="st2" d="M588.5,401c-7.4-8.2-15.8-15.4-25.1-21.3c-5.5-3.6-12.1-6.8-18.4-5c-4.6,1.3-7.9,5.1-11.1,8.6"/>
	<path class="st2" d="M616,488.1c14.1-11.8,22.9-27.5,25.3-45.7c2.9,2.6,5.3,6,6.8,9.2c1.2,2.7,2,5.5,2.2,8.4
		c0.4,4.7-0.6,10.8-1.4,14.6c-3.8,19-16.7,31.6-31.2,44.4"/>
	<path class="st2" d="M603.2,435c5.1-5.9,10.4-12.6,14.3-19.4c0.2-0.4,0.5-0.8,0.9-1.1c0.6-0.3,1.2-0.2,1.9,0c3,0.9,5.4,3.3,7.6,5.5
		c3.8,3.9,7.7,7.8,10.4,12.6c2.7,4.7,3.4,11.1,1.9,16.3"/>
	<path class="st2" d="M597.6,410.2c1.2-1.8,2.4-3.6,4.1-4.8s4.1-1.8,6-0.8c1.1,0.6,1.9,1.5,2.6,2.5c2.4,3,4.8,6,7.2,9"/>
	<path class="st2" d="M615.4,412.3c6.2-4.5,10.5-11.3,13.4-18.4c0.5-1.1,0.9-2.3,1.8-3.1c0.7-0.6,1.5-0.9,2.3-1.1
		c3.1-0.8,6.6-0.3,9.4,1.3c6.9,4.1,8.4,13.6,14.1,19.1"/>
	<path class="st2" d="M545,374.7c8.2-3.2,17.1-6.3,25.3-3.1c3.9,1.6,7.3,4.3,10.5,7c3.3,2.8,6.6,5.6,9.9,8.5
		c2.6,2.3,5.4,4.8,6.3,8.1c1.3,4.4-0.7,9.3,0.7,13.7"/>
	<path class="st2" d="M573.6,372.8c3.5-2.7,5-7.7,8.9-9.9c2.7-1.5,6-1.4,9-1.2c8.2,0.5,16.4,1.2,24.5,2c1.7,0.2,3.5,0.4,5,1.4
		c1,0.7,1.7,1.8,2.4,2.9c1.8,2.7,3.6,5.4,5.4,8.2c2.7,4.1,5.5,8.5,5.2,13.4"/>
	<path class="st2" d="M448,345.8c1.3-3.1,3.6-6.3,6.9-6.4c2.7-0.1,5.5,1.9,7.9,0.8c0.7-0.3,1.3-0.9,1.9-1.4c1.3-0.9,2.8-1.5,4.3-1.7
		c0.9-0.1,1.9-0.1,2.6,0.5c0.7,0.5,1,1.4,1.3,2.2c0.9,2.7,6.1,5.2,6.2,14.6"/>
	<path class="st2" d="M473.8,340.5c1.2-4.7,6.1-7.7,10.9-8.1c4.8-0.4,9.6,1.4,14,3.4c1.9,0.9,3.8,1.8,5.4,3.1c1.7,1.4,3.1,3.2,4.3,5
		c2.1,3,3.9,6.2,4.7,9.7c1.5,6.4-0.7,13-1.9,19.4c-1.1,5.8-1.4,11.7-1.7,17.6c-0.2,4.7-0.5,9.5-0.7,14.2"/>
	<path class="st2" d="M512.9,351c1.7-2.5,3.5-5,5.8-7c2.3-2,5.2-3.4,8.3-3.3c4.9,0.1,9,4,13.8,4.7c2.5,0.4,5.4,0.1,7,2.1
		c1.6,2,0.6,5-0.4,7.5c-2.7,6.7-4.3,13.8-4.8,21"/>
	<path class="st2" d="M649.4,488.1c-1.1,4.1-2.9,9.8-4.4,13.9c-1,2.9-2.1,5.8-3.7,8.4c-2.5,4.2-6.1,7.7-9.7,11
		c-4.5,4.2-9.1,8.3-13.8,12.4"/>
	<path class="st2" d="M666.9,470.3c1.3,4.8-0.1,10-0.2,15c0,4.7,1.2,9.4,2.2,14c1.5,6.6,2.5,13.5,2.1,20.3s-2.4,13.6-6.5,19
		c-2.9,3.8-6.8,6.7-10.6,9.6c-3.9,2.9-7.8,5.7-11.7,8.5c-2.1,1.5-4.1,3-6.5,4c-6,2.6-10.3,2.8-16.8,3.1c-4.4,0.2-8.8,1.2-12.9,2.8
		c-3.7,1.4-10.7,4.3-14.5,5.5c-6.9,2.2-36.7,7.3-43.9,6.8"/>
	<path class="st2" d="M656.6,546.1c-15.9,13.3-32.7,28.5-52.2,35.1c-15.7,5.4-32.8,3.8-49.3,2.2c-3.7-0.4-7.4-0.7-11.1-1.1"/>
	<path class="st2" d="M667.7,533.2c4.2-3,9.7-6.1,14.2-3.6c1.7,1,3.9,2.2,4.8,4c3.1,6.9,0.4,14.8-2.4,21.8
		c-4.4,10.8-9.8,22.4-20.2,27.6c-8.7,4.3-18.9,3.3-28.6,3.8c-10.6,0.6-21,3.1-31.5,5.3c-10.4,2.2-21,4.1-31.7,3.3
		c-10.6-0.8-21.4-4.6-28.7-12.2"/>
	<path class="st2" d="M669.8,526.1c5.1-2.9,10.7-4.9,16.4-5.9c3.1-0.5,7.8-1.4,10.6,0c5,2.5,6.3,9,6.5,14.6
		c0.3,10.9-1.5,21.9-5.4,32.1c-1.3,3.5-3.2,7.2-6.7,8.4c1.5,4.7,0.1,9.8-1.5,14.4c-1.9,5.5-4.4,11.3-9.5,14
		c-7.2,3.9-15.9,0-23.8-1.9c-6.8-1.7-13.9-1.9-20.8-0.6c-10.1,1.8-19.3,6.7-29.2,9.2c-24.1,6-51.4-3.9-66-24.2"/>
	<path class="st2" d="M669.6,605.5c0.8,5.3-0.2,10.7-1.4,16c-2.5,11.3-5.6,22.8-4.3,34.2c0.2,1.8,0.5,3.7,0.1,5.5
		c-0.9,3.3-4.2,5.3-7.3,6.9c-1.8,0.9-3.6,1.9-5.4,2.8c-3.5,1.8-7.3,3.7-11.2,3.3c-5.9-0.7-9.9-6.2-13.9-10.6
		c-2.1-2.3-4.5-4.4-7.3-5.6c-8.6-3.6-19.3,1.6-27.4-2.9c-6.4-3.6-8.3-11.8-12.4-18c-4.9-7.5-13.1-12.1-20-17.7
		c-9.9-8-17.6-18.4-25.2-28.6"/>
	<path class="st2" d="M653.7,669.6c3.2-4.3,4.1-10.2,2.1-15.2c-2-5.1-6.8-9.3-10.4-13.4c-3.7-4.2-6.6-9.1-11.1-12.4
		c-3.3-2.4-7.3-3.8-11.3-4.8c-10.9-2.8-22.2-3.1-33.4-4.7c-11.1-1.6-22.5-4.6-31.1-11.9c-4.3-3.7-7.6-8.8-12.1-14.3"/>
	<path class="st2" d="M667.2,488.5c5-6.2,11-11.8,17.6-16.4c3,6.6,6.6,13,10.8,18.9c1.8,2.6,3.7,5.1,5,8s2.1,6.1,1.3,9.2
		c-1.2,5-5.7,8.3-10,11"/>
	<path class="st2" d="M690.3,483.5c6.4-1.6,12.8-3.2,19.2-4.8c0.3-0.1,0.6-0.1,0.9-0.1c0.5,0.1,0.8,0.6,1.1,1.1
		c1.1,2.2,1.2,4.9,0.7,7.3c-0.5,2.5-1.6,4.7-2.8,6.9c-2,3.6-4.2,6.9-7,9.9"/>
	<path class="st2" d="M692.1,575.6c3.9-2.9,8-5.6,12.2-8c4.7-2.6,9.3-6.6,14.3-4.3c-1.3,2.7-1.1,6-1.9,9
		c-1.7,6.3-8.2,10.4-14.6,11.5C698.5,584.5,695.4,583.8,692.1,575.6z"/>
	<path class="st2" d="M702.5,552.8c5.7,0.9,10.1,4.8,15,7.8c2,1.2,1.6,1.7,1.6,2.1"/>
	<path class="st2" d="M571.8,628.9c7,14.1,9.9,27.5,6.7,42.3c-3.1,14.3-2.4,29.7-9.9,42.3c-1.1,1.8-2.4,3.6-4.4,4.2
		c-2.9,0.8-5.9-1.5-7-4.3c-1.2-2.8-1.1-5.9-1.4-8.9c-1-9.4-6.2-17.8-10.2-26.3c-12.6-26.7-14.3-57-21.9-85.5"/>
	<path class="st2" d="M558.6,715.8c-8.9,2.1-18.6,2-26.5-2.6c-3.8-2.2-6.8-4.7-10.8-6.5c-5.4-2.4-11.8-4.5-17.7-3.6
		s-12.8,5.2-17,4.9c1.5-5.9,3.4-11.8,5.6-17.5c2.2-5.7,4.7-11.3,5.6-17.3c1-6.6,0-13.2-0.8-19.8c-0.4-3.7-0.8-7.5,0.2-11
		c1.4-5.2,5.4-9.1,8.5-13.5c7.4-10.6,9.5-23.8,11.4-36.6"/>
	<path class="st2" d="M446.2,651.5c-0.3,4.8,1.7,9.6,4.3,13.7c2.7,4.1,5.8,5.8,8.4,9.9c2.3,3.6,5.9,9,8.5,12.5
		c5.8,7.7,13.6,12.7,18.4,21"/>
	<path class="st2" d="M596.1,791.7c-2.6-21.4,4.2-41.6,12.9-61.3c8.8-19.7,19.2-39.1,23.3-60.2"/>
	<path class="st2" d="M593.2,792.2c13.5-2.6,26.7-8.5,36-18.6c4.5-4.8,8-10.4,11.8-15.7c7.6-10.6,16.7-20.2,26.8-28.4
		c-1-0.8-2-1.6-3-2.4c2.8-5.6,6.6-10.6,11.3-14.7c2.2-2,4.7-5.3,2.6-7.4c4.8-5.6,8.1-12.4,9.6-19.6c-1.2,1-3,1.1-4.3,0.3
		c3.4-6.9,5.4-14.4,5.9-22.1c-1.4,0.7-2.7,1.5-4.1,2.2c1.1-6.8,1.2-13.9,0.2-20.7c-0.5,1.1-1.4,2-2.4,2.7
		c-0.1-6.4-0.3-12.7-0.4-19.1c-1.2-0.3-2.4-0.5-3.6-0.8c0.4-4.7,0.8-9.5,1.3-14.2c-0.9,0-1.8,0.1-2.6,0.1c-0.8-2.2,0-6-1.6-8.1"/>
	<path class="st2" d="M594.8,791.9c-4.9-5.4-14-7.6-20.2-11.5c-4.6-2.9-8.7-6.7-12-11.1c-1.5-2-2.7-4.1-3.6-6.4
		c-0.6-1.7-1-3.5-1.7-5.1c-2-4.7-6.2-8-8.9-12.3c-0.5-0.8-0.9-1.6-0.8-2.5c0.1-0.9,1.1-1.7,1.9-1.3c-0.2-2.2-2-3.8-3-5.8
		c-0.9-2-0.3-5.2,1.9-5.2c-1-4.4-1.2-9-0.5-13.5"/>
	<path class="st2" d="M905.8,761.6c-23.4,8.4-48.3,11.2-72.2,17.8c-16.4,4.5-32,9.7-48.6,13.3c-14.3,3.1-29,4.1-43.6,5.1
		c-28.8,2-57.6,4-86.4,3.4"/>
	<path class="st2" d="M654.7,802.2c-1.3-2.8-1.2-6-0.9-9.1c1.7-17.8,11.9-34.7,26.8-44.5c3.8-2.5,8.1-4.8,10.1-8.8
		c7.7-1.7,14.5-6.7,18.5-13.4c6.9,1.4,14.4-0.8,19.5-5.7c1.5,1.1,2.9,2.3,4.4,3.4c8.2-6.6,20.3-7.9,29.6-3.2c1,0.5,2,1.1,3.1,1.3
		c1.3,0.2,2.6-0.2,3.9-0.4c4.2-0.8,8.6-0.2,12.4,1.7c1.3,0.7,2.5,1.5,4,1.6c1.5,0.1,2.9-0.5,4.3-0.6c1.9-0.2,3.7,0.5,5.4,1.1
		c12,4.1,24,8.3,35.9,12.4c-1,1-2,2.1-3,3.1c7.2,2,14.3,4,21.5,6c-0.8,0.9-1.6,1.8-2.4,2.7c7.4,0.8,14.9,1.3,22.4,1.4
		c-0.2,0.9-0.3,1.9-0.5,2.8c12.5,0,24.9,2.4,36.8,8.2c-6.4,3.9-12.9,7.9-19.3,11.8c0.6,0.7,1.2,1.3,1.9,2c-3.8,1.9-7.2,4.5-10.4,7.3
		c-1,0.8-1.9,1.7-2.9,2.6c-0.7,0.6-1.3,1.2-2,1.8c-2.6,2.4-5.2,4.7-7.9,7.1c0.7,1,1.4,2.1,2.1,3.1c-5.6,2.9-11,6.3-16,10.1
		c1.3,0.7,2.4,1.7,3.2,2.9c-6.4,3.3-12.4,7.4-17.7,12.3c1.5,0.7,3,1.4,4.4,2.1c-6.8,4.4-14,8.3-21.4,12.1c0.3,0.8,0.7,1.7,1,2.5
		c-5.7,3.4-11.6,6.5-17.5,9.5c1.6,0.6,3,1.6,4.2,2.8c-7.9,2.5-15.8,5-23.8,7.5c0.6,1.6,1.4,3,2.4,4.3c-5.4,0.8-10.9,1.5-16.3,2.3
		c-1.2,0.2-2.5,0.4-3.2,1.3c-0.7,0.9-0.2,2.7,1,2.6c-9.1-0.3-18.3,0.4-27.2,2.2c0.9,0.8-1,1.9-2.2,1.7c-5.5-0.8-11-1.6-16.4-2.4
		c0.6,1.2,1.2,2.4,1.7,3.5c-4.4-1.5-8.8-2.9-13.2-4.4c-1.3-0.4-2.6-0.9-3.9-0.6c-1,0.2-1.9,0.7-2.9,0.8c-1.7,0.3-3.4-0.3-4.9-1
		c-5.3-2.1-10.6-4.3-15.6-7.1C662.6,850.7,650.5,824.8,654.7,802.2z"/>
	<path class="st2" d="M594.8,791.9c-9.4,16.7-6.1,53.2-2.7,76.5c5.5,37.7,6,76.2,15.2,113.2c2.9,11.7,6.7,23.4,6.5,36.8
		c2.5-5.2,4.4-10.6,5.8-16.1c0.9,0.2,1.7,0.4,2.6,0.5c1.3-5.3,2.1-10.8,2.5-16.2c0.6,0.2,1.3,0.3,1.9,0.5c0.6-5.6,1.2-11.2,2-16.8
		c0.6,0,1.2,0,1.8,0c-0.4-3.3-0.5-6.7-0.3-10.1c1.4,0.8,3,1.2,4.6,1.3c1-6,2.4-12,4.1-17.9c1.1,0.3,2.3,0.5,3.4,0.8
		c2.6-6.3,4-13,4.3-19.8c0.9,1.2,3,0.8,3.9-0.4c0.9-1.2,1-2.9,1-4.4c0-3.6,0.1-7.2,0.1-11.1c3.7-2.4,4.6-7.4,4.4-11.8
		c-0.3-4.4-1.4-8.8-0.6-13.1c1.1,0.6,2.4-0.4,2.8-1.5s-0.1-2.4-0.4-3.6c-1.1-3.7-2-7.6-2.4-11.4c-0.1-1.2-0.2-2.7,0.8-3.5
		c0.4-0.3,0.9-0.5,1.1-0.9c0.1-0.3,0.1-0.6,0-0.9c-1.1-7.2-2.3-14.4-3.4-21.6c-0.8-5.1-1.9-10.7-5.9-13.9
		c-0.2-6.7-3.1-13.3-8.4-17.6c-4.6-4-8.1-9.1-12.9-12.9c-4.8-3.8-10.6-6.1-16.2-8.4"/>
	<path class="st2" d="M592.2,797.3c-13.8,4.7-27.7,10.2-38.4,20.1c-10.5,9.7-17,22.9-23.3,35.8c0.7,0.4,1.4,0.8,2.1,1.2
		c-1.8,4.5-3.5,9-5.3,13.5c-0.3,0.7-0.6,1.4-0.5,2.2c0.2,1.9,2.5,2.7,4.3,3c-2.4,4.9-3.8,10.3-3.9,15.8c1.1,0.5,2.1,1.1,3.2,1.6
		c-1.1,5.6-1.9,11.2-2.4,16.9c0.9,0.4,1.7,0.7,2.6,1.1c-1,4.7,0.3,9.9,3.4,13.5c0.9,4.1,1.9,8.2,2.8,12.3c0.4,1.8,2.2,4.2,3.6,3
		c0.9,4.8,2.4,9.4,4.6,13.7c0.5,1,1,2,2,2.4c1,0.4,2.4-0.2,2.4-1.2c-0.3,4.6,1.2,9.4,4.1,13c1.2-0.6,2.3-1.6,3.1-2.7
		c2.7,3.4,5.7,6.6,8.8,9.6c0.9-0.7,1.8-1.4,2.6-2.1c1.7,5.1,4,10,6.6,14.6c1.1-0.8,2.2-1.7,3.2-2.5c1.8,4.3,4.3,8.3,7.4,11.8
		c-0.3-1.5,1.7-2.7,3.2-2.2c1.5,0.5,2.4,1.9,3.2,3.2c1.1,1.9,2.3,3.8,3.4,5.6c0.4-1.2,1.3-2.2,2.5-2.6c6.8,5.9,12.3,13.3,16,21.5"/>
	<path class="st2" d="M479,976.9c1.5-5.6,3-11.3,3.5-17c0.4-3.9,0.3-7.9,0.4-11.9c0.2-9.3,1.2-18.5,2.2-27.8
		c1.6-14.7,3.2-29.3,4.8-44c2.2-20.6,4.5-41.2,8.6-61.4c0.7-3.2,1.4-6.5,3.1-9.4c1.7-2.9,4.4-5.3,6.9-6.1c9.2,2.7,16.1,10.5,20,19.3
		s4.4,16.6,5.6,26.1"/>
	<path class="st2" d="M507,703.8c-4.2,19.2-12.5,37.5-14.6,57.1c-1.4,13.2,0,26.7,4.3,39.3"/>
	<path class="st2" d="M462.6,681.2c-3.3,1.6-5.3,5.6-4.5,9.2c-3.9,2.5-6.1,7.5-5.3,12.1c-4.1,4.4-5.5,11-3.5,16.7
		c0.3,0.8,0.7,1.7,0.5,2.5c-0.1,0.7-0.5,1.4-0.9,2.1c-2.6,4.4-2.9,10.1-0.8,14.7c0.5,1.1,1.1,2.1,1.2,3.3c0.1,1-0.3,2-0.5,3
		c-0.6,3,0.2,6.3,2.2,8.7c0.7,0.9,1.6,1.7,2.1,2.7c0.9,1.8,0.5,3.9,0.6,5.8c0.1,4.1,2.3,8,4.9,11.2c2.6,3.2,5.7,6,8.3,9.2
		c4.4,5.4,7.6,12.3,13.9,15.2c3.6,1.7,7.7,1.8,11.7,1.9c1,0,2,0,3-0.3c1.5-0.5,2.7-1.8,3.8-3c5-5.4,8.8-9.2,15.3-12.8
		c4-2.2,5.4-7.9,8.9-10.8c1-0.9,3.2-10.3,3.4-11.6c0.1-0.7,0.7,0.4,0.8-0.3c2.3-10.1,2.5-15.6,8-26.7c1-2.1,2.2-4.1,2.9-6.3
		c1.3-4,0.9-8.6-1.1-12.3"/>
	<path class="st2" d="M528.6,889.9c-0.3,3-1,6-2,8.8c-0.8,2.1-2.4,4.5-4.6,4.1c0.2,2.2,0.5,4.4-0.3,6.4c-1.5,3.8-6.1,5.7-7.4,9.6
		c-0.5,1.7-0.4,3.5-0.5,5.2s-0.6,3.6-2,4.7c-0.7,0.5-1.6,0.7-2.2,1.2c-1.2,0.9-1.6,2.4-2,3.9c-1.2,4.5-2.4,9-3.6,13.5
		c-0.8-0.8-1.5-1.7-2.3-2.5c-1.6,4.5-2.9,9.1-3.9,13.8c-0.4-1.2-1.2-2.2-2.2-3c-1.7,3.7-0.2,8.7-3,11.6c-0.6-1.6-1.7-3.1-3.1-4.1
		c-0.9,1-2.2,2.1-2.5,3.4c-1.2,5.2-5,11.4-9.8,11"/>
	<path class="st2" d="M501.1,806.7c-8-0.5-16.4-0.9-23.6,2.7c-5.7,2.9-9.9,7.9-13.9,12.8c-5.7,7-11.5,14-17.2,21
		c0.5,0.8,1.1,1.6,1.6,2.4c-4.6,4.5-7.5,10.8-7.8,17.3c-0.2,2.5,0,5.2-1,7.5c-0.4,0.9-1.1,1.8-1.3,2.8c-0.3,1.1-0.1,2.2,0,3.3
		c0.4,4.5-0.3,9.1-2.2,13.2c-0.6,1.3-1.3,2.9-0.4,4.1c0.5,0.6,1.3,0.9,1.7,1.5c0.5,0.7,0.4,1.6,0.3,2.4c-0.3,2.8-0.6,5.6-0.9,8.4
		c-0.1,1-0.2,2.1,0.4,2.9c0.6,0.8,2.1,0.9,2.4-0.1c0.7,4.5,1.6,9,3,13.3c0.8-0.1,1.6-0.2,2.4-0.3c0.4,2.8,1.1,5.6,2.1,8.2
		c0.5,1.2,1.1,2.5,2.2,3s2.9-0.4,2.7-1.6c0.8,5.2,2.6,10.2,5.3,14.7c0.7-1.3,1.5-2.6,2.2-3.9c2.1,5.8,4.5,11.5,7.2,17
		c0.1-0.6,0.2-1.1,0.3-1.7c6.2,6,10.1,12.8,12.1,21.2"/>
	<path class="st2" d="M195.6,449.2c-17.6,9.2-32.8,22.5-46.6,36.7c-41.5,42.9-69,95.5-84.6,153.1c-1.7,6.3-3.3,12.8-2.9,19.4"/>
	<path class="st2" d="M195.8,448.6c-8.6-8.5-20.9-12-32.9-13.5c-6.9-0.8-14-1.1-20.8,0.5c-6.5,1.5-12.6,4.5-18.5,7.5
		c-15.6,7.9-32.2,16.6-40.4,32.1c-2,3.8-3.6,8.2-7,10.9c-0.7,0.5-1.5,1.1-1.7,1.9c-0.2,0.8,0.2,1.7,0.4,2.5c0.3,2-1.1,3.9-2.4,5.4
		c-3.7,4.3-7.3,8.5-11,12.8c1,0.9,2,1.7,3,2.6c-2.6,2.8-5.1,5.6-7.7,8.4c-0.6,0.6-1.2,1.3-1.5,2.1c-0.7,1.8,0.6,4,2.5,4.4
		c-2.5,4.8-4.7,9.7-6.5,14.8c0.7,0.4,1.5,0.7,2.2,1.1c-1.9,5.1-2.6,10.6-2.1,16.1c1.2-1.1,2.4-2.2,3.6-3.3c1,7.6-5,15.8-1.4,22.6
		c0.8,1.6,2.2,3,2.8,4.7c0.6,1.7-0.1,4.1-2,4.4c-2.1,4.4-3.7,8.9-4.9,13.6c1-0.3,2,0.6,2.2,1.5s-0.1,2-0.3,3c-0.7,2.2-1.3,4.4-2,6.6
		c-0.1,0.5-0.3,1-0.1,1.5c0.2,0.5,0.7,0.8,1.1,1.2c1.5,1.3,1.8,3.6,1.6,5.6c-0.2,2-0.8,4-0.7,6c0,0.4,0.1,0.9,0.4,1.1
		c0.5,0.4,1.3,0.1,1.8,0.4c0.8,0.4,0.8,1.4,0.7,2.2c-0.3,3.8-0.7,7.6-1,11.4c0.5-0.7,1.7-0.5,2.2,0.2c0.5,0.7,0.6,1.6,0.6,2.5
		c0.1,2.7,0.2,5.4,0.2,8.1c0.4-0.6,1.2,0.1,1.5,0.7c1.1,2.1,3.3,4.8,4.4,6.9"/>
	<path class="st2" d="M195.6,449.2c7.3-3.3,15.9,3.1,18.1,10.7c2.2,7.6,0,15.8-2.3,23.4c-1.4-0.2-2.9-0.4-4.3-0.5
		c1.2,8.1-0.1,16.5-3.8,23.8c-0.4-0.9-1.5-1.5-2.6-1.4c-2.2,11.5-6.7,22.5-13.2,32.2c-0.4-1.1-0.8-2.2-1.1-3.3
		c-2.4,7.1-5.5,13.9-9.4,20.3c-0.3-1.3-0.6-2.6-0.9-3.9c-2.9,6.5-6.4,12.7-10.4,18.5c0.2-1.2,0-2.5-0.6-3.6
		c-3.4,4.3-6.6,8.8-9.5,13.5c-0.2-1.2-0.4-2.5-0.6-3.7c-4.1,5.2-8.1,10.4-12.2,15.6c-0.7-1.3-1.8-2.4-3.2-3.1
		c-2.7,4.5-5.9,8.6-9.6,12.3c-0.8-1.4-1.6-2.9-2.4-4.3c-4.3,3.2-8.1,7-11.2,11.3c-0.1-0.2-2.2-3-3.9-2.4c-1.7,0.6-2.8,2.3-3.6,4
		c-0.8,1.6-2.1,2.9-3.3,4.4c-3.7,4.5-6.3,3.1-7.2-1.6c-3.6,5.9-5.6,11.1-6.2,18c-1.8,0-3.6-0.8-4.8-2.1c-2.7,4-5.3,8-8,12
		c-1.2-0.5-2.4-1-3.6-1.5c-0.3,3.9-2.2,7.7-5.1,10.3c-0.8-0.2-1.7-0.4-2.5-0.6c-2,3.3-3.8,6.8-6,10c0.1,0,0-0.1,0.1-0.1"/>
	<path class="st2" d="M121.8,443.4c-11.8-4.6-25-3-37.5-1.4c-4.3,0.6-8.7,1.1-12.8,2.6c-3.5,1.2-6.8,3.1-10.2,4.7
		c-5.7,2.7-11.7,4.5-17.3,7.4c-7.4,3.8-13.9,9.2-20.3,14.6c-1.7,1.5-3.5,3-4.5,5.1c4.9,0,9.8-0.2,14.7-0.6c-0.2,0.9,0.1,1.9,0.6,2.7
		c5.2-1.5,10.4-2.9,15.6-4.4c-0.4,1.1-0.8,2.2-1.1,3.2c4,0.4,8.2-0.3,11.8-2.2c0.7-0.4,1.6-0.8,2.3-0.3c0.3,0.2,0.5,0.6,0.7,0.8
		c0.8,1,2.3,0.9,3.6,0.8c3.5-0.3,7-0.7,10.2-2.2c2-1,3.8-2.4,5.6-3.9c3.1-2.5,6.4-4.8,9.4-7.4"/>
	<path class="st2" d="M326.3,516.8c-35.1-19.2-73.7-35-112.5-44.7"/>
	<path class="st2" d="M323.4,485c-3.9-4.6-8.2-8.9-13.6-11.5c0.3-0.7,0.9-1.3,1.6-1.7c-5.1-2.5-9.9-5.6-14.2-9.3
		c0.9-0.8,1.8-1.7,2.7-2.5c-5.5-2.1-10.5-5.1-14.9-8.9c1.4-0.8,2.8-1.6,4.2-2.3c-7-2.3-14-4.6-21-6.9c0.6-1,1.3-1.9,1.9-2.9
		c-5.6-0.9-11.1-1.9-16.6-3.2c-1.6-0.4-3.3-0.8-4.9-1.1c0.2-0.6,0.4-1.3,0.6-1.9c-8.4,0.5-16.8,1.1-24.8,3.3s-15.9,6.3-21.2,12.8"/>
	<path class="st2" d="M334,533.9c-2.5,0.4-5.1,0.5-7.6,0.1c0.6,0.9,0.9,1.9,1,3c-2.2,0.6-4.5,0.7-6.8,0.4c-0.1,1.8-2.6,2.1-4.4,2
		c-2.9-0.3-5.8-0.6-8.7-0.9c1.1,1.6,2.2,3.1,3.3,4.7c-4.3,1.4-8.9,1.6-13.2,0.6c0.9,1.3,0,3.2-1.4,3.9c-1.4,0.7-3.1,0.4-4.7,0.1
		c-3.5-0.6-7-1.2-10.5-1.8c1,0.2,1.8,0.9,2.3,1.8c-4.8-0.1-9.7-1-14.2-2.7c0.9,1.4,1.5,2.9,2,4.4c-4.2,0.2-8-3.1-12.2-3.2
		c-1.3,0-2.6,0.2-3.8,0c-2.8-0.5-4.6-3.3-7-4.8c-0.4-0.3-0.9-0.5-1.4-0.6c-2.3-0.3-3.4,2.8-3.6,5.1c-3.1-2.9-6.1-5.9-9.2-8.8
		c-0.7-0.7-1.6-1.4-2.5-1.1c-0.9,0.3-1.3,1.3-2.2,1.5c-0.8,0.2-1.6-0.4-2.2-1c-3.9-3.6-7.9-7.2-11.8-10.7c0,1-1.2,1.6-2.1,1.4
		c-0.9-0.2-0.5-0.4-1.1-1.1c-4.8-5.5-8.3-12.2-10.1-19.3"/>
	<path class="st2" d="M532.9,1046.2c-12.3,7.1-22.6,20-35.5,27.6c-12.9,7.5-27,14.6-31.6,28.9c-2.7-0.6-5.3,1.5-7.3,3.5
		c-4.6,4.5-9.1,9-13.7,13.5c1.5-0.2,2.8,1.6,2.6,3.1s-1.1,2.9-2,4.1c-3.8,5-7.6,9.9-11.3,14.9c2.5,1.5,1.4,5.4-0.4,7.6
		c-1.8,2.2-4.2,4.8-3.5,7.5c1,0.3,1.9,0.9,2.4,1.8c-2.9,6.3-6.2,12.4-9.8,18.3c0.7,0.8,1.4,1.5,2.1,2.3c-3,4-5.1,8.7-5.9,13.6
		c-0.1,0.6-0.1,1.5,0.4,1.8c0.3,0.2,0.7,0.2,1.1,0.2c2.8,0.2,3.8,4,3,6.7c-0.8,2.7-2.5,5.3-2.3,8.1c0.2,2.8,4.2,5.2,5.8,2.9
		c-0.4,7.8-0.1,15.5,0.9,23.2c1.3,0,2.7,0,4,0c1,5.9,2,11.9,3,17.8c-0.3-2.1,1.6-4.1,3.7-4c1.9,3.6,3,7.6,3.4,11.6
		c1.4-1.1,2.8-2.2,4.3-3.3c2.1,3.3,4.2,6.8,4,10.7c-0.1,1.8-0.7,3.6,0,5.2c0.7,1.6,3.7,1.8,3.9,0.1c2.5,4.4,3.6,9.5,3,14.5
		c1-0.7,1.9-1.3,2.9-2c1.4,7.2,4.3,14,8.5,20c-1.3-2,0.1-4.7,2-6c1.9-1.3,4.3-1.8,6.3-3c4.6-2.7,7.7-7.9,8-13.2"/>
	<path class="st2" d="M531,1046c5.1,7,3.4,16.9-0.5,24.6c-3.9,7.7-9.7,14.4-12.9,22.4c-1.3,3.2-2.2,6.7-4.4,9.5
		c-0.7,0.8-1.4,1.6-1.9,2.6c-0.6,1.4-0.5,3-0.7,4.5c-0.5,4.2-3.2,7.7-5.4,11.4s-4,8.1-2.3,12c-1.2-0.2-2.4-0.5-3.6-0.7
		c-0.1,4.5-1,9.1-2.7,13.3c-1.3,3.2-3.1,6.4-2.7,9.8c0.1,1,0.4,2.1,0.2,3.1c-0.3,1.8-1.9,3-2.8,4.6c-0.5,1-0.7,2.1-0.9,3.2
		c-2,10.5-5.5,20.7-10.3,30.2c1.3,0.1,2.6,0.7,3.5,1.6c-2.8,4.7-5.7,9.5-7.1,14.7c-1.7,6-1.5,12.4-3.4,18.3c1.1,0,2.1,0.1,3.2,0.1
		c-1,4.2-1.9,8.4-2.9,12.6c1.9-0.8,4,1.3,4.3,3.3c0.3,2.1-0.4,4.2-0.4,6.3s1.1,4.6,3.2,4.7c0.3,3.8,0.9,7.6,1.4,11.4
		c0.1,0.7,0.2,1.5,0.3,2.2c0.7,4.8,1.4,9.5,2.7,13c6.7-18.6,17.1-35.7,24.9-53.9c12.4-28.8,25.5-57.4,26.5-89.8
		C537.5,1108.6,549.9,1074.9,531,1046z"/>
	<path class="st2" d="M434.3,1050.1c16,9.5,35.8,12.5,52.8,8.2c-3.9,5.1-10.2,8-14.2,13.1c-1.1,1.4-2.1,3-3.4,4.3
		c-2.1,2.1-5,3.3-7.9,3.3c1.2,1.2,0.7,3.3-0.5,4.4c-1.2,1.1-2.9,1.6-4.5,2c1.1,1,2.2,2,3.3,3.1c-3.8,0.1-7.5,1.8-10,4.6
		c-0.7,0.7-1.3,1.6-2.2,1.9c-2.1,0.7-3.9-1.6-4.9-3.5c-5.4-9.9-10.9-21.2-7.7-32.1c0.5-1.6,1.1-3.2,1.1-4.8c0-1.2-2.1-3.2-2.4-4.4
		c-1.5-6.1-0.1-11.7-0.4-18c-0.3-5.1-0.5-10.3-0.8-15.4c-0.2-4.8-0.5-9.6-0.3-14.4c0.2-4.9,0.8-9.8,1.5-14.7
		c1.9-13.3,4.3-26.6,9.8-38.8c1.5-3.2,3.2-6.4,5.5-9.1c1.3-1.4,2.7-2.7,4.3-3.7"/>
	<path class="st2" d="M486,1058.7c-2.3-3.6-5.3-6.8-8.8-9.3c-1.1-0.8-2.3-1.6-2.8-2.8s-0.2-3,1.1-3.3c-5-1.1-9.6-3.8-13-7.6
		c-0.3-0.4-0.7-0.8-0.8-1.3c-0.3-1.9,2.9-2.3,3.5-4.2c-6.4-2-11.7-6.9-14.3-13.1c-0.3-0.8-0.6-1.7-0.4-2.5c0.1-0.5,0.4-1,0.4-1.6
		c-0.1-0.9-1.1-1.4-1.9-1.9c-3.5-2-5.1-6.7-3.6-10.4c0.4-1.1,1.1-2.3,0.4-3.2c-0.3-0.4-0.8-0.7-1.2-1c-2.3-1.5-3.2-4.5-3.8-7.2
		c-1.4-5.7-2.8-11.4-4.2-17.1"/>
	<path class="st2" d="M476.4,1043.3c9-7.6,17.4-15.9,25.1-24.8c3.7-4.3,7.2-8.7,11.1-12.9c4.1-4.5,9.7-11.1,13.2-16
		c4.3-6,7.2-12.9,9.4-19.9"/>
	<path class="st2" d="M445.3,996.5c7.3-10.7,19.5-17.1,31.8-21.2"/>
	<path class="st2" d="M485,972.3c10.7-2.5,16.6-5.6,25.3-6c8.7-0.4,16.8,1.4,25.4,5c0.1,0.1,0.3,0.1,0.4,0.2"/>
	<path class="st2" d="M534.6,971.4c4.2-7.9,2.6-18-2-25.7c-4.6-7.7-12.5-13.5-19.8-18.7"/>
	<path class="st2" d="M469.9,1076.8c0.1,1.1,0.2,2.3,0.2,3.4c2.4-2.4,4.9-4.7,7.3-7.1c1-1,2.1-2,3.5-2.1c1.4-0.1,2.9,1.4,2.3,2.6
		c3-4.4,6.3-8.7,9.7-12.8c0.9,0.9,1.7,1.9,2.6,2.8c2.1-3.8,4.5-7.5,7-11.1c0.9,0.7,1.7,1.4,2.6,2.1c4-8.3,9.8-15.5,14.6-23.4
		c11-18.1,16.4-39.6,15-60.8"/>
	<path class="st2" d="M353.3,1042.9c19.4-12.7,37.7-24.8,60.3-30.2c6.1-1.5,12.3-2.3,18.5-3.2"/>
	<path class="st2" d="M435.8,1076.7c-2.3,0.7-4.9,0.8-7.3,0.1c0.4-1.1,0.8-2.1,1.2-3.2c-2.5,0.3-5,0.2-7.4-0.3
		c0.4-0.7,0.7-1.4,1.1-2.1c-3.7-0.2-7.5-0.5-11.2-1c0.5-1.1,1-2.1,1.5-3.2c-4.2,0.1-8.4-0.8-12.1-2.6c0.4-0.6,0.7-1.3,1.1-1.9
		c-3.2-1.3-6.5-2.7-9.7-4c0.7-0.7,1.4-1.3,2.2-2c-4.6-1.2-9.1-2.5-13.7-3.7c0.6-1,1.3-2.1,1.9-3.1c-3.4,0.3-6.9-0.3-10-1.8
		c0.4-0.6,0.8-1.3,1.2-1.9c-3.3,0.9-6.8,1.1-10.2,0.6c0.6-0.8,1.2-1.6,1.8-2.4c-4.7-1-9.5-1.2-14.3-0.8"/>
	<path class="st2" d="M442.9,950.1c-4.6-0.9-10.3-0.9-14.9-0.2c0.6,1,1.4,1.9,2.4,2.5c-4.8-0.3-9.7,1-13.7,3.7
		c0.4,0.8,0.9,1.5,1.3,2.3c-5.5,1.3-10.6,4.3-14.5,8.3c0.8,0.2,1.6,0.3,2.4,0.5c-2.7,1.2-5,3.3-6.5,5.9c-0.6,1.1-0.4,3.2,0.8,2.9
		c-4,1.1-7.6,3.2-10.5,6.1c1.4,0.8,2.9,1.3,4.4,1.5c-3.5,1.9-6.8,4.1-9.9,6.5c0.7,0.6,1.3,1.3,2,1.9c-3.9,1.9-7.6,4.4-10.9,7.2
		c-0.7,0.6-1.5,1.4-1.7,2.4c-0.2,1,0.6,2.2,1.5,2c-2.1,1.4-4.1,2.8-6.2,4.3c-1,0.7-2.1,1.5-2.2,2.7c-0.1,1.2,1.6,2.3,2.3,1.4
		c-4.7,0.7-8.1,6.7-10.7,11.2c1.2,1.3,3.2,1.7,4.8,1.1c-4.1,1.9-7.7,5.1-9.9,9.1c1,0.6,2.3,0.7,3.4,0.7c-1.9,2.5-4.4,5.4-3.2,8.6"/>
	<path class="st2" d="M767.3,576.4c-2.5-6.6-0.3-14.1,3.5-20.1c3.7-6,8.9-10.9,13-16.6c3.4-4.8,6.1-10,7.9-15.6
		c1.6-4.9,2.7-10.3,6.5-13.7c1.3-1.2,2.9-2.4,2.9-4.1c0-0.9-0.6-1.6-0.8-2.5c-0.7-2.4,0.7-4.8,2.4-6.6s3.7-3.5,4.5-5.8
		c0.8-2.3-0.4-5.6-2.9-5.7c-0.8,0-1.5,0.2-2.2,0.6c-1.3,0.7-2.4,1.7-3.5,2.7c-7.1,6.4-14,13-20.7,19.7c-3.2,3.2-6.4,6.5-8.9,10.3
		c-4.5,6.8-6.6,15-7.3,23.2C760.8,554.1,762.6,566,767.3,576.4z"/>
	<path class="st2" d="M793.5,603.1c-1.6,2.5-22.4-12-26.5-27.7"/>
	<path class="st2" d="M808.2,489.1c0.6-0.6,1.2-1.1,1.9-1.7c1.5,0.7,3.2,0.6,4.8,0.7c7.1,0.6,12.5,6.7,16.4,12.7
		c5.4,8.3,9.6,17.3,12.5,26.7c2.4,7.5,3.9,15.4,2.9,23.2c-1.2,9.1-5.9,17.4-10.9,25.1c-5.4,8.1-18.5,24.3-19.6,23.8"/>
	<path class="st2" d="M644.2,752.5c4.4,13.2,7.7,26.7,9.7,40.5"/>
	<path class="st2" d="M652.5,744.9c3.6,9.4,5.9,19.2,6.8,29.2"/>
	<path class="st1" d="M414.3,602.6c6.2-6.1,13.7-10.7,21.9-13.5"/>
	<path class="st1" d="M424.3,615.2c10.7-6,22.1-11,33.8-14.7"/>
	<path class="st1" d="M429.9,621.2c17.7-0.1,34.1-15.7,51.7-17.9"/>
	<path class="st1" d="M433.6,616.9c5.8-1,11.5-2.8,16.9-5.3c6.1-2.9,11.9-6.8,18.6-8.2"/>
	<path class="st1" d="M459.3,626.8c16.3-7.7,31.5-17.9,44.8-30.1"/>
	<path class="st1" d="M470.5,627.6c16.9-7.8,32-19.6,43.8-34.1"/>
	<path class="st1" d="M467.7,617.4c10.7-4.8,20.6-11.1,29.5-18.8"/>
	<path class="st1" d="M388.7,584.7c11-2.9,23-1.9,33.1-6.9"/>
	<path class="st1" d="M386.5,575.2c11,2.5,22.7,2.3,33.6-0.7"/>
	<path class="st1" d="M388.3,568.3c8.8,2,18,2.4,26.9,1.5"/>
	<path class="st1" d="M383.4,561.3c8.5,1.6,17.2,2.2,25.9,2"/>
	<path class="st1" d="M388.4,555.4c5.5-0.9,11.2-0.5,16.5,1.2"/>
	<path class="st1" d="M392.3,559.6c5.5,0,10.9,0.7,16.2,1.9"/>
	<path class="st1" d="M363.4,606.2c11.4-1.3,21.1-9.3,32.2-12.2"/>
	<path class="st1" d="M357.6,597.5c5.2-1.5,10.5-2.7,15.9-3.6"/>
	<path class="st1" d="M445.5,522.6c2.4-18.8,9.3-37,20-52.6"/>
	<path class="st1" d="M468.3,536.9c12.9-16.1,19.8-36.7,19.3-57.3"/>
	<path class="st1" d="M415.5,479c-4.7,7.8-8.9,15.9-12.4,24.2"/>
	<path class="st1" d="M436,510.5c-2.9,5.5-5.3,11.3-7.1,17.2"/>
	<path class="st1" d="M408.9,470.8c-2.7,4.1-5.5,8.2-8.2,12.4"/>
	<path class="st1" d="M407,463.1c-1.8,3-3.4,6.2-4.7,9.4"/>
	<path class="st1" d="M458,541.2c-1.7,4.9-4.4,9.5-7.8,13.5"/>
	<path class="st1" d="M450.1,538.2c-1.6,2.8-2.9,5.8-3.8,8.9"/>
	<path class="st1" d="M488.1,566.3c2.5-4.4,5.1-8.8,7.6-13.2"/>
	<path class="st1" d="M496.1,564.2c2.1-3.3,4.6-6.3,7.6-8.8"/>
	<path class="st1" d="M504.8,565.8c1.7-2.4,3.7-4.6,6-6.5"/>
	<path class="st1" d="M526.3,579.5c3.4-2.7,6.2-6.2,8.1-10.1"/>
	<path class="st1" d="M534.3,579.3c2-1.9,3.5-4.3,4.4-6.9"/>
	<path class="st1" d="M509.4,532.7c17-4.4,32.1-15.8,41-30.9"/>
	<path class="st1" d="M534.7,526.9c8.1-5.2,14.7-12.9,18.5-21.8"/>
	<path class="st1" d="M496.9,504c5.6-3.4,10.1-8.6,12.7-14.6"/>
	<path class="st1" d="M527.3,422.1c-0.5,5.5-2.2,10.9-5,15.7"/>
	<path class="st1" d="M514.4,445.9c2.5-8.2,6.2-16,10.8-23.2"/>
	<path class="st1" d="M448.5,444.4c-6.5-19.6-13-40.2-9.1-60.4"/>
	<path class="st1" d="M442.2,441.7c-5.4-10.8-9-22.6-10.6-34.5"/>
	<path class="st1" d="M357.2,483c-6.6-3.7-12-9-17.9-13.7c-5.9-4.7-12.6-8.9-20-9.8"/>
	<path class="st1" d="M333.9,472.6c-5.6-2.8-11.3-5.6-15.5-10.2"/>
	<path class="st1" d="M328.4,474.5c-2.8-1.1-5.4-2.6-7.8-4.4"/>
	<path class="st1" d="M378.9,508c-15.7-10.4-34.3-16.4-53.1-17.2"/>
	<path class="st1" d="M366.3,493.5c-7.7-4.4-16.3-7.2-25.1-8.4"/>
	<path class="st1" d="M437.6,494.7c-7.6-14.3-18.7-26.3-28.1-39.5c-2.3-3.2-4.6-7.1-3.6-10.9c0.8-3,3.5-5.2,6.4-6.1
		c2.9-1,6.1-1,9.2-1"/>
	<path class="st1" d="M443.6,480c-2.6-6.7-8.6-11.3-13.8-16.2c-5.9-5.5-11-11.8-15.3-18.7"/>
	<path class="st1" d="M445.2,476.2c-1.6-5.7-5.9-10.1-10.3-14c-4.4-3.9-9.2-7.6-12.1-12.7"/>
	<path class="st1" d="M448.7,469.1c-3-8.3-8.3-15.8-15.1-21.3"/>
	<path class="st1" d="M389.2,480.2c-3.6-6.7-7.2-13.5-8.8-20.9c-1.1-5.2-1.3-10.6-0.4-15.9"/>
	<path class="st1" d="M496.4,378.5c-0.8-9.3-1.7-18.7-5-27.4c-2.3-6.1-5.9-11.7-10.4-16.5"/>
	<path class="st1" d="M500.6,357.1c-1.2-9.3-6-18-13.1-24"/>
	<path class="st1" d="M478.8,456.2c3.2-14.5,4.1-29.5,2.5-44.3"/>
	<path class="st1" d="M512.3,491.6c7.5-12.4,12-26.6,12.8-41.1"/>
	<path class="st1" d="M520.9,490.9c6.3-10.8,13.5-21.1,21.5-30.7"/>
	<path class="st1" d="M514.5,473.4c2.3-7,3.1-14.6,2.3-21.9"/>
	<path class="st1" d="M549.2,464.1c5.8-10.5,8.9-22.5,8.7-34.5"/>
	<path class="st1" d="M549,450.6c2.5-6.8,3.8-14,3.9-21.3"/>
	<path class="st1" d="M563.3,474.8c5.5-8.7,12.6-19.4,18.3-28"/>
	<path class="st1" d="M569.8,437.1c2.6-2,5.2-4.1,7.5-6.4s4.2-5.2,5.2-8.3"/>
	<path class="st1" d="M545,429.1c-0.3-8.3-5.8-15.8-6-24.1"/>
	<path class="st1" d="M515.5,407.4c2.1-4.6,4.3-9.3,8-12.6c3.7-3.4,9.3-5.2,13.9-3"/>
	<path class="st1" d="M593,483.3c7.1-8.7,18-13.8,24.6-22.8c6.5-9,7.9-21.4,3.6-31.6"/>
	<path class="st1" d="M594.5,479.8c4.3-3.8,8.4-7.9,11.6-12.7c3.2-4.8,5.5-10.3,6-16"/>
	<path class="st1" d="M636.4,494.7c7.9-14.5,9.8-32.2,4.9-48"/>
	<path class="st1" d="M609.9,487.7c-4.3,6.8-9.1,13.2-14.4,19.1c-2.2,2.4-4.6,4.9-7.7,6"/>
	<path class="st1" d="M598.2,494.5c-3.8,7-10,12.7-17.2,16"/>
	<path class="st1" d="M591.2,386.5c2.9-6.2,6.6-12,11-17.2"/>
	<path class="st1" d="M588.4,384.9c1.6-3.8,4-7.4,6.9-10.4"/>
	<path class="st1" d="M608.6,404.6c3.6-6.1,6.1-12.8,7.2-19.8"/>
	<path class="st1" d="M628.9,405.5c2.3-5.4,4.8-10.6,7.7-15.7"/>
	<path class="st1" d="M518.1,379.5c3.5-12.6,8.6-24.8,15.2-36.2"/>
	<path class="st1" d="M528.8,372.3c2.6-9.4,6.2-18.5,10.8-27"/>
	<path class="st1" d="M415.1,432.3c-7.9-8.4-14.3-18.3-18.8-29"/>
	<path class="st1" d="M408.3,431.2c-3.7-4.9-6.9-10.2-9.6-15.7"/>
	<path class="st1" d="M543.8,571.6c15.2-11.2,37.5-8.9,52.6-20.3"/>
	<path class="st1" d="M541,567.7c16.6-8.2,30.4-21.9,38.6-38.5"/>
	<path class="st1" d="M594.7,564.8c13.6-10.1,33.4-8.4,46.7-18.8c7.9-6.2,12.4-16,14.9-25.8c2.5-9.8,3.4-19.9,5.8-29.7"/>
	<path class="st1" d="M548.2,593.6c12,9.6,28.8,10.5,43.9,7.8c15.1-2.6,29.6-8.3,44.9-10.1"/>
	<path class="st1" d="M536.1,589c9.5,9.9,19.1,19.8,30,28c2.6,1.9,5.3,3.8,7.7,6c6.4,5.8,10.7,13.9,18,18.6
		c6.8,4.3,15.2,5.1,22.8,7.8"/>
	<path class="st1" d="M574.5,616.8c4.7,0,9.1,2.5,12.8,5.5c3.7,3,6.9,6.5,10.9,9.1c6.3,3.9,13.9,5.1,20.8,7.8
		c7.6,3,14.5,7.9,19.7,14.2"/>
	<path class="st1" d="M561.6,681.5c-5.3-15-13.4-28.9-20.4-43.2s-13.1-29.4-14-45.3"/>
	<path class="st1" d="M562.8,664.8c-5.7-26.1-29.3-46.8-30.6-73.5"/>
	<path class="st1" d="M567.3,657.5c-5.8-23.4-19.6-44-33.1-64"/>
	<path class="st1" d="M568.4,646.3c-3.5-12.7-9.5-24.8-17.4-35.3"/>
	<path class="st1" d="M523.2,663.1c-3.8-22.9,4-46.9-2-69.4"/>
	<path class="st1" d="M512,656.4c-0.8-9.6,3.1-18.8,5.2-28.1c2.5-11.1,2.4-22.8-0.2-33.9"/>
	<path class="st1" d="M488.8,680.6c5.3-14.7,0.5-31.9,6.8-46.2c2.8-6.4,7.7-11.8,11.1-17.9c3.3-5.8,5.3-12.3,5.8-18.9"/>
	<path class="st1" d="M479.1,657.4c-0.7-5.8-0.8-11.9,1.2-17.4c1.6-4.4,4.5-8.3,7.5-11.9c4-4.9,8.1-9.6,12.5-14.1"/>
</g>
<g id="Ebene_3">
	<path class="st1" d="M245.9,126.7c-6.5-2.1-11.8-7.6-13.6-14.2c-1.5-5.2-0.9-10.7,0.3-16c1.1-5.3,2.8-10.4,3.5-15.8
		c0.6-4.8,0.2-11,0.3-15.9"/>
	<path class="st1" d="M803.7,603.6c-2.6,2.2-7.3,2-9.8-0.2c-2.5-2.2-3.7-5.6-4.4-8.9c-2-9.5-0.5-19.4,1.7-28.8s5.1-18.8,6-28.5
		c0.3-3.6,0.4-7.2,0.4-10.8c0-2.2,0.1-4.5,0.1-6.7c1,0.1,1.4,1.4,1.6,2.5c1.2,9.9-0.1,20.4,3.7,29.6c1.7,4.1,4.3,7.7,6.2,11.7
		c2.3,4.9,3.5,10.3,4.7,15.6c0.7,3.4,1.5,6.8,2.2,10.3c0.5,2.2,1,4.6,0.6,6.8c-0.4,2.8-2.2,5.3-4.6,6.7c-2.5,1.4-5.6,1.6-8.2,0.5
		c-0.5-0.2-1-0.5-1.3-0.9c-0.4-0.5-0.6-1.1-0.7-1.7c-4.7-18.4-6.2-37.6-4.5-56.5c0.7-8.2,2.1-16.4,1.2-24.5"/>
	<path class="st1" d="M789.2,602.7c-9.5,1-18.6-5.1-23.8-13.1c-5.2-8-7.2-17.6-8.7-27c-0.6-3.8-1.2-7.6-2.6-11.2
		c-1.2-3.2-2.9-6.1-4.3-9.2c-3-6.4-4.9-13.4-5.4-20.5c-0.2-2.9-0.2-5.8-1-8.6c-0.7-2.5-2-4.9-2.9-7.3c-1.3-3.7-1.6-7.7-0.9-11.6
		c0.8,4.7,4.3,8.4,5.7,12.9c0.8,2.5,1,5.1,1.2,7.7c1.5,17.4,5.5,35.5,16.8,48.9"/>
	<path class="st1" d="M816.7,599.7c2.3,5.1,9.5,6.4,14.6,4.1c5.1-2.4,8.5-7.3,11.2-12.3c11.1-20.3,15.1-44.5,11.1-67.3
		c-0.5-2.7-1-5.4-1.3-8.1c-0.6-5.7,0-11.4,0.1-17.1c0.1-6.3-0.3-12.7-1.3-18.9c-2.1,7.8-3.4,17.5-2,32.2c0.3,3.4-0.3-1.4,0.3,1.9
		c1.5,8.7,2.8,17.4,2.2,26.2c-0.6,8.8-3.2,17.6-8.6,24.5"/>
	<path class="st1" d="M829.2,497.8c1.4-4.8,2.8-9.8,2.4-14.8c-0.2-2.6-0.9-5.1-1.6-7.7c-1.2-4.5-2.5-9-3.7-13.5
		c6.5,7.7,9.6,18.3,8.2,28.3C833.9,494.5,832.4,500.5,829.2,497.8z"/>
	<path class="st1" d="M793.3,494.1c0.7-4.2-1.4-8.3-2.9-12.3c-6.1-15.3-4.3-33.6,4.6-47.4c-1.7,14.4-0.8,28.9,0.6,43.3
		C796.1,483.5,796.7,489.8,793.3,494.1z"/>
	<path class="st1" d="M813,453"/>
	<path class="st1" d="M794.3,435.4c-3.1,10.8-4,22.1-2.7,33.2c1,8.6,2.8,16.9,2.7,25.5"/>
	<path class="st1" d="M763.2,721.4c16.6-13.9,29-32.7,35.2-53.5c2.4-8.3,3.9-17.1,2.3-25.6c-1.3-6.6-4.3-12.6-6.4-19
		s-3.2-13.4-0.5-19.6"/>
	<path class="st1" d="M772.6,721c9.6-7.9,17.3-19.4,22.6-30.7c5.3-11.3,9-23.2,12.6-35.1c1.6-5.1,3.1-10.2,4.7-15.3
		c3.9-12.9,7.9-26.7,3.8-39.5"/>
	<path class="st1" d="M667.3,849c7.3,38.4,15.6,75,27.2,112.4c4.8,15.4,10.2,31.1,20.6,43.4"/>
	<path class="st1" d="M677.2,859.5c9,39.8,13.9,68.1,28.6,110.9c5.4,15.8,14.1,30.9,26.8,41.8"/>
	<path class="st1" d="M773.4,1048.5c-1.3-6.1-5.9-10.8-10.4-15.1c2.6-0.8,5.4-0.4,7.9,0.6c2.5,1,4.6,2.7,6.6,4.5
		c-0.3,0.9-1.7,0.7-2.3,1.4c-0.2,0.3-0.2,0.6-0.3,0.9C774.6,1043.3,774.2,1045.6,773.4,1048.5z"/>
	<path class="st1" d="M627.8,980.7c46.2,22.1,93.5,41.9,141.7,59.5"/>
	<path class="st1" d="M629.7,966.6c32.1,15,64.5,29.4,97.1,43.2c41,17.2,82.6,33.5,125.5,44.8c0,0,4.7-0.3,4.6,3.9
		c-0.1,4-7.3,15.6-15.6,8.5c-1.3-1.1-2.9-1.9-4.5-2.4c-2.5-0.7-6-2-10.1-3.3c-17.7-5.5-35.2-12-52.2-19.5"/>
	<path class="st1" d="M636.7,969.3c2.6-2.5,5.3-4.8,8-7.1c0.1-0.1,0.2-0.2,0.3-0.2c0.3,0,0.4,0.4,0.4,0.7c-0.2,2-0.3,3.9-0.5,5.9
		c-0.1,1.5-0.3,3-1,4.2c0,0,0,0,0.1,0"/>
	<path class="st1" d="M688.6,941.5c1.2,5.6-2,11.1-2.5,16.8c-0.4,4.3,0.8,8.5,2,12.6c1.2,4.3,2.5,8.7,4.3,12.8
		c3.1,6.8,7.9,12.9,13.9,17.5"/>
	<path class="st1" d="M719.6,997.9c-3.6-10.1-7.4-20.7-6.2-31.3c1.3-11.9,7.7-23.5,11.8-34.8c1.3-3.8,2.3-7.9,1.4-11.8
		c1.5,10.6-2,21.2-4.8,31.5c-2.8,10.3-4.9,21.6-1,31.5c1.5,3.8,3.9,7.2,6.3,10.5c6.3,8.6,13.2,16.6,20.2,24.6"/>
	<path class="st1" d="M726.8,923.3c-0.5,4-2.1,6.2-4.6,9.4c-2.5,3.1-5.2,7.7-7.9,10.6c-1.4,1.5-3.1,4.3-4.3,6.3
		c-3.5,6.1-5.3,14.2-5.1,18.3"/>
	<path class="st1" d="M686.3,957.2c-0.4-2-0.8-4.8-1.6-6.7c-1.1-2.7-3-5-4.8-7.2c-2.7-3.3-5.4-6.7-8.9-9.2c3.6,1.1,7.2,2.5,10.4,4.6
		c3.2,2.1,5.9,5,7.3,8.5"/>
	<path class="st1" d="M633.8,803c6.7,0.3,13.4,0.2,20.1-0.3"/>
	<path class="st1" d="M630.4,798.2c7.6,1.1,15.3,1.5,23,1.3"/>
	<path class="st1" d="M651.7,744.2c4.5-1.6,9.5-1.7,14.2-0.7c4.7,1,9.1,3.1,13.1,5.8"/>
	<path class="st1" d="M659.1,737.1c9.1-0.9,18.5,2.1,25.3,8.2"/>
	<path class="st1" d="M514.8,922.3c2.5,3.6,6.5,5.8,10.6,7.5c4,1.7,8.3,3.2,11.7,5.9"/>
	<path class="st1" d="M520.6,911.7c3.4,2.6,7.1,4.7,11,6.3"/>
	<path class="st1" d="M539.5,937c0.1,6.6-0.7,13.1-2.4,19.5"/>
	<path class="st1" d="M543.2,946.1c-0.5,9.4-3.3,18.7-8.1,26.8"/>
	<path class="st1" d="M531.2,1005.2c-0.6,14.3-0.5,28.6,0.5,42.8"/>
	<path class="st1" d="M534.4,981.8c3.1,20.6-1.1,41.8,1.8,62.4c0.9,6.3,2.4,12.5,2.9,18.8"/>
	<path class="st1" d="M585.9,798.7c-14.6-5.6-30.6-6.8-46.2-6.8c-8.8,0-17.7,0.4-26,3.1c-6.7,2.1-12.9,5.7-18.2,10.3"/>
	<path class="st1" d="M581.3,801.4c-11.5-2.4-23.1-4.8-34.8-5.5s-23.7,0.3-34.7,4.5"/>
	<path class="st1" d="M579.9,783.6c-4.5,2.3-7.4,6.8-10.7,10.6"/>
	<path class="st1" d="M566.8,798.3c-3.8,4.6-6.2,10.1-8.7,15.6"/>
	<path class="st1" d="M586.6,785.9c-4.3,2.1-7.1,5-10.2,9.8"/>
	<path class="st1" d="M574.1,800c-1.4,2-2.7,4.1-3.9,6.2"/>
	<path class="st1" d="M560.6,766.5c-6.2,4.5-9.5,12.1-15.6,16.8c8.3,0.1,19.7-5,23.3-7.8c0.7,10.9-4.1,12.7-8.8,17.2"/>
	<path class="st1" d="M564.6,777.8c-2.5,4.9-5.3,9.7-8.3,14.3"/>
	<path class="st1" d="M500.5,316.1c-2.4,1.7-5.9,1.2-8.2-0.7c-2.3-1.9-3.5-4.8-4-7.7c-1.7-9.2,2.5-18.3,5.3-27.2
		c5.7-17.7,6.5-36.6,9.9-54.9c1.5-8.4,3.6-17.2,1.6-25.5c4.9,18.1-2.4,37.4-0.5,56c0.9,9,3.9,17.6,6,26.4c1.8,7.5,2.8,15.2,3.9,22.9
		c0.4,3,0.8,6.3-0.8,8.8C510.9,318.5,504.5,318.3,500.5,316.1z"/>
	<path class="st1" d="M506.5,212.4c-2.5,29.4-5,59.4-7.5,88.8c-0.4,5-0.8,10.4,1.4,14.9"/>
	<path class="st1" d="M514.6,307.3c2.6-5.4,4.1-12,4-17.9c0-6-0.9-11.9-1.6-17.9c-1-7.8-1.7-15.6-2.3-23.4
		c-0.7-10.8-0.9-22.3,4.8-31.5c-2.7,10.6-2.7,21.8-0.3,32.4c2.6,11.2,8,21.6,10.8,32.7c0.9,3.8,1.6,7.8,1.2,11.7
		c-0.3,3-1.2,5.9-2.2,8.7c-1.5,4.2-3.3,8.5-6.6,11.6s-8.1,4.9-12.3,3.3"/>
	<path class="st1" d="M470.2,304.7c-1.5,2.4-4.1,4.1-7,4.5c-2.8,0.4-5.8-0.5-7.9-2.5c-3.8-3.5-4.3-9.2-4.7-14.4
		c-1.1-14.1-3.6-28.1-7.6-41.8c-1.3-4.7-2.9-9.3-3.7-14.1c-0.8-4.3-1-8.6-1.9-12.9c-1-4.9-2.7-9.6-4.6-14.2
		c3.3,10.5,7.6,20.8,12.8,30.5c7,13.2,15.8,25.6,20.6,39.7C469,287.8,470.4,296.4,470.2,304.7z"/>
	<path class="st1" d="M444.4,254.5c-1.1,4.7-2.2,9.3-3.3,14c-0.9,4-1.9,8-2.6,12c-1,5.7-1.6,11.5-0.3,17.2
		c1.3,5.6,4.9,10.9,10.2,13.2c3.9,1.6,8.9,1.2,11.5-2.1"/>
	<path class="st1" d="M443.8,236.2c5.6,7.9,11.5,15.5,18.2,22.4c4.5,4.6,9.4,8.8,13.6,13.8c4.2,4.9,7.7,10.7,8.7,17.1
		c0.4,2.7,0.4,5.7-0.8,8.1c-1.9,3.9-6.1,6-10.2,7.3c-1.1,0.3-2.6,0.5-3-0.6"/>
	<path class="st1" d="M477.3,273.9c4.8-9.5,5.5-21.5,3.5-31.9c-2.1-10.5-6.4-20.3-10.7-30.1c5.5,4.3,8.1,11.3,10,17.9
		c1.7,5.8,3.2,11.7,3.7,17.7c1.2,12.8-2,26-0.3,38.7"/>
	<path class="st1" d="M475.7,303.6c1.5,2.4,2.9,4.9,4.5,7.3c1.6,2.3,3.7,4.5,6.2,5.8c2.6,1.3,5.7,1.6,8.2,0.2"/>
	<path class="st1" d="M484.5,291.7c0.7,3.2,1.8,5.5,3.9,8"/>
	<path class="st1" d="M493.3,317.5c-1.7,2.1-2.5,4.8-2.6,7.5c-0.1,2.7,0.4,5.4,1.2,8"/>
	<path class="st1" d="M513.6,317.8c1.6,1.5,2.4,3.8,2.5,6c0.1,2.2-0.3,4.5-0.9,6.6c-1.4,5-3.5,9.8-5.7,14.5"/>
	<path class="st1" d="M481.9,313.1c1,6.7-1.7,13.4-1.8,20.1"/>
	<path class="st1" d="M454.7,311.6c0.1,3.6,1.4,7,3.2,10.1c1.8,3.1,4.3,5.7,6.9,8.1c2.4,2.2,5,4.3,6.6,7.1"/>
	<path class="st1" d="M466,262.4c-0.4-2.7-0.3-5.5-0.1-8.3c0.1-1.3,0.1-2.5,0.4-3.7c0.3-1.3,0.8-2.5,1.4-3.6
		c1.7-3.5,3.6-6.9,5.9-10.1c0-0.1,0.1,0,0.1,0.1c-3.7,9.3-5.1,19.5-4.1,29.4"/>
	<path class="st1" d="M438.5,231.5c-4.5-2.9-8.2-6.9-11.6-11.1c-3.4-4.2-6.4-8.6-9.9-12.6c-0.9-1-1.8-2-3-2.6
		c5.9,4.9,11.9,9.8,17.8,14.7c1.2,0.9,2.3,1.9,3.4,3c1.2,1.2,2.2,2.5,3.1,3.9"/>
	<path class="st1" d="M437.7,224.8c-1.2-4.9-4.6-8.9-6.8-13.5c-3-6.3-3.8-13.7-2-20.4c2,9.4,8.2,17.4,11,26.6c0.7,2.3,1.2,4.6,1.8,7
		c1.5,5.9,3.7,11.6,5.9,17.3"/>
	<path class="st1" d="M434.4,222c-5.3-8.5-12.8-15.6-16.9-24.8c1.4,1.9,3.3,3.4,5.1,5c4.2,3.8,9.3,10.9,12.5,15.6"/>
	<path class="st1" d="M491.9,255c1.7-5.3,0.3-11.1-1.3-16.4c-1.6-5.3-3.4-10.9-2.2-16.4"/>
	<path class="st1" d="M503.4,226.6c-3.5-7.7-7.1-15.5-10.6-23.2c1.6,2.6,4,4.5,6,6.8c4.7,5.2,7.3,11.8,9.4,18.4s3.7,13.5,6.6,19.8"
		/>
	<path class="st1" d="M505.3,231.2c2.9,8.2,4.8,17.1,10.2,24"/>
	<path class="st1" d="M213.4,658.5c4.5,0.5,8.1-2,11.7-4.5c10.4-7.2,23.3-9,35.7-6.9c13.1,2.2,20.2,3.4,33.1,8.3
		c7.5,2.9,18.1,7.4,24.7,9.4c12.8,3.8,24.3,8.2,39,8c13.4-0.2,27.9-4.5,37.1-14.2"/>
	<path class="st1" d="M389.8,654.9c-18.8,11.7-35.9,14-59.8,6.2c-16.9-5.5-36.4-13.4-53.6-18.2c-17.2-4.8-37.1-7.3-54.1,3
		c-6.2,3.8-12.6,5.4-8.3,13"/>
	<path class="st1" d="M298.2,656.7c31.8,72.1,79.8,136.7,126.7,200"/>
	<path class="st1" d="M288.6,653.1c5.9,13.8,14.2,30.8,21.1,44.1c8.6,16.4,20,37.1,30.1,52.5c23.3,35.8,43,64,69,97.9"/>
	<path class="st1" d="M446.3,844.7c-1.9,3.3-5.4,5.3-9,6.6c-3.5,1.4-7.3,2.3-10.6,4.1c-1.5,0.8-3,2-3.3,3.7
		c-0.3,2.3,1.9,4.2,4.1,4.9c0.7,0.2,1.6,0.4,2.3,0.1c0.5-0.2,1-0.6,1.4-0.9c3.5-3,7-6,10.4-9.1"/>
	<path class="st1" d="M416.9,845.6c5.6-9.5,13.7-17.6,23.2-23.2c5-2.9,10.3-5.2,15.4-7.9c5.1-2.7,10.1-5.9,13.7-10.4
		c1-1.2,1.9-2.5,2.9-3.7c0.1-0.2,0.3-0.3,0.5-0.4c0.6-0.2,0.9,0.6,1,1.2c0.7,4.2-0.1,8.7-2.2,12.5"/>
	<path class="st1" d="M470.3,813.9c-4,5.3-8.9,10-14.2,14c-6.3,4.8-13.3,8.6-19.2,13.8c-4.7,4.2-8.6,9.2-11.7,14.7"/>
	<path class="st1" d="M437,883.7c-1.5-2.8-4.1-5-7-6.1c-2.6-1-5.4-1.1-8.2-1.8c-2.7-0.6-5.5-1.9-6.9-4.3c-0.6-1.1-0.9-2.4-1-3.6
		c-0.3-3.1,0.1-6.4,2.1-8.7c2-2.4,5.6-3.5,8.2-1.8"/>
	<path class="st1" d="M432.6,862.4c2.9,0.8,5.2,3.1,7.3,5.3"/>
	<path class="st1" d="M220.9,657.2c48.7,82,120.4,149.3,203.4,200.1"/>
	<path class="st1" d="M213.2,658.5c1,6.7,4.5,12.8,8.1,18.6c47.3,76.6,118.3,135.7,193.3,185.6"/>
	<path class="st1" d="M187.4,676.8c3.6-3.9,7.9-7.4,12.8-9.3s10.7-2.3,15.6-0.4"/>
	<path class="st1" d="M186.8,670.4c2.4-4.5,6.8-7.8,11.6-9.7c4.8-1.9,10-2.4,15.2-2.5"/>
	<path class="st1" d="M187.2,669.8c0.9,10.5-1.8,21-2.9,31.5c-0.6,6-0.7,12.1-1.1,18.2c-0.8,15.3-3,30.5-5.1,45.7
		c0.1-6.2,0.1-12.4,0.2-18.6c0-4.6,0.1-9.3-0.2-13.9c-0.6-8.6-2.4-17.1-2.5-25.7C175.5,693.5,179.5,680.1,187.2,669.8z"/>
	<path class="st1" d="M187.2,669.6c-5.4,0.6-10.1,4.5-13.1,9c-5.3,8-7.9,17.7-7.4,27.2c0.3,4.3,1.1,8.5,1.6,12.7
		c0.4,3.7,0.6,7.5,1.7,11.1c1,3,2.9,7.5,4.2,10.4c2.1,4.9,3.2,10.1,4.2,15.3"/>
	<path class="st1" d="M213.3,657.6c-10.5-1.1-16.3-6.5-26.5-8.9c-8.5-1.9-12.3-1.1-20.9-0.7c-6.9,0.3-11.4-0.8-17.8,1.2
		c-5.5,1.7-6.5,2.2-12.7,5.7c-6.7,3.7-7.9,5.5-11.6,9c-3.6,3.4-6.6,7.7-7.9,12.5c-0.7-4,0.9-8,2.7-11.6c5.2-9.9,11.6-21.6,22.5-24.3
		c17.4-4.5,36.3-3.1,47,1.5C196.5,645.7,203.5,652.9,213.3,657.6z"/>
	<path class="st1" d="M175.3,638.6c-3.4-2.2-6.6-4.8-9.4-7.8c3.6,2.1,8.4,2.4,12.4,3.6s8.1,3.4,9.6,7.3"/>
	<path class="st1" d="M163,586.9c7.5,11.5,13.9,23.6,20.9,35.4s14.8,23.2,24.6,32.7"/>
	<path class="st1" d="M170.2,582.7c4.9,5.9,7.8,13.2,11.4,19.9c2.8,5.2,6.2,10.1,9.5,15c7.6,11.1,15.2,22.3,24.5,32"/>
	
		<ellipse transform="matrix(0.8323 -0.5543 0.5543 0.8323 -295.9341 190.1823)" class="st1" cx="166.4" cy="584.2" rx="4.4" ry="1.5"/>
	<path class="st1" d="M207,639.5c-2.3-4.2-3.7-9-4-13.8c0,0,0-0.1,0-0.1"/>
	<path class="st1" d="M217.5,648.4c-2.4-6.5-2.8-13.3-3.1-20.1"/>
	
		<ellipse transform="matrix(0.1823 -0.9832 0.9832 0.1823 -446.1267 718.0179)" class="st1" cx="208.6" cy="627.2" rx="2.2" ry="5.9"/>
	<path class="st1" d="M191.9,618.6c3.6-2.5,7.2-5,11-7.3c3-1.9,6.2-3.7,9.6-4.8c6.7-2.1,14.4-1,20.2,3c1.3,0.9,2.5,1.9,3.9,2.5
		c1.7,0.7,3.6,0.7,5.3,1.3c4,1.4,6.2,5.7,9.7,8c3.1,1.9,6.9,2.2,10.5,2.7c3.6,0.5,7.5,1.5,9.8,4.3c-3.6,0-7.1-1.2-10.6-1.5
		c-6.1-0.4-12.5,1.9-18.3,0c-3.5-1.1-6.4-3.6-9.6-5.5c-3.2-1.8-6.7-3.1-10.2-4c-4.9-1.3-10.1-2.1-15.1-1.4c-5,0.7-10,2.9-13.2,6.9
		C194,621.4,193,620,191.9,618.6z"/>
	<path class="st1" d="M252.3,544.2c7.4,34.7,18.5,68.6,33,101"/>
	<path class="st1" d="M260.2,546.4c4.6,35.6,19.2,69,33.7,101.9"/>
	<path class="st1" d="M158,345.5c13.2,20.5,26.4,41,39.8,61.4c6.8,10.4,13.6,20.7,21.5,30.3"/>
	<path class="st1" d="M166.7,343.1c4.5,9.1,9.5,18,14.8,26.6c4.1,6.7,8.6,14.9,13,21.5c3.2,4.8,6.4,9.6,9.6,14.4
		c6.8,10.2,13.7,20.4,21.7,29.7"/>
	
		<ellipse transform="matrix(0.9666 -0.2563 0.2563 0.9666 -82.6741 53.0461)" class="st1" cx="162.2" cy="343.7" rx="4.7" ry="1.9"/>
	<path class="st1" d="M243.9,293.2c5,22.8,3.2,46.4,1.4,69.6c-1.8,23.4-3.6,46.8-5.4,70.2"/>
	<path class="st1" d="M255.5,288c-2.9,20.5-3.6,41.3-2.4,62"/>
	<path class="st1" d="M253.3,354.8c-3,25.6-4.9,51.4-5.5,77.2"/>
	<path class="st1" d="M243.3,293.8c1.6-0.6,3.8-0.3,5.1,0.8c1.4-2.7,3.8-4.9,6.7-6"/>
	<path class="st1" d="M250.4,357.2c-0.4-2,0.2-4,1.3-5.7c1.1-1.7,2.6-3,4.1-4.3c9.6-8.5,19.8-16.4,28.9-25.5
		c9.1-9.1,17.2-19.4,21.9-31.3c1.8,6.4-0.2,13.4-3.8,19s-8.7,10-13.8,14.4C276.2,334.8,263.4,345.9,250.4,357.2z"/>
	<path class="st1" d="M273.6,332c3.3-5.3,3.5-12.2,2.5-18.3c-1-6.2-3.2-12.1-4.6-18.1s-2-12.6,0.1-18.5c1.1,8.8,6.2,16.2,8.8,24.7
		c2.3,7.5,2.7,15.5,1.1,23.2"/>
	<path class="st1" d="M307.1,298.5c7.6-6.4,12.2-16.7,14.1-26.4c2.2-11.1,0-19.2,1.1-30.5c1.1-12.2,6.9-16.7,13.3-30.6
		c2.9-6.4,10.3-19,15.4-23.9c6.1-5.9,13.6-10,21.8-11.8c8.2-1.8,14.4-2,22.9-1.9"/>
	<path class="st1" d="M302.9,309.3c8.7-5.9,15.8-17.1,19.8-26.8c4-9.7,6.4-20,9.8-30c11.4-33.1,33.1-60.9,63.1-79"/>
	<path class="st1" d="M327.2,269.1c7.4-6.1,15.6-14.4,22.2-21.5c-3.3,0.2-6.5,0.4-9.8,0.6c6.8-6,12.6-13.2,16.9-21.2
		c-0.7,0-1.3,0-2,0c12.9-8.6,26.6-16.1,40.7-22.5c-2.8-2.5-6.7-3.8-10.5-3.3c6.3-6.2,14.8-10.2,23.7-11c-3.2-3.3-8.4-4.3-12.6-2.5
		c9.4-7.8,22.2-11.3,34.2-9.4c-9.5-8.3-23.1-9.4-34.8-4.7"/>
	<path class="st1" d="M253.1,289.8c6-53.2,12.1-106.3,18.1-159.5c0.2-2.1,0.5-4.2-0.2-6.2c-0.7-2-2.4-3.3-4.6-3.4"/>
	<path class="st1" d="M247.3,294c3.8-37.1,9.7-66.5,12.2-104.1c0.5-7,0.6-21.2,0-28.2c-0.6-7-2.5-14.1-6.6-19.8
		c-1.8-2.5-4-4.8-5.4-7.5c-1.4-2.8-1.9-6.3-0.2-8.9"/>
	<path class="st1" d="M266.8,120.7c-7.2-0.9-15.3-0.6-19.6,4.9"/>
	<path class="st1" d="M265.4,181.3c2.6-1.9,5.3-3.7,7.4-6.2c2.1-2.5,3.5-5.6,3.3-8.8c-0.4-4.7-4.1-8.3-7.5-11.4"/>
	<path class="st1" d="M259.7,183.6c-1.9,1.1-4.5,0.3-6-1.3s-2.4-3.7-3.5-5.6c-3.7-6.6-10.3-11.4-17.7-12.9c4.5-0.6,9.3,0.2,13.3,2.2
		c-2.1-3.6-4.1-7.3-6.2-10.9c1.3,1.5,3,2.7,4.9,3.5c-1.2-6.6-3.5-13.1-7.8-18.1c-3.9-4.5-9.2-7.4-14.1-10.7
		c-4.9-3.3-9.8-7.1-12.2-12.6c3.6,3.6,8.3,6.1,13.4,7c-0.8-0.3-1.5-2.3-0.8-3.5c5,5,9.6,8.3,14.6,13.3c6.2,6.1,12.5,12.3,20,16.7"/>
	<path class="st1" d="M283.6,322.8c8.9-32.7,14.4-67.3,7.2-100.4c-2.3-10.6-5.2-20-7.6-30.5c-1.7-7.3,0.1-17.1-8-20.8"/>
	<path class="st1" d="M282.1,309.4c5.6-24.9,7.1-50.7,4.3-76c-1-8.8-2.6-16.9-6-25s-8.7-15.7-16.1-20.5"/>
	<path class="st1" d="M269.2,122.3c6.9-5.5,8.6-15.8,6-24.2c-2.7-8.4-8.9-15.2-15.7-20.9s-14.3-10.5-20.6-16.6
		c-9.2-8.9-15.8-20.5-18.7-33c1.6,8.7,3.2,17.6,7.4,25.3c6.1,11.4,17,19.4,24.4,30c7.4,10.8,10.9,24.2,9.7,37.2"/>
	<path class="st1" d="M250.2,122.7c-5.9-6.8-8.7-15.8-9.6-24.7c-0.9-8.9,0.1-17.9,1.1-26.9"/>
	<path class="st1" d="M241.1,62.6c-1-18.1-4.1-35.5-9.3-52.9c-2,7.9-2.9,15.1-1.8,23.2c1.1,8.1,3.2,16,5.3,23.9"/>
	<path class="st1" d="M250.4,70.1c-2.7-6.8-6.1-13.3-10.1-19.3"/>
	<path class="st1" d="M230,32.9c-1.6-4.4-4.2-8.1-7.8-11.2c5,7.8,4.5,18.6,10.7,25.6"/>
	<path class="st1" d="M232.9,95c-1.5-6-5.2-10.6-10.4-13.9c2.3,1.9,3.6,4.8,4.3,7.7c0.6,2.9,0.7,5.9,1.2,8.9c0.5,3,1.4,5.9,3.5,8.1"
		/>
	<path class="st1" d="M228.7,101.4c-3.4-1.3-7.1-1-10.7-0.6c-3.6,0.4-7.3,0.9-10.7-0.1c3.8,2,7.5,3.9,11.3,5.9
		c2,1.1,4.1,2.1,6.3,2.7c2.2,0.6,4.6,0.6,6.8-0.2"/>
	<path class="st1" d="M262.8,79.7c1.2-5.2,0.4-10.7-2.2-15.4c5,4.4,7.1,11.8,4.9,18.1"/>
	<path class="st1" d="M382.8,620.4c-6,8-15.9,11.8-24.1,17.4c-7.2,5-13.2,11.4-19.2,17.8c4.2-6.8,8.4-13.7,13.8-19.7
		s12.1-11,19.8-13.1C376,622,379.5,621.4,382.8,620.4z"/>
	<path class="st1" d="M452.6,667.8c-3.8,5-8,8.9-12.3,13.4c-4.3,4.5-8.3,9.7-9.9,15.8c2.1-6.2,3.6-12.7,6.2-18.7
		C439.1,672.3,442.5,666.8,452.6,667.8z"/>
	<path class="st1" d="M454.4,670.5c0,4.8-2.1,9.6-5.5,12.9C447.1,679.9,447.2,675.4,454.4,670.5z"/>
	<path class="st1" d="M244,293.6c-12.6-9.7-23.5-22.2-33-34.9c-6.9-9.2-13-19.4-22.3-26.1c-1.4-1-2.9-1.9-4.6-1.9
		c-2.3,0.1-4.1,1.9-5.5,3.8c-5.2,7.5-6.7,17.4-3.9,26.1c-1.9-7.5-3.9-15.1-5.8-22.6c-0.3-1.2-0.6-2.4-0.5-3.7c0.3-2.5,2.6-4.3,5.1-5
		s5-0.3,7.5,0.1c5.1,0.7,10.3,1.5,15,3.5c11.8,5.1,18.7,17.3,24.3,28.9c1.5,3.1,3,6.3,5.4,8.9c3,3.3,7.2,5.2,10.8,7.9
		C241,281.9,244.4,287.5,244,293.6z"/>
	<path class="st1" d="M182.1,164.6c-0.7,3.5,1.4,7,4.2,9.3c2.7,2.3,6,3.7,9,5.7c6.9,4.6,11.4,12,15.4,19.2
		c9.9,18.2,17.7,37.4,24.8,56.8c2.3,6.3,4.2,13,5.7,19.5c0.8,3.9,1.4,7.8,1.8,11.7"/>
	<path class="st1" d="M197,154.5c5,3.6,8.1,9.5,8.4,15.6c0.1,1.9-0.1,3.7,0.1,5.6c0.4,3.5,2.1,6.7,3.7,9.8
		c16,30.4,29.3,63.2,39.4,96"/>
	<path class="st1" d="M161.2,113.7c0.8,7.8,1.6,17.2,2.5,25c0.4,3.7,0.8,7.4,1.8,11c1.1,3.6,2.9,7,5.6,9.4c1.7,1.5,3.6,2.5,5.6,3.6
		c1.8,0.9,3.7,1.9,5.7,1.9"/>
	<path class="st1" d="M194.1,158c-4.1-10.7-14-17.3-20.3-26.8c-4.9-7.4-7.3-16.3-7.1-25.1c-0.7,5,0.4,9.7,0.7,14.7
		c0.2,2.7,0,5.5,0,8.2c0.1,6.6,1.3,13.3,3.6,19.5c1.8,4.7,4.2,9.3,7.9,12.8c2,1.9,4.5,3.5,7.2,3.2c1.8-0.2,3.5-1.3,4.8-2.6
		S193.1,158.9,194.1,158z"/>
	<path class="st1" d="M194.1,158c3.3-1.8,6.1-6.4,6.4-10.1c0.1-1.1,0-2.2-0.1-3.3c-0.5-4.5-1.8-9.1-5-12.4c-3-3.1-7.2-4.5-11-6.5
		c-5.8-3-11.1-7.7-13.4-13.9c-1-2.7-1.3-5.6-2.2-8.4c-0.8-2.8-3.3-6.3-5.8-7.7c4.1,7.2,4.7,15.9,4.9,24.2"/>
	<path class="st1" d="M167.5,122c-2.5-5.1-6.9-9-11-12.9c-3.2-3.1-6.3-6.4-9.3-9.8c-2.4-2.8-4.8-5.8-6.1-9.3c-1.1-3-1.6-6.6-3.9-8.9
		c2.2,3.5,5.2,6.4,8.8,8.5c2.7,1.6,5.7,2.7,8.4,4.5c2.2,1.4,4.1,3.3,5.5,5.4c2.9,4.1,4.3,9.2,7.2,13.3"/>
	<path class="st1" d="M116.5,446.4c23.5-9.3,51-7.5,73.1,4.7"/>
	<path class="st1" d="M80.5,479.3c10.3-6.8,22.2-10.8,34-14.6c7.3-2.4,14.6-4.8,22.2-5.7c12-1.4,24,1,35.7,3.8"/>
	<path class="st1" d="M70.4,497.9c4.9-4.3,10.9-7.1,17-9.3c20.6-7.4,42.9-8.3,64.8-7.5"/>
	<path class="st1" d="M52.3,544.6c1.3-3.5,4.6-5.8,7.7-7.7c20.3-12.8,42.9-21.7,66.5-26.2"/>
	<path class="st1" d="M52.7,576.8c2.5-8.4,10-14.1,17.5-18.7c11.1-6.7,23-12,34.8-17.3"/>
	<path class="st1" d="M51.2,600.3c10-14.8,24.1-26.7,40.3-34.2"/>
	<path class="st1" d="M52,627.1c8.5-10.1,17.3-20,26.3-29.6"/>
	<path class="st1" d="M49.9,613c7.8-3.7,15.6-7.4,22.4-12.6c2.5-1.9,4.9-4,6.3-6.8"/>
	<path class="st1" d="M55.4,652.1c0.1-6.4,2.1-12.7,5-18.5c2.9-5.8,6.6-11,10.2-16.3"/>
	<path class="st1" d="M73.2,645.8c2.7-10.8-0.7-22.1-0.2-33.1"/>
	<path class="st1" d="M83.7,633.9c3.4-4.8,3.8-11.1,3.4-17c-0.6-8.8-2.6-17.4-5.9-25.6"/>
	<path class="st1" d="M96.4,616c2.7-4.5,2.9-10,2.5-15.2c-0.8-10.2-4.1-20.1-9.4-28.8"/>
	<path class="st1" d="M104.2,615.5c6-20.8,4.4-43.8-4.6-63.5"/>
	<path class="st1" d="M116.2,606.7c6.9-13.7,7.8-29.6,6.6-44.9c-0.9-11.4-2.9-22.9-8.6-32.8"/>
	<path class="st1" d="M136.2,593.1c7.7-20.2,9.3-43,2.9-63.7c-2.2-7.2-5.5-14.2-10.9-19.4"/>
	<path class="st1" d="M164.5,571.9c1.6-14.4,1.7-29-0.8-43.2c-2.5-14.2-7.7-28.1-16-39.9"/>
	<path class="st1" d="M173.9,558.9c4.1-15.1,7-30.6,6.8-46.3c-0.2-15.6-3.5-31.4-11.1-45.1"/>
	<path class="st1" d="M197.7,518.3c4.8-21.3,0.7-44.5-11-63"/>
	<path class="st1" d="M207.4,494.9c-0.5-15.9-4.5-31.7-11.8-45.9"/>
	<path class="st1" d="M60.4,475.6c9-6.7,17.1-14.5,26.2-21c9.1-6.5,19.5-11.9,30.6-12.6"/>
	<path class="st1" d="M47.9,477.2c9.7-12.9,21.2-24.4,34.1-34.1"/>
	<path class="st1" d="M33.6,477.1c8.3-9.7,17.3-18.9,26.9-27.3"/>
	<path class="st1" d="M269.6,439.7c-19.5,6.6-39.4,13.6-54.9,27.1"/>
	<path class="st1" d="M289.1,449c-19.1,4.8-36.7,15.3-50,29.9"/>
	<path class="st1" d="M300.7,460.7c-18.3,1.9-35.8,10.1-48.9,23"/>
	<path class="st1" d="M311,472.1c-17-1.8-34.7,3.6-47.9,14.5"/>
	<path class="st1" d="M320.5,481.9c-12.4,2.1-24.3,6.9-34.6,14.2"/>
	<path class="st1" d="M327.6,488.7c-9.6,3.8-18.8,8.5-27.4,14.1"/>
	<path class="st1" d="M206.8,484.2c3.7,18.5,10.8,36.3,20.8,52.3"/>
	<path class="st1" d="M225.5,475.7c-0.6,14.8,3.2,29.8,10.7,42.5c7.6,12.7,18.9,23.2,32.3,29.7"/>
	<path class="st1" d="M237.7,478.9c1.6,13.7,8.3,26.4,15.8,38c7.4,11.5,16.3,22.8,28.9,28.4"/>
	<path class="st1" d="M254.8,484.5c1.9,25.1,18.4,48.5,41.4,58.7"/>
	<path class="st1" d="M265.1,488.9c7.7,21.6,23.6,40.1,43.6,51.2"/>
	<path class="st1" d="M291.1,498c1.3,15.5,9.1,30.3,21,40.2"/>
	<path class="st1" d="M303.6,505.9c3.9,11.4,8.1,23.3,17,31.4"/>
	<path class="st1" d="M310.7,509.4c3.7,9.2,9,17.8,15.6,25.2"/>
	<path class="st1" d="M348.7,189.7c-3,6.9-5.1,12.1-8.2,19c-6.2,14.2-12.5,28.8-13.1,44.3c-0.2,5.9,0.4,11.8-0.6,17.6"/>
	<path class="st1" d="M373.5,175c-11.1,11.5-19.2,26-23.2,41.5"/>
	<path class="st1" d="M341.3,246.7c-2.9,2.6-6,5-9.2,7.3"/>
	<path class="st1" d="M356.5,225.7c-7,3.3-14.3,9.1-19.4,14.9"/>
	<path class="st1" d="M411.4,270.6"/>
	<path class="st1" d="M386.3,199.8c-10.3,7.9-22.4,13.4-35.1,16"/>
	<path class="st1" d="M399.6,184.9c-2.2,1.8-4.1,3.1-6.4,4.7c-1.6,1.1-3.2,2.1-5.1,2.8c-6.1,2.2-13.1,0.2-19.3,2.1"/>
	<path class="st1" d="M466.4,979.7c-3.8,11.7-9,23-15.6,33.4"/>
	<path class="st1" d="M491.2,970.7c-8.6,19.7-19.9,38.2-33.4,54.9"/>
	<path class="st1" d="M515.2,966c-1.4,5.9-4.6,11.1-8.1,16c-5.3,7.6-11.2,14.8-17.1,22c-7.7,9.4-15.5,18.9-24.1,27.5"/>
	<path class="st1" d="M505.5,940.8c8.4,6.2,14.6,15.2,17.5,25.3"/>
	<path class="st1" d="M498.8,954.9c4,2.9,7.2,6.8,9.5,11.2"/>
	<path class="st1" d="M437.7,977.3c7.8-1.6,16.2-0.1,22.9,4.2"/>
	<path class="st1" d="M437,967.1c12.7-2.7,26.6,0.5,36.9,8.5"/>
	<path class="st1" d="M442,953.4c7.8-1.7,16.2-0.6,23.2,3.1"/>
	<path class="st1" d="M519.3,997.3c1.2,14.3-0.6,28.8-5.1,42.4"/>
	<path class="st1" d="M510.2,1008.3c-4.5,14-7.2,28.5-8.1,43.1"/>
	<path class="st1" d="M502.9,1015.9c-2.1,15.3-5.4,30.4-10,45.1"/>
	<path class="st1" d="M490.5,1030.6c0.2,9.1-1.1,18.3-3.9,27"/>
	<path class="st1" d="M460.2,1088.3c-7.9-4.2-15.2-9.7-21.4-16.2c-1.6-1.7-3.2-3.5-4-5.6"/>
	<path class="st1" d="M462.9,1081.4c-7-7.4-16.7-12.1-23.2-19.9c-1.5-1.7-2.8-3.7-3-6"/>
	<path class="st1" d="M476,1068.1c-10-0.1-19.9-4.3-27-11.2"/>
	<path class="st1" d="M433.1,1042.6c11.1-4.5,23.8-5.1,35.3-1.7"/>
	<path class="st1" d="M433.1,1020.3c10.1,3,20.3,6.1,29,12"/>
	<path class="st1" d="M447.8,1011.5c-2.6-2-4.7-4.6-7-6.9c-2.3-2.4-4.9-4.6-8-5.6"/>
	<path class="st1" d="M403.9,967.6c11.1-1.2,22.7-2.3,33.3,1.3"/>
	<path class="st1" d="M391.4,984.7c13.9-2.9,28.8-0.8,41.4,5.9"/>
	<path class="st1" d="M375.1,1003.7c8.1-3.6,17.3-4.4,26.1-3s17.2,4.6,25,8.8"/>
	<path class="st1" d="M363.7,1014.6c11-3.6,23-0.9,34.3,1.9"/>
	<path class="st1" d="M356.8,1028.5c8.6-3.8,18.1-5.5,27.5-4.9"/>
	<path class="st1" d="M411.4,1069.6c8.3-5.3,16.5-11.3,21.8-19.6"/>
	<path class="st1" d="M401.8,1063.6c12.2-7,23-16.6,31.2-28"/>
	<path class="st1" d="M381,1053.4c10.3-2.4,19.2-8.8,26.4-16.6c7.1-7.8,12.6-16.9,18-25.9"/>
	<path class="st1" d="M372.8,1046.7c13-6.7,21.9-19.2,30.3-31.2"/>
	<path class="st1" d="M364.4,1045.5c9.3-5.6,15.8-14.7,22-23.6"/>
	<path class="st1" d="M471.9,963.7c1.8-7.9,5.3-15.4,10.3-21.9"/>
	<path class="st1" d="M464.2,955.1c0.5-6.2,3.3-12.1,7-17.1c3.8-5,8.4-9.2,13.2-13.3"/>
	<path class="st1" d="M458.5,943.7c3.9-16.5,13.9-31.4,27.6-41.3"/>
	<path class="st1" d="M451.9,935.3c1.3-23.2,15.7-45.2,36.5-55.6"/>
	<path class="st1" d="M439.5,912.6c-1.7-9.7,3.5-19.3,9.6-27.1c11.2-14.4,26.1-25.9,42.8-33.2"/>
	<path class="st1" d="M435.1,891.6c5.7-21,20.6-38.4,37.5-52.1c7.1-5.8,14.9-11.1,23.9-12.7"/>
	<path class="st1" d="M441.6,854.9c8.9-10.7,18.4-20.8,28.5-30.4c2.8-2.7,5.7-5.3,8.9-7.6c6.2-4.6,13.3-8,20.8-10"/>
	<path class="st1" d="M533.3,838.6c-5.3-14.6-17.7-25.4-29.9-35.1"/>
	<path class="st1" d="M533.5,847c-9.4-13.4-20.8-25.4-33.8-35.4"/>
	<path class="st1" d="M527.2,871.4c-8.6-13.3-19.5-25-32.2-34.4"/>
	<path class="st1" d="M523,905.8c-7.6-14.9-19.6-27-31.4-38.9"/>
	<path class="st1" d="M514.6,925.7c-5-15.2-15.8-27.6-26.4-39.5"/>
	<path class="st1" d="M503.5,947.1c-3.8-12.1-9.8-23.5-17.6-33.5"/>
	<path class="st1" d="M497.9,959.1c-2.8-10.5-7.4-20.5-13.7-29.4"/>
	<path class="st1" d="M492.2,965.1c-2.6-6.2-5.6-12.3-8.9-18.1"/>
	<path class="st1" d="M494.2,792c11.7-7.5,22.2-16.8,30.9-27.6"/>
	<path class="st1" d="M492,778.8c14.8-10.7,28.4-22.9,40.8-36.4"/>
	<path class="st1" d="M493.7,752.8c16.9-7,34.1-15.4,45.4-29.7"/>
	<path class="st1" d="M498.2,734.2c9.9-6.8,19-15,26.8-24.2"/>
	<path class="st1" d="M479.7,701.3c5.7,9.1,13.1,17.1,21.8,23.5"/>
	<path class="st1" d="M458.5,688.5c5,23.9,17.9,46.2,36.1,62.4"/>
	<path class="st1" d="M448.3,715.9c7.9,25.5,23.2,48.7,43.6,66"/>
	<path class="st1" d="M450.1,750.5c9.7,17.8,25.5,32.2,44.1,40.3"/>
	<path class="st1" d="M452.7,698.8c7.6,23.5,21,45,38.6,62.3"/>
	<path class="st1" d="M595.6,772c10-0.8,19-6.4,27.3-12.2c14.3-10.1,27.6-21.4,40.9-32.7"/>
	<path class="st1" d="M605.7,738.9c32-8,60.7-28.2,79.1-55.6"/>
	<path class="st1" d="M614.7,716c28.2-10.4,53.4-28.8,72-52.4"/>
	<path class="st1" d="M686.2,643.2c-9.4,16.5-23.9,30.1-41,38.4c-6.7,3.3-14,5.9-19.4,11.1"/>
	<path class="st1" d="M681,623.6c-4,8-9.9,15.1-17,20.7"/>
	<path class="st1" d="M678.1,613.6c-3.3,5.9-7.5,11.3-12.4,15.9"/>
	<path class="st1" d="M594.2,656.6c11.2,18.2,7.9,42.7,19.5,60.6"/>
	<path class="st1" d="M602.3,657.1c10.2,9.7,18.3,21.6,23.7,34.6"/>
	<path class="st1" d="M579.6,651.9c5.3,11.9,8.9,24.4,13.5,36.6c4.7,12.1,10.6,24.1,19.8,33.2"/>
	<path class="st1" d="M576.3,679.3c4.8,21.2,15.4,41,30.3,56.9"/>
	<path class="st1" d="M573.3,702c3.8,18.5,13.9,35.7,28.2,48.1"/>
	<path class="st1" d="M567.9,714.2c4.7,18.6,15.6,35.5,30.4,47.6"/>
	<path class="st1" d="M559.2,716.1c5.8,23.5,18.6,45.2,36.3,61.6"/>
	<path class="st1" d="M547.5,736.5c1.6,4,4.3,7.3,7.1,10.5c6.3,7.5,12.6,14.9,19.8,21.5c7.3,6.6,15.5,12.4,21.3,20.4"/>
	<path class="st1" d="M547.4,726.2c4,8.3,11,14.6,17.8,20.8c4.8,4.3,10.7,9.6,15.4,14"/>
	<path class="st1" d="M651,831.3c-8.5-7.7-17.1-15.3-26.6-21.8c-9.5-6.4-20-11.6-31.3-13.7"/>
	<path class="st1" d="M657,862c-14.9-24.5-39.5-42.9-67.2-50.2"/>
	<path class="st1" d="M656.1,883c-9.4-11.9-20.4-22.6-32.6-31.6c-5.7-4.2-11.8-8.1-18.5-10.4c-5.1-1.7-10.5-2.4-15.8-3.1"/>
	<path class="st1" d="M647.1,924.4c-2.6-7.8-5.1-15.7-9.5-22.7c-9.6-15.4-26.9-24.8-44.7-28.4"/>
	<path class="st1" d="M651.9,910.9c-7.4-18.1-20.6-33.8-37.2-44.1c-7-4.3-14.8-7.8-23-7.9"/>
	<path class="st1" d="M639.6,943.9c-5.8-19.5-22.7-35.3-42.6-39.6"/>
	<path class="st1" d="M631.1,960.1c-7.5-12.3-18.6-22.3-31.7-28.5"/>
	<path class="st1" d="M628.3,971.4c-6.5-11.3-17.5-19.2-28.2-26.7"/>
	<path class="st1" d="M627.7,987.1c-4.5-13.3-13.8-25-25.7-32.4"/>
	<path class="st1" d="M622.7,1002.3c-2.7-8.2-8.8-14.9-14.7-21.2"/>
	<path class="st1" d="M531.2,858.2c14.4-22.3,32.6-42.1,53.6-58.4"/>
	<path class="st1" d="M588.9,816.8c-25.5,14-43.7,31.3-57.2,57.1"/>
	<path class="st1" d="M588.4,837.6c-17.4,10.6-29.7,27.7-40.8,44.7c-6,9.2-11.8,18.6-17.4,28.1"/>
	<path class="st1" d="M591.9,869c-12.8,7.4-23.4,18.2-31.7,30.3c-8.4,12.1-14.6,25.6-20,39.4"/>
	<path class="st1" d="M595.3,897.9c-22.2,13.4-37.4,37.9-39.4,63.8"/>
	<path class="st1" d="M598.6,925c-15.1,10-24.3,26.9-30.6,43.8"/>
	<path class="st1" d="M600.2,944c-10.4,10.4-18,23.5-21.9,37.7"/>
	<path class="st1" d="M602,955c-8.2,10.1-13.2,22.7-14.1,35.7"/>
	<path class="st1" d="M604.8,973.9c-3.5,7.5-5.6,15.7-6.4,23.9"/>
	<path class="st1" d="M692.2,739.3c-6.9,9.2-13.8,18.5-19.3,28.6s-9.5,21.3-10.1,32.7"/>
	<path class="st1" d="M729.6,720.5c-23.5,21.2-40.1,49.9-46.8,80.8"/>
	<path class="st1" d="M767.1,721.8c-26,17.8-44.4,46.4-49.9,77.4"/>
	<path class="st1" d="M788.9,724.7c-8.4,7.3-14.5,16.8-20.3,26.3c-8.6,14.2-16.8,29.4-17.8,46"/>
	<path class="st1" d="M812.8,731.7c-7.8,4.3-14,11.1-18.9,18.6s-8.5,15.7-12.1,23.9c-2.9,6.7-5.9,13.5-6.8,20.8"/>
	<path class="st1" d="M830.3,737.9c-14,14.9-25.1,32.5-32.4,51.6"/>
	<path class="st1" d="M849.4,746.8c-10.1,9-17.7,20.8-21.7,33.8"/>
	<path class="st1" d="M869.8,751c-11.8,6.2-22.1,15.3-29.8,26.3"/>
	<path class="st1" d="M874.5,754.7c-2.1-0.3-4.2,0.3-6,1.4c-1.8,1.1-3.3,2.6-4.8,4.1c-4.9,4.8-9.7,9.6-14.6,14.5"/>
	<path class="st1" d="M894.9,758.5c-11.1,3.8-22,8.3-32.5,13.5"/>
	<path class="st1" d="M658.2,801c-0.8,11.6,2.7,23.2,8.4,33.3s13.7,18.8,22.3,26.7c3.4,3.2,6.9,6.2,11,8.5"/>
	<path class="st1" d="M673.7,800.7c-1.2,15.1,4.6,30.2,13.8,42.3c9.2,12,21.8,21.2,35,28.5"/>
	<path class="st1" d="M694.5,800.6c3.1,17.3,12,33.6,24.8,45.7c12.8,12.1,29.6,20,47.1,22.1"/>
	<path class="st1" d="M719,846c3.4,11.2,10.8,21.1,20.5,27.6"/>
	<path class="st1" d="M724.1,799.4c6.5,16.7,18.1,31.3,32.9,41.5c5.9,4,12.3,7.4,19.3,9c5.2,1.2,10.6,1.4,15.9,1.6
		c4.8,0.2,9.7,0.3,14.5,0.5"/>
	<path class="st1" d="M750.5,835.8c7.5,11.8,18.1,21.6,30.4,28.2"/>
	<path class="st1" d="M735.4,819.8c-2.5,10.1,0.4,21.2,6.6,29.6c6.1,8.4,15.2,14.5,24.8,18.5"/>
	<path class="st1" d="M752.4,796.8c13.9,23.4,40,39,67.1,40.2"/>
	<path class="st1" d="M769.1,816.6c5.3,5.9,9.6,12.7,14.8,18.8s10.2,11.9,17.9,13.8"/>
	<path class="st1" d="M782.4,793.1c12.4,18.3,34.1,30,56.2,30.3"/>
	<path class="st1" d="M852.2,808.3c-12.6-0.4-25.1-4.1-36-10.5c-4.2-2.5-8.4-5.6-10.3-10.1"/>
	<path class="st1" d="M867,794.3c-13.4-0.7-26.6-5.5-37.4-13.6"/>
	<path class="st1" d="M889.6,776c-7,1.5-14,3-21.1,3.4c-7.1,0.4-14.4-0.3-21-3"/>
	<path class="st1" d="M480.5,1258c10.5-6.4,19.9-14.6,27.5-24.2"/>
	<path class="st1" d="M473.9,1243.8c18.3-15.1,35.4-31.6,51.2-49.4"/>
	<path class="st1" d="M482.2,1199.9c22.8-13.3,41.9-32.9,54.4-56.1"/>
	<path class="st1" d="M492.7,1162.5c11.8-11.9,22.9-24.5,33.2-37.8c5.8-7.6,11.5-15.6,13.5-24.9"/>
	<path class="st1" d="M434.6,1142.9c18.4-24.4,42.1-44.7,69-59c10.4-5.6,21.7-10.5,29-19.8"/>
	<path class="st1" d="M420.6,1194.9c9.7-14.3,20.4-27.9,31.9-40.8c10.6-11.9,22.1-23.2,35.3-32.3c7.5-5.2,15.6-9.6,22.6-15.4"/>
	<path class="st1" d="M432.8,1243.1c-1.2-5.3,0.2-10.8,1.8-16.1c4.9-15.9,11.3-31.4,20.9-44.9c9.6-13.5,22.6-24.9,38-31"/>
	<path class="st1" d="M446.5,1258.7c7.6-21.8,19.8-42,35.7-58.8"/>
	<path class="st1" d="M452.9,1274.9c1.7-20.3,9.4-40.1,22-56.1"/>
	<path class="st1" d="M460.8,1290.7c1.4-19.6,3.1-40.3,14.2-56.6"/>
	<path class="st1" d="M467.7,1303.6c6.9-14.8,11-30.9,12.1-47.2"/>
</g>
</svg>
