<?xml version="1.0" encoding="utf-8"?>
<!-- Generator: Adobe Illustrator 27.1.1, SVG Export Plug-In . SVG Version: 6.00 Build 0)  -->
<svg version="1.1" xmlns="http://www.w3.org/2000/svg" xmlns:xlink="http://www.w3.org/1999/xlink" x="0px" y="0px"
	 viewBox="0 0 1202 1600" style="enable-background:new 0 0 1202 1600;" xml:space="preserve">
<style type="text/css">
	.st0{display:none;}
	.st1{display:inline;}
	.st2{fill:#3C0098;}
	.st3{fill:url(#SVGID_1_);}
	.st4{fill:url(#SVGID_00000101080592829490010150000004424195630911756949_);}
	.st5{fill:#8900F9;}
	.st6{fill:#D1CEFF;}
	.st7{fill:#8068EA;}
	.st8{fill:#241E37;}
	.st9{fill:#FFFFFF;}
	.st10{fill:#FFCDFF;}
	.st11{fill:none;stroke:#FF8A98;stroke-width:2;stroke-miterlimit:10;}
	.st12{fill:url(#SVGID_00000152965734992736219830000015827106134791105173_);}
	.st13{fill:url(#SVGID_00000087410619286432640920000004845820675395925911_);}
	.st14{fill:url(#SVGID_00000006667013447332998320000003196239288468530622_);}
	.st15{fill:none;stroke:#7251FF;stroke-width:2;stroke-miterlimit:10;}
	.st16{fill:none;stroke:#BAB0FF;stroke-width:2;stroke-miterlimit:10;}
	.st17{fill:none;stroke:#BACAFF;stroke-width:2;stroke-miterlimit:10;}
	.st18{fill:url(#SVGID_00000022533847306862814900000016486649685689911986_);}
	.st19{fill:url(#SVGID_00000097469812915434265450000008643527979961148306_);}
	.st20{fill:url(#SVGID_00000005947481268767613770000010173476907985494146_);}
	.st21{fill:url(#SVGID_00000047766236627444782630000001993141031264865413_);}
	.st22{fill:url(#SVGID_00000063624414664285668610000006647332116412795567_);}
	.st23{fill:url(#SVGID_00000097478157636926948820000016726450269625092532_);}
	.st24{fill:url(#SVGID_00000097462911013568606370000016063714462710351792_);}
	.st25{fill:url(#SVGID_00000066509376375040891870000017133658648104715935_);}
	.st26{fill:url(#SVGID_00000103225041936692839730000012653376357856488635_);}
	.st27{fill:url(#SVGID_00000181772774686342675580000013324528758778667667_);}
	.st28{fill:url(#SVGID_00000102534558574245266230000004412722095652222882_);}
	.st29{fill:url(#SVGID_00000129893383130128727640000010491544252450220211_);}
	.st30{fill:#220358;}
	.st31{fill:#6D52EF;}
	.st32{fill:none;stroke:#000000;stroke-miterlimit:10;}
	.st33{fill:none;stroke:#241E37;stroke-width:2;stroke-miterlimit:10;}
</style>
<g id="Ebene_1" class="st0">
	
		<image style="display:inline;overflow:visible;" width="187" height="270" xlink:href="../01_Material/Pictures/images.png"  transform="matrix(6.6926 0 0 6.6926 -24.7574 -34)">
	</image>
</g>
<g id="Ebene_3" class="st0">
	
		<image style="display:inline;overflow:visible;opacity:0.4706;" width="1072" height="1580" xlink:href="../01_Material/Pictures/IMG_0092.jpg"  transform="matrix(0.8234 0 0 0.8234 159.6481 224)">
	</image>
</g>
<g id="Ebene_23" class="st0">
	<rect x="-10" class="st1" width="1222" height="1600"/>
</g>
<g id="rot_schleife_hinten">
	<path class="st2" d="M488.06,869.44c0,0,52.94-3.44,71.94,48.56s-12,80-12,80l-31.01,9.67l-29.67-30.64L488.06,869.44z"/>
	<path class="st2" d="M717.46,917c0,0,21.54-28,50.54-28s37,31,37,31s-40.54,64.85-43.77,79.43C758,1014,734,997,734,997l-24-54
		L717.46,917z"/>
	<linearGradient id="SVGID_1_" gradientUnits="userSpaceOnUse" x1="769.558" y1="1302.066" x2="844.0739" y2="1302.066">
		<stop  offset="0" style="stop-color:#7300FF"/>
		<stop  offset="0.1316" style="stop-color:#6700E9"/>
		<stop  offset="0.3814" style="stop-color:#5500C6"/>
		<stop  offset="0.6167" style="stop-color:#4700AD"/>
		<stop  offset="0.8295" style="stop-color:#3F009D"/>
		<stop  offset="1" style="stop-color:#3C0098"/>
	</linearGradient>
	<path class="st3" d="M806.73,1226.72c0,0,39.27,58.28,37.27,101.28c0,0-26-1-37,21s-12.71,23.61-32.85,28.31
		S806.73,1226.72,806.73,1226.72z"/>
	
		<linearGradient id="SVGID_00000054962298115307782260000008881292612392923795_" gradientUnits="userSpaceOnUse" x1="357" y1="1268.2053" x2="475.6277" y2="1268.2053">
		<stop  offset="0" style="stop-color:#7300FF"/>
		<stop  offset="0.1316" style="stop-color:#6700E9"/>
		<stop  offset="0.3814" style="stop-color:#5500C6"/>
		<stop  offset="0.6167" style="stop-color:#4700AD"/>
		<stop  offset="0.8295" style="stop-color:#3F009D"/>
		<stop  offset="1" style="stop-color:#3C0098"/>
	</linearGradient>
	<path style="fill:url(#SVGID_00000054962298115307782260000008881292612392923795_);" d="M439,1159c0,0-36,95-48,115s-34,61-34,61
		s12.74,5.06,48.37,3.03c35.63-2.03,43.51,8.49,43.57,11.73C449,1353,434,1371,434,1371s20.8-2.18,33.9,6.41
		c0,0-1.9-76.41,6.1-93.41s-16.09-118.42-16.09-118.42L439,1159z"/>
</g>
<g id="Haare_hinten">
	<path class="st5" d="M731.85,854.12c0,0,11.15,32.88,94.15,83.88s118,114,118,142c0,0-1,90-90,121c0,0,120.83,0.31,148.42-101.85
		C1030,997,1013,962,1013,962s42.36-26.27,5.18-111.13c0,0,44.82,40.13,11.82,145.13c0,0,46.9-81.45,6.95-149.73S940,711,884,670
		s-64.68-124-64.68-124l-116.2,106.76L731.85,854.12z"/>
	<path class="st5" d="M733.51,458.48c0,0-4.47,24.54,32.01,42.03c36.48,17.49-19.6,94.28-19.6,94.28L688,622.16l-47.24,6.08
		l-25.58-63.42l18.69-64.31l90.31-62.53L733.51,458.48z"/>
	<path class="st5" d="M743.3,372c0,0,24.95,7.02,36.32-16.99C791,331,805,293,812,291s12.94-5.09,12.47,7.46
		c-0.47,12.54-3.77,63.77-46.62,93.15c0,0,28.01-7.03,45.08-31.82l10.09,1.92c0,0-13.76,22.45-53.39,35.87l50.94-21.42L832,380
		c0,0-26,26-71,23S743.3,372,743.3,372z"/>
	<path class="st5" d="M768,417c0,0,28,5,54-9s-5,13-5,13s-14,8-44,5S768,417,768,417z"/>
	<path class="st5" d="M830.04,517.91c0,0,6.94,58.15,17.95,82.62C859,625,868,644,876,657s16,15,17,34s15,18,15,18s-10-37-24-55
		s-34.88-65.28-38.94-86.64s-9.45-52.08-9.45-52.08L830.04,517.91z"/>
	<path class="st5" d="M845,499c0,0,5,66,21,104s23.33,58.88,48.16,93.44C939,731,949,731,949,731s-44-56-59-95
		s-35.64-102.25-35.82-148.12L845,499z"/>
	<path class="st5" d="M1025.18,938.78c19.44,39.07,30.35,84.96,19.4,128.03c0,0-1.79,6.03-1.79,6.03c-0.92,2.87-2.19,6.03-3.26,8.85
		c-0.95,2.05-2.33,5.1-3.28,7.14c-0.53,1.04-3.21,5.78-3.8,6.87c-1.46,2.52-3.57,5.42-5.14,7.89c-1.91,2.48-3.83,4.97-5.79,7.41
		c0,0-4.23,4.63-4.23,4.63c-1.21,1.46-3.03,3.14-4.42,4.43c0,0-4.57,4.28-4.57,4.28c-0.19,0.18-0.49,0.17-0.67-0.02
		c-0.19-0.2-0.16-0.51,0.04-0.68c0,0,4.44-4.34,4.44-4.34c1.39-1.3,3.09-3.05,4.28-4.48c0,0,4.09-4.66,4.09-4.66
		c1.88-2.46,3.73-4.95,5.57-7.44c23.54-34.47,23.79-76.74,12.95-115.82c-4.4-15.75-10.43-31.37-18.2-45.69
		C1019.19,938.41,1023.41,935.73,1025.18,938.78L1025.18,938.78z"/>
	<path class="st5" d="M982.36,1125.83c4.48,5.73,7.64,12.38,10.03,19.21c5.24,15.09,6.21,31.44,3.79,47.15
		c-0.67,5.03-2.01,10.53-3.2,15.43c-0.06,0.27-0.33,0.44-0.61,0.38c-0.28-0.07-0.45-0.35-0.38-0.63c0.94-4.91,2.02-10.38,2.43-15.4
		c1.74-16.15-0.29-32.95-6.75-47.89c-2.44-5.29-5.31-10.61-9.13-15.01C976.39,1126.53,980.15,1123.27,982.36,1125.83L982.36,1125.83
		z"/>
	<path class="st5" d="M972.95,1148.01c3.1,24.19-4.18,49.63-19.8,68.32c-5.18,6.14-11.12,11.58-17.59,16.25
		c-0.09,0.07-0.21-0.08-0.11-0.15c6.22-4.97,11.83-10.67,16.61-16.96c11.87-15.7,17.82-35.47,17.18-55.06
		c-0.11-3.8-0.47-7.84-1.21-11.5C967.43,1145.6,972.33,1144.67,972.95,1148.01L972.95,1148.01z"/>
	<path class="st5" d="M432.85,912.38c-50.89-44.9-73.93-100.33-84.3-138.92c-11.23-41.81-10.43-73.51-10.42-73.83l5,0.15
		c-0.01,0.31-0.78,31.42,10.29,72.55c10.2,37.88,32.83,92.27,82.74,136.3L432.85,912.38z"/>
	<path class="st5" d="M427.4,648.36l-5-0.06c1.39-112.71,16.62-133.71,17.27-134.55l3.96,3.06l-1.98-1.53l2,1.5
		C443.5,516.98,428.75,538.49,427.4,648.36z"/>
	<path class="st5" d="M511.31,872.33c-0.44,0-0.87-0.19-1.17-0.56c-14.21-17.7-25.78-56.46-26.26-58.1
		c-0.23-0.79,0.22-1.63,1.01-1.86c0.8-0.23,1.63,0.22,1.86,1.01c0.12,0.4,11.89,39.83,25.73,57.07c0.52,0.65,0.42,1.59-0.23,2.11
		C511.98,872.22,511.64,872.33,511.31,872.33z"/>
</g>
<g id="Haut">
	<polygon class="st6" points="496.57,944.73 497.57,931.01 495.07,890.82 490.96,827.41 487.32,770.07 475,727 403.19,717.51 
		405.09,732.65 409.06,752.14 416.54,780.54 420.98,798.57 426.89,836.14 429.24,871.93 429.89,924.49 	"/>
	<polyline class="st6" points="539.14,608.43 552.79,605 564.66,599.72 568.3,593.87 571.19,579.32 571.19,563.84 568.96,546 
		556.3,538.86 547.1,531.67 539.14,522.53 534.14,515.45 530.45,519.85 524.32,520.17 517.84,517.15 501.06,501.62 490.9,485.28 
		484,471 484.09,459.59 488,452 495.05,448.01 503.31,448.62 509.39,451 506,408 524.07,360.12 598,321 635,319 683,368 711,425 
		714,454 708.96,465.2 710.98,466.6 717.33,464.5 723.6,465.92 727.26,470.56 726.89,479.3 721.41,495.67 713.79,509.62 
		706.28,518.88 699.29,523.99 691,527 679.4,528.25 669.7,528.25 656.47,540.09 644.39,548.78 640.74,551.11 640.64,565.91 
		641,580.57 656.43,578.37 661,598 655.78,631.67 655.23,662.25 654.29,695.14 641.98,711.55 582.95,671.03 539.14,608.43 	"/>
	<polygon class="st6" points="765.52,496.97 790.9,458.48 813.25,420.1 836.92,372 920.32,351.75 904.2,392.47 882,442 
		858.68,485.17 830.04,535.17 803.79,574.78 788.37,596.96 768,624 	"/>
	<polygon class="st6" points="448.94,1172.96 453.32,1202.39 461.53,1245 472.36,1293.04 486.1,1345.4 498.64,1388.08 
		514.56,1440.69 530.69,1498.37 538,1530 689.66,1527.89 722.78,1527.89 728.32,1517.11 746.37,1477.09 765.07,1425 778.06,1379.7 
		789.36,1332.12 800.26,1278.27 811,1223 759,1195 642,1181 531.54,1189 486,1151 	"/>
</g>
<g id="Auge">
	<ellipse class="st7" cx="557.99" cy="456.28" rx="19.12" ry="27.88"/>
</g>
<g id="schwarz">
	<ellipse class="st8" cx="560.31" cy="457.5" rx="10.31" ry="16.5"/>
</g>
<g id="weiss">
	<ellipse class="st9" cx="560" cy="454" rx="10" ry="16"/>
	<circle class="st9" cx="568.5" cy="468.5" r="1.5"/>
	<path class="st9" d="M549,480c0,0-5-2-7-9l11-9l1,4L549,480"/>
</g>
<g id="Diadem_Gold">
	<path class="st10" d="M559,370c0,0,18.68,3.65,52.34,30.83c0,0,25.66-14.83,38.66-16.83s14.86-0.16,14.86-0.16L671,408
		c0,0-11.07-4.23-33.54,6.88C615,426,607.97,430.84,607.97,430.84l-14.47-9.92l-15.11-12.07l-15.8-11.14L549,390"/>
</g>
<g id="Diadem">
	<path class="st11" d="M668.57,407.15c-10.59-0.43-21.02,2.9-30.58,7.48s-18.45,10.42-27.78,15.46c-0.7,0.38-1.45,0.77-2.25,0.75
		c-0.87-0.02-1.64-0.51-2.36-1c-18.55-12.47-34.24-29.61-54.87-38.22"/>
	<path class="st11" d="M666.21,400.58c-10.55,0.61-20.68,4.42-30.12,9.19c-9.43,4.77-18.34,10.52-27.73,15.39
		c-17.63-15.76-35.81-31.87-57.93-40.23"/>
	<path class="st11" d="M648.07,384.75c-12.8,3.95-25.15,9.35-36.73,16.08c-8.32-5.48-15.91-11.99-24.08-17.68
		c-8.17-5.69-17.12-10.64-26.92-12.42"/>
	<path class="st11" d="M661.48,387.1c-17.51,5.66-34.48,12.95-50.64,21.74c-15.61-14.69-33.1-29.16-54.25-32.68"/>
</g>
<g id="uniform">
	<path class="st9" d="M664,1088l43.25-48.83l23.42-22.86l10.39-10.41l7.4-12.01l1.35-12.22l-3.82-11.95l-7.91-10.56l-7.32-5.84
		l-6.71-4.89c0,0-6.98-11.56-2.51-25C726,910,737,886,737,886l5.96-33.19l1.03-25.89l-0.48-16.27l4.79-4.5l9.21-12.08l5.87-11.87
		l4.69-15.25l1.93-20.33l-2.54-18.02l-5.93-15.87l-5.4-9.21L749.4,695l-7.82-7.39l4.34-22.61l5.4-4.65l6.11-8.79l7.88-14.61
		l5.12-12.8l5.63-20.94l3.57-30.41l-0.75-27.99l-4.65-37.85l-2.62-11.84l-3.05-2.51l-4.6,1.45l-13.19,9.42l-10.54,10.28l-8.23,10.61
		l-8.33,14.37l-8.92,1.56l-8.26,5.81l-6.09,10.08L691,610l-14,35l-15,50l-18.03,26.85L588,682l-124-50l-29.98,2.59h-9.56l-12.42,5.6
		l-12.91,11.38l-18.99,20.25l-18.71,21.47l-8.38,13.25v2.44l4.59-0.86l13,1.5l40.07,10.15l30.94,11.15l30.61,14.12l8.24,4.37
		l2.71,23.27l4.85,5.69l0.26,10.11l11.51,22.45l27.22,45.7l21.15,36.07l6.15,15.62l1.42,13.9l-2.5,10.17l-4.68,7.75l-3.7,4.59
		l-7.78,1.52l-9.31,5.02l-8.91,10l-7.24,14.84l-1.26,3.59l7.79-3.56l9.62-0.79l13.54,4.2l11.3,6.49l21.03,14.91l22.64,20.8
		l26.88,26.55l27.69,27.69L664,1088"/>
	<path class="st9" d="M737.87,315.02c0,0,30.83-2.06,51.98-10.04c21.15-7.98,68.53-17.07,78.34-6.52
		c9.81,10.54-39.75,66.14-39.75,66.14l-16.64-1.44c0,0-40.25-3.96-70.53,1.44C711,370,737.87,315.02,737.87,315.02z"/>
	<path class="st9" d="M475,999l-58.46-28.89l-4.62,13.75c-29.25,66.79-44.42,139.38-77,204.62c-4.91,9.83-10.35,19.66-18.46,27.06
		c-7.01,6.4-15.67,10.67-24.19,14.85c-9.42,4.62-19.03,9.3-29.41,10.85c-14.69,2.19-30.25-2.4-41.39-12.22
		c-1.2-1.06-2.44-2.22-4.02-2.51c-4.08-0.74-6.56,4.61-6.25,8.75c1,13.59,14.83,22.89,28.21,25.41c5.95,1.12,9.83,1.53,13.48,1.81
		l-1.98,1.33c-28.59,7.48-57.19,14.96-85.78,22.44c-2.93,0.77-6.62,2.79-5.73,5.68c0.42,1.38,1.79,2.2,3.08,2.85
		c13.3,6.64,29.01,6.91,43.61,4.12s28.47-8.45,42.53-13.28c2.14-0.73,4.56-1.44,6.58-0.42c2.63,1.33,3.16,5.09,1.89,7.75
		c-1.27,2.66-3.78,4.46-6.2,6.15c-21.49,15.03-42.98,30.05-64.47,45.08c-1.77,1.24-3.66,2.64-4.24,4.72
		c-1.23,4.4,4.07,7.86,8.61,8.39c6.27,0.73,12.31-0.91,18.04-3.65c-2.64,2.42-4.96,6.11-2.91,8.89c1.22,1.66,3.49,2.08,5.54,2.24
		c23.37,1.79,43.97-14.1,61.97-29.11c8.07-6.73,16.14-13.46,24.21-20.18c-4.55,27.84-9.1,55.68-13.65,83.52
		c-0.34,2.07-0.27,4.85,1.74,5.46c0.92,0.28,1.91-0.07,2.8-0.44c4.98-2.04,9.81-4.74,13.41-8.74c3.35-3.72,5.47-8.38,7.12-13.1
		c8.52-24.43,5.73-52.67,19.19-74.76c7-11.49,17.81-20.19,25.38-31.31c6.44-9.45,10.2-20.42,14.36-31.08
		c23.58-60.48,73.43-171.17,110.04-225.01L475,999z M229.77,1339.77c13.36-10.01,26.38-20.48,39.02-31.38
		C260.36,1323.18,244.89,1331.17,229.77,1339.77z"/>
</g>
<g id="rot_rechts">
	
		<linearGradient id="SVGID_00000012472049956961501430000016054978125559657363_" gradientUnits="userSpaceOnUse" x1="827.3652" y1="325.4398" x2="919.0775" y2="333.4636">
		<stop  offset="0" style="stop-color:#7300FF"/>
		<stop  offset="0.5366" style="stop-color:#5600C9"/>
		<stop  offset="1" style="stop-color:#3C0098"/>
	</linearGradient>
	<path style="fill:url(#SVGID_00000012472049956961501430000016054978125559657363_);" d="M921.62,304.39
		c0,0,1.38-20.39-27.62-19.39s-45,26-60,48s-8,39-8,39L921.62,304.39z"/>
	
		<linearGradient id="SVGID_00000106109894815190774550000015025946662189034157_" gradientUnits="userSpaceOnUse" x1="840.7607" y1="327.0274" x2="931.6152" y2="365.5928">
		<stop  offset="0" style="stop-color:#7300FF"/>
		<stop  offset="0.5366" style="stop-color:#5600C9"/>
		<stop  offset="1" style="stop-color:#3C0098"/>
	</linearGradient>
	<path style="fill:url(#SVGID_00000106109894815190774550000015025946662189034157_);" d="M830.04,383.9c0,0-11.04-11.9-2.04-25.9
		s40-49,72-58s58,23,35,54l-41-5L830.04,383.9z"/>
	
		<linearGradient id="SVGID_00000025433412385517240000000013073904428483249326_" gradientUnits="userSpaceOnUse" x1="837.9153" y1="352.8323" x2="931.567" y2="386.9187">
		<stop  offset="0" style="stop-color:#7300FF"/>
		<stop  offset="0.5366" style="stop-color:#5600C9"/>
		<stop  offset="1" style="stop-color:#3C0098"/>
	</linearGradient>
	<path style="fill:url(#SVGID_00000025433412385517240000000013073904428483249326_);" d="M891.75,420.1c0,0,47.25-35.1,46.25-54.1
		s-8-41-60-33s-47.96,53.07-47.96,53.07S837,373,870,367s44.16-0.69,44.16-0.69l-9.96,26.17L891.75,420.1"/>
</g>
<g id="Arm_hinten">
	<path class="st15" d="M833,382c-26.98,56.38-60.43,108.9-99.49,157.7c-0.04,0.09,0.04,0.68,0,0.78"/>
	<path class="st15" d="M914.16,366.74c-41.3,101.84-99.02,200.67-168.25,286.02"/>
</g>
<g id="Ebene_5">
	<path class="st5" d="M599.5,324.5c0,0-27.66,40.32-18.33,100.66c0,0,6.32-44.7,11.08-54.43c0,0-4.41,38.94-0.33,60.11
		c0,0,4.08-57.84,28.08-97.84c0,0-5.5,57.37,12.25,93.69c0,0-3.25-61.69,6.75-85.69c0,0-9.77,45.62,23.62,94.81
		c0,0-10.62-35.81-9.62-61.81c0,0,8.1,40.72,37.55,65.36c0,0-8.71-11.4-8.13-25.38c0,0,9.89,36.02,36.23,47.02s18.35,8,18.35,8
		s21.26,23.9,42.63,25.45C801,496,828,493,841,482c0,0,31,3,50-13s18-37,16-49c0,0,17.8-16,16.9-27.5
		c-0.9-11.5-18.37,13.22-30.64,24.36C881,428,856,451,825,444s-62-27-71-65s-10.31-97.85-49-123c-20-13-32.85-8.26-36.43-10.13
		S638,216,582,228s-100,70-112,98s-12.31,59.78-12.31,59.78s-27.06,56.17-62.88,111.19S332,623,325,690s9,182,83,258l11,5l4-19
		c0,0-28-25-61-105s-17-180,2-231s48.12-111.43,73.06-141.72c0,0-31.13,50.74-39.09,114.73c-7.97,63.99-4.84,86.57-4.84,86.57
		l8.44-8.47l8.92-7.92l3.1-2.03c0,0,1.41-117.17,29.77-159.75c0,0-10.45,51.3-8.9,87.94c1.55,36.64,7.19,64.14,7.19,64.14L474,618
		l20.24-3.88L510,610l15-10l16.41,8.43l13.66-4.23l9.58-4.48l3.64-5.85l2.89-14.55v-15.48L568.96,546l-18.89-11.49l-7.69-7.41
		l-8.23-11.66l-2.12,3.2l-3.48,1.66l-4.22-0.13l-8.47-3.95l-12.54-12.34l-16.56-26.15l-3.33-10.97l0.67-7.16l2.63-5.77l5.04-4.33
		l5.66-1.45l5.88,0.58l7.62,2.98c0,0-4.07-23.89,0-44.25C515,387,518,380,518,380s-2.37,29.04,2.81,39.52c0,0-1.81-40.52,3.19-50.52
		c0,0-3,38,13,69c0,0-6-37,3-56c0,0,0.46,25.82,5.73,46.41C545.73,428.41,546,362,599.5,324.5z"/>
</g>
<g id="Outfit_Outlines">
	<path class="st16" d="M393.83,656.92c-9.71,10.12-19.83,21.85-29.06,32.41c-5.24,5.99-10.51,12.55-11.72,20.41
		c3.6-2.42,8.36-1.82,12.63-1.04c40.12,7.26,79.04,21.18,114.82,40.72"/>
	<path class="st16" d="M698.39,600.53c14.19,18.14,24.02,39.67,28.43,62.28"/>
	<path class="st16" d="M700.38,567.36c23.37,25.29,35.54,60.58,32.72,94.89"/>
	<path class="st16" d="M702.67,552.98c2.58-8.79,11.83-14.64,20.99-14.25c8.16,0.35,13.68,4.2,18.95,13.09
		c4.06,6.85,5.85,14.8,6.96,22.69c4.06,28.96,0.57,58.49-5.41,87.11"/>
	<path class="st16" d="M724.16,538.18c8.47-18.23,22.53-33.82,39.8-44.13c1.41-0.84,3-1.68,4.62-1.39c2.83,0.52,3.9,3.95,4.39,6.78
		c4.89,28.26,8.42,57.03,5.74,85.59c-2.68,28.55-12,57.1-30.41,79.09"/>
	<path class="st16" d="M483.21,644.74c10.37,18.66,20.94,37.91,23.52,59.1c3.15,25.91-6.11,51.92-19.16,74.53"/>
	<path class="st16" d="M489.08,775.72c1.13-22.36,2.61-48.04-2.74-69.77c-5.36-21.74-15.59-42.62-31.56-58.31
		c-6.88-6.76-15.43-12.74-25.08-13.04c-7.38-0.22-14.53,2.97-20.38,7.48c-5.85,4.51-10.57,10.28-16.18,15.51
		c20.26,1.64,39.14,12.2,53.35,26.73c14.21,14.53,24.08,32.82,31.32,51.81C483.17,750.18,480.37,781.87,489.08,775.72z"/>
	<path class="st16" d="M488.06,787.57c4.4,10.3,9.84,19.68,16.22,28.9c6.38,9.21,13.9,18.28,24.38,22.23
		c9.29,3.5,17.9,4.7,27.64,6.59c14.6,2.83,32.98-0.95,47.35-5.18c21.16-6.23,38.29-23.93,47.55-43.95
		c10.56,10.96,26.12,15.25,41.01,18.4c16.64,3.52,35.23,5.87,49.6-3.22c7.16-4.52,12.47-11.48,16.62-18.86
		c9.43-16.77,13.5-36.62,10.69-55.65c-2.81-19.03-12.62-37.07-27.54-49.21"/>
	<path class="st16" d="M499.83,810.92c13.8,23.17,27.6,46.34,41.4,69.51c4.53,7.61,9.1,15.29,11.9,23.69
		c2.81,8.4,3.76,17.69,0.96,26.09c-1.89,5.69-5.47,10.8-10.17,14.51"/>
	<path class="st16" d="M743.51,810.65c1.4,28.54,0.37,57.91-10.33,84.41c-4.41,10.91-10.44,21.3-12.72,32.84
		c-1.15,5.85-1.24,12.2,1.54,17.47c1.95,3.71,5.23,6.64,8.99,8.49"/>
	<path class="st17" d="M751,363c25.01-3.76,49-1.82,74,2"/>
	<path class="st17" d="M741.28,315.02c20.86-1.07,40.89-7.98,61-13.62C822.38,295.76,853,291,864,296"/>
</g>
<g id="rot">
	<polygon class="st2" points="552.65,986.03 537,977 524.16,974.99 514.71,977.27 509,983 473.86,1026.27 445.29,1075.73 494,1051 	
		"/>
	
		<linearGradient id="SVGID_00000179611732852991496360000010205238329821709995_" gradientUnits="userSpaceOnUse" x1="862.5699" y1="1154.4987" x2="785.8646" y2="1014.9419">
		<stop  offset="0" style="stop-color:#7300FF"/>
		<stop  offset="1" style="stop-color:#3C0098"/>
	</linearGradient>
	<path style="fill:url(#SVGID_00000179611732852991496360000010205238329821709995_);" d="M749.36,989.37
		c0,0,90.64,34.63,161.64,115.63c0,0-57,28-88,84l-105.54-160.9l13.22-11.78L739,1009l6-9L749.36,989.37z"/>
	
		<linearGradient id="SVGID_00000052105489530449410890000009820648215859304847_" gradientUnits="userSpaceOnUse" x1="740.6508" y1="1158.0021" x2="670.0456" y2="1010.9459">
		<stop  offset="0" style="stop-color:#7300FF"/>
		<stop  offset="0.1316" style="stop-color:#6700E9"/>
		<stop  offset="0.3814" style="stop-color:#5500C6"/>
		<stop  offset="0.6167" style="stop-color:#4700AD"/>
		<stop  offset="0.8295" style="stop-color:#3F009D"/>
		<stop  offset="1" style="stop-color:#3C0098"/>
	</linearGradient>
	<path style="fill:url(#SVGID_00000052105489530449410890000009820648215859304847_);" d="M708,1202c0,0,4,19-1,43c0,0,59-20,130-15
		c0,0-27-139-115.13-205.55l-18.4,18.75l-29.6,33.59L708,1202z"/>
	
		<linearGradient id="SVGID_00000116919262714699147320000003071200815942027678_" gradientUnits="userSpaceOnUse" x1="568.3003" y1="583.8966" x2="641.978" y2="583.8966">
		<stop  offset="0" style="stop-color:#7300FF"/>
		<stop  offset="0.2007" style="stop-color:#7100FB"/>
		<stop  offset="0.397" style="stop-color:#6B00EF"/>
		<stop  offset="0.5916" style="stop-color:#6000DC"/>
		<stop  offset="0.7852" style="stop-color:#5100C0"/>
		<stop  offset="0.9765" style="stop-color:#3F009D"/>
		<stop  offset="1" style="stop-color:#3C0098"/>
	</linearGradient>
	<path style="fill:url(#SVGID_00000116919262714699147320000003071200815942027678_);" d="M571.19,571.01c0,0,12.71,9.72,33.76,7.35
		c21.05-2.37,35.78-11,35.78-11l0.79,17.19l0.45,4.46c0,0-8.23,9.32-30.1,11.15c-21.87,1.84-43.57-6.29-43.57-6.29l2.12-11.24
		L571.19,571.01z"/>
	
		<linearGradient id="SVGID_00000016769282915125423690000006051516409440002217_" gradientUnits="userSpaceOnUse" x1="524.152" y1="597.1348" x2="544.436" y2="712.1711">
		<stop  offset="0" style="stop-color:#7300FF"/>
		<stop  offset="0.5366" style="stop-color:#5600C9"/>
		<stop  offset="1" style="stop-color:#3C0098"/>
	</linearGradient>
	<path style="fill:url(#SVGID_00000016769282915125423690000006051516409440002217_);" d="M638,694c0,0-57-53-73-67s-38-31-40-30
		s-3,4-7,7s-35,13-44,15s-38.96,15.18-39.98,15.59C433,635,460,634,477,641s138.17,58.7,138.17,58.7L638,694z"/>
	
		<linearGradient id="SVGID_00000168815867836732965730000010701717868728186029_" gradientUnits="userSpaceOnUse" x1="631.891" y1="574.0576" x2="705.2026" y2="661.4269">
		<stop  offset="0" style="stop-color:#7300FF"/>
		<stop  offset="0.5366" style="stop-color:#5600C9"/>
		<stop  offset="1" style="stop-color:#3C0098"/>
	</linearGradient>
	<path style="fill:url(#SVGID_00000168815867836732965730000010701717868728186029_);" d="M649.69,699.7c0,0,4.88-60.51,4.6-77.1
		s-1.9-41.94-4.6-41.27c-2.69,0.67-8.17,3.22-8.17,3.22S638,564,645,564s14.47,3.36,14.47,3.36S679,561,684,561s14-12,17-9
		s1,41-7,70s-30,74-30,74L649.69,699.7z"/>
	
		<linearGradient id="SVGID_00000124149363696446815010000012919466469043616702_" gradientUnits="userSpaceOnUse" x1="459.4396" y1="1167.6382" x2="560.9866" y2="1023.845">
		<stop  offset="0" style="stop-color:#7300FF"/>
		<stop  offset="1" style="stop-color:#3C0098"/>
	</linearGradient>
	<path style="fill:url(#SVGID_00000124149363696446815010000012919466469043616702_);" d="M552.65,986.03
		c-38.86,18.71-73.47,47.48-104.58,84.5l-18.29,35.48l-24.4,51.31c0,0,61.36,23.24,102.49,54.96c0,0,26.13-91.28,38.13-122.28
		s35.41-82.33,35.41-82.33L568,996L552.65,986.03z"/>
	
		<linearGradient id="SVGID_00000172417661115957241580000013143926205167190197_" gradientUnits="userSpaceOnUse" x1="695.9886" y1="1180.7841" x2="668.9986" y2="1043.2968">
		<stop  offset="0" style="stop-color:#7300FF"/>
		<stop  offset="1" style="stop-color:#3C0098"/>
	</linearGradient>
	<path style="fill:url(#SVGID_00000172417661115957241580000013143926205167190197_);" d="M676.63,1073.67
		c0,0,56.37,43.33,93.37,120.33c0,0-55,9-120,61l-14-16l-6.11-183.91L664,1088L676.63,1073.67z"/>
	
		<linearGradient id="SVGID_00000082369203593391608130000006715070731238759061_" gradientUnits="userSpaceOnUse" x1="588.9737" y1="1183.8761" x2="644.3919" y2="1050.967">
		<stop  offset="0" style="stop-color:#7300FF"/>
		<stop  offset="1" style="stop-color:#3C0098"/>
	</linearGradient>
	<path style="fill:url(#SVGID_00000082369203593391608130000006715070731238759061_);" d="M633.16,1058.53c0,0-0.16,8.47,5.84,62.47
		s9,123,9,123s-80-19-144-13c0,0,35.81-152.65,77.41-223.33L606,1030L633.16,1058.53z"/>
	
		<linearGradient id="SVGID_00000078724258019398051200000009667735824069558669_" gradientUnits="userSpaceOnUse" x1="604.9047" y1="415" x2="614.0953" y2="415">
		<stop  offset="0" style="stop-color:#7300FF"/>
		<stop  offset="0.2007" style="stop-color:#7100FB"/>
		<stop  offset="0.397" style="stop-color:#6B00EF"/>
		<stop  offset="0.5916" style="stop-color:#6000DC"/>
		<stop  offset="0.7852" style="stop-color:#5100C0"/>
		<stop  offset="0.9765" style="stop-color:#3F009D"/>
		<stop  offset="1" style="stop-color:#3C0098"/>
	</linearGradient>
	<path style="fill:url(#SVGID_00000078724258019398051200000009667735824069558669_);" d="M613.97,415.53
		c-0.59,4.94-3.07,8.7-5.54,8.4c-2.47-0.3-3.99-4.54-3.4-9.47c0.59-4.94,3.07-8.7,5.54-8.4
		C613.04,406.36,614.56,410.6,613.97,415.53z"/>
	
		<linearGradient id="SVGID_00000165205822228940591540000000296281245838731904_" gradientUnits="userSpaceOnUse" x1="421.4797" y1="946.738" x2="513.3139" y2="946.738">
		<stop  offset="0" style="stop-color:#7300FF"/>
		<stop  offset="0.5366" style="stop-color:#5600C9"/>
		<stop  offset="1" style="stop-color:#3C0098"/>
	</linearGradient>
	<path style="fill:url(#SVGID_00000165205822228940591540000000296281245838731904_);" d="M422,935c0,0-5-18,16-19s53,14,64,25
		s19.93,25.59-3.03,35.3S422,935,422,935z"/>
	
		<linearGradient id="SVGID_00000171705106477034497850000007014589417281865896_" gradientUnits="userSpaceOnUse" x1="408.2947" y1="967.9511" x2="503.6142" y2="967.9511">
		<stop  offset="0" style="stop-color:#7300FF"/>
		<stop  offset="0.5366" style="stop-color:#5600C9"/>
		<stop  offset="1" style="stop-color:#3C0098"/>
	</linearGradient>
	<path style="fill:url(#SVGID_00000171705106477034497850000007014589417281865896_);" d="M409,956c0,0-6-23,17-24
		s62.13,19.6,71.57,36.8c9.43,17.2,6.57,22.59,0,33.39C491,1013,444,970,444,970L409,956z"/>
	
		<linearGradient id="SVGID_00000156577353207706711140000015290884464384390037_" gradientUnits="userSpaceOnUse" x1="399.6973" y1="986.1495" x2="505.0475" y2="986.1495">
		<stop  offset="0" style="stop-color:#7300FF"/>
		<stop  offset="0.5366" style="stop-color:#5600C9"/>
		<stop  offset="1" style="stop-color:#3C0098"/>
	</linearGradient>
	<path style="fill:url(#SVGID_00000156577353207706711140000015290884464384390037_);" d="M405.37,999.43
		c0,0-14.37-30.43,2.63-45.43s63,19,73,28s25,20,24,29s-27.6,11.07-27.6,11.07S483,1009,458,996s-45.21-14.14-45.21-14.14
		L405.37,999.43"/>
</g>
<g id="outfit_outlines">
	<path class="st17" d="M509.96,980.99c4.53-14.19,12.08-29.19,26.05-34.36c13.35-4.94,27.83-0.22,38.3,9.42
		c23.83,21.94,43.97,40.29,61.3,60.96c8.79,10.49,17.86,20.66,24.27,32.75c3,5.65,5.6,11.97,4.56,18.28
		c8.44-9.33,16.89-18.66,25.33-27.99c6.83-7.54,12.68-17.12,18.43-25.51c5.03-7.34,10.62-20.25,14.58-28.22
		c6.2-12.49,10.36-21.65,7.98-33c12.09,7.74,21.24,21.94,18.61,36.05c-2.35,12.62-12.99,21.73-22.47,30.39
		c-22.86,20.89-42.46,45.04-62.58,68.22c-39.58-33.69-70.92-77.45-115.43-104.28c-6-3.61-12.33-6.94-19.23-8.11
		C522.75,974.42,515.13,975.69,509.96,980.99z"/>
	<path class="st17" d="M413.83,979.53c-30.52,67.97-45.62,142.29-78.91,208.95c-4.91,9.83-10.35,19.66-18.46,27.06
		c-7.01,6.4-15.67,10.67-24.19,14.85c-9.42,4.62-19.03,9.3-29.41,10.85c-14.69,2.19-30.25-2.4-41.39-12.22
		c-1.2-1.06-2.44-2.22-4.02-2.51c-4.08-0.74-6.56,4.61-6.25,8.75c1,13.59,14.83,22.89,28.21,25.41c13.39,2.52,16.27,1.46,29.76,3.36
		c8.54,1.2,16.3,6.22,33.49,7.3c8.61,0.54,21.1-6.51,25.63-13.86"/>
	<path class="st17" d="M250.9,1263.82c-28.59,7.48-57.19,14.96-85.78,22.44c-2.93,0.77-6.62,2.79-5.73,5.68
		c0.42,1.38,1.79,2.2,3.08,2.85c13.3,6.64,29.01,6.91,43.61,4.12c14.6-2.8,28.47-8.45,42.53-13.28c2.14-0.73,4.56-1.44,6.58-0.42
		c2.63,1.33,3.16,5.09,1.89,7.75c-1.27,2.66-3.78,4.46-6.2,6.15c-21.49,15.03-42.98,30.05-64.47,45.08
		c-1.77,1.24-3.66,2.64-4.24,4.72c-1.23,4.4,4.07,7.86,8.61,8.39c12,1.4,23.15-5.84,32.89-12.99
		c15.51-11.37,30.57-23.36,45.14-35.91c-12.4,21.71-39.97,28.79-59.3,44.64c-2.9,2.38-5.82,6.47-3.6,9.49
		c1.22,1.66,3.49,2.08,5.54,2.24c23.37,1.79,43.97-14.1,61.97-29.11c8.07-6.73,16.14-13.46,24.21-20.18
		c-4.55,27.84-9.1,55.68-13.65,83.52c-0.34,2.07-0.27,4.85,1.74,5.46c0.92,0.28,1.91-0.07,2.8-0.44c4.98-2.04,9.81-4.74,13.41-8.74
		c3.35-3.72,5.47-8.38,7.12-13.1c8.52-24.43,5.73-52.67,19.19-74.76c7-11.49,17.81-20.19,25.38-31.31
		c6.44-9.45,10.2-20.42,14.36-31.08c23.58-60.48,73.43-171.17,110.04-225.01"/>
</g>
<g id="Stern_Gold">
	<polygon class="st10" points="589,582 599.9,582 605,570 610.98,582 622.22,582 614,591 619,605 605,596 592,604 597,591 	"/>
</g>
<g id="Dunkel_Lila">
	<path class="st30" d="M621.89,720.97c0,0-73.79,18.26-100.34,55.64c0,0,56.57,26.12,86.01,74.25c0,0,6.44-36.87,38.44-106.87
		S621.89,720.97,621.89,720.97z"/>
	<path class="st31" d="M619.94,699.7c0,0-40.94-21.7-95.94-9.7c0,0,25,58,70,102c0,0,29-39.2,44-50.6S619.94,699.7,619.94,699.7z"/>
	<path class="st30" d="M665.87,720.97c0,0,95.13,6.03,120.13,42.03c0,0-62,20-87,77c0,0,8.75-29.28-33.13-104.14
		C651,713,665.87,720.97,665.87,720.97z"/>
	<path class="st31" d="M664,696c0,0,22.6-34.77,84.3-34.39c0,0-8.64,46.33-8.47,59.36c0.17,13.03-2.28,32.32-2.28,32.32
		S688,732,668,729S664,696,664,696z"/>
</g>
<g id="dunkelrot">
	<path class="st30" d="M645,700c0,0,6-16,24-10s10,26,7,33s-21.71,30.29-21.71,30.29S625,739,617,731s-15-23-3-32S637,692,645,700z"
		/>
	<circle class="st30" cx="688" cy="520" r="6"/>
	<circle class="st30" cx="524.77" cy="512.48" r="4.48"/>
	<polygon class="st30" points="689,530 688,538.11 679.4,538.71 685,546 680.42,552.12 689,553.58 693,561 695,552.28 701,549 
		696,544 701,537.45 694,537.94 	"/>
	<polygon class="st30" points="518.85,520.31 514.24,527.05 506.32,523.63 507.94,532.68 501.06,536 508,541.25 508.14,549.68 
		513.93,542.85 520.76,542.71 518.62,535.97 526.08,532.46 519.64,529.67 	"/>
</g>
<g id="Haut_Outlines">
	<path class="st8" d="M632.25,476.1c6.16-6.31,14.21-10.92,22.92-12.27c8.72-1.34,18.07,0.78,24.88,6.38
		c1.96,1.61,3.7,3.49,5.79,4.94c2.09,1.45,4.65,2.45,7.15,1.99c-2.71,2.68-5.41,5.36-8.12,8.04c-0.5-2-1.71-3.74-3.05-5.3
		c-6.01-7.03-15.2-11.23-24.45-11.19C648.46,468.72,640.03,472.45,632.25,476.1z"/>
	<path class="st8" d="M606.11,490.07c0.31,2.1,1.22,4.1,2.59,5.71c0.33,0.38,0.7,0.79,0.73,1.29c0.02,0.28-0.08,0.56-0.17,0.82
		c-0.65,1.76-1.49,3.44-2.51,5.02c-0.42,0.66-1.36,1.34-1.86,0.74c-0.19-0.23-0.21-0.56-0.21-0.86c-0.02-2.67-0.04-5.35-0.06-8.02
		C604.6,493.32,604.67,491.67,606.11,490.07z"/>
	<path class="st8" d="M599.21,520.44c1.14-1.08,2.27-2.15,3.41-3.23c0.37-0.35,0.75-0.71,1.23-0.88c0.78-0.27,1.66,0.02,2.3,0.54
		c0.64,0.52,1.08,1.24,1.5,1.95c0.24,0.4,0.5,0.85,0.43,1.32c-0.05,0.34-0.26,0.63-0.46,0.9c-0.97,1.32-2.37,2.8-3.94,2.35
		c-0.45-0.13-0.85-0.41-1.22-0.71C601.5,521.92,600.6,521.06,599.21,520.44z"/>
	<path class="st8" d="M579.61,441.01c-0.55-2.6-2.77-4.44-4.61-6.36c-1.98-2.07-3.63-4.46-5.77-6.36
		c-4.01-3.56-9.51-5.16-14.87-5.09s-10.6,1.68-15.47,3.92c-5.27,2.42-10.62,6.17-11.88,11.83c-0.91,4.13,0.57,8.37,2.03,12.34
		c1.11,3.01,2.22,6.02,3.32,9.03c-1.13,0.6-2.58,0.22-3.58-0.59c-1-0.8-1.64-1.96-2.25-3.08c-4.07-7.41-8.13-14.81-12.2-22.22
		c1.84,0.67,3.93,0,5.52-1.14s2.81-2.7,4.18-4.1c5.57-5.68,13.45-8.49,21.23-10.15c3.49-0.74,7.1-1.3,10.61-0.64
		c3.63,0.68,7.64,1.6,10.74,3.61c2.62,1.7,5.83,4.99,8.34,6.86c2.07,1.55,1.27,1.21,2.56,3.45
		C578.83,434.56,580.68,439.03,579.61,441.01z"/>
	<path class="st32" d="M494.24,547.15"/>
	<path class="st15" d="M510.93,460.45c5.07,13.99,10.67,27.79,16.79,41.36c4.83,10.72,10.16,21.55,18.72,29.6
		c6.41,6.03,14.31,10.19,22.11,14.27c6.94,3.64,13.87,7.27,20.81,10.91c3.75,1.97,7.54,3.95,11.63,5.04
		c12.54,3.34,25.69-2.15,36.86-8.77c8.41-4.99,16.39-10.69,23.83-17.03c2.87-2.44,5.66-4.99,8.2-7.77
		c5.67-6.22,9.99-13.53,14.27-20.79c9.51-16.14,19.2-31.97,28.86-48.28c0-0.07-0.18-0.45-0.18-0.52"/>
	<path class="st15" d="M513.82,453.32c-6.92-4.54-16.24-7.56-23.25-3.16c-5.64,3.54-7.83,10.99-6.95,17.59
		c0.89,6.61,4.28,12.58,7.74,18.27c7.18,11.82,15.24,23.61,26.79,31.21c2.64,1.74,5.59,3.27,8.74,3.26c3.16-0.01,6.5-2.03,7.25-5.05
		"/>
	<path class="st15" d="M491.77,458.18c4.33-1.11,9.01,0.11,12.78,2.5c3.77,2.4,6.72,5.88,10.31,12.86
		c-1.43,4.39-5.99,8.03-5.11,12.56c0.52,2.65,2.79,4.54,4.91,6.2"/>
	<path class="st15" d="M708,467c4.01-1.97,10.61-3.79,14.57-1.74c4.66,2.42,5.23,8.87,4.32,14.04c-1.4,7.98-4.82,15.46-8.62,22.61
		c-4.63,8.7-10.29,17.44-18.98,22.08c-8.84,4.72-19.4,4.45-29.42,4.07"/>
	<path class="st8" d="M571.11,475.38c-2.88,4.32-7.72,7.28-12.88,7.87c-1.08,0.12-2.19,0.15-3.25-0.11
		c-1.2-0.29-2.29-0.94-3.32-1.62c-3.29-2.17-6.26-4.82-8.81-7.83c2.23,3.64,4.59,7.41,8.24,9.62c4.67,2.82,11.08,2.38,15.32-1.05
		C568.63,480.47,570.22,478,571.11,475.38z"/>
	<path d="M710.51,363.41"/>
	<path class="st15" d="M701.59,478.16c1.85-1.4,4.31-1.94,6.57-1.45c2.26,0.49,4.28,2.01,5.38,4.04"/>
	<path class="st15" d="M682.42,509.62c3.82-0.77,7.8-1.62,10.84-4.05c4.11-3.27,5.73-8.92,5.37-14.16"/>
	<path class="st33" d="M640.76,459.46c7.27-4.56,15.98-6.8,24.55-6.31s16.97,3.72,23.67,9.08"/>
	<path class="st33" d="M519.02,422.98c6.31-5.82,14.55-9.5,23.09-10.31c8.54-0.81,17.33,1.25,24.63,5.77"/>
	<path class="st33" d="M637.46,440.14c11.36-8.76,24.98-14.56,39.16-16.7"/>
	<path class="st33" d="M520.81,397.72c6.08-4.34,14.21-4.73,21.52-3.2c11.19,2.33,21.45,8.86,28.31,18"/>
	<path class="st15" d="M568.96,546c2.84,14.27,2.98,29.07,0.4,43.39c-0.64,3.58-1.57,7.34-4.19,9.87c-1.67,1.61-3.87,2.55-6.03,3.4
		c-5.79,2.28-12.12,3.78-18.14,5.34"/>
	<path class="st15" d="M641.45,550.19c-1.18,13.86-0.89,27.84,0.87,41.63"/>
	<path class="st15" d="M633.86,652.43c0.06-4.54,4.19-7.83,7.93-10.41c4.17-2.88,8.34-5.77,12.5-8.65"/>
	<path class="st15" d="M583.27,645.32c4.95,1.3,10.17,1.15,15.16,2.28c6.52,1.48,12.52,5.2,16.74,10.39"/>
	<path class="st15" d="M415.35,662.74c-12.46,19.74-13.98,44.64-10.6,67.74s11.22,45.29,16.23,68.09
		c8.61,39.18,8.77,79.66,8.9,119.77"/>
	<path class="st15" d="M487.32,776.62c3.92,54.14,7.85,108.29,10.25,162.51"/>
	<path class="st15" d="M448.94,1176.38c8.87,55.78,20.95,111.06,36.15,165.45c17.31,61.93,38.67,122.78,52.51,185.57"/>
	<path class="st15" d="M637.98,1242.35c9.19,94.72,14.81,189.78,16.83,284.92"/>
	<path class="st15" d="M722.78,1527.89c49.03-92.77,68.31-197.91,86.95-301.17"/>
	<path class="st8" d="M667.18,464.39c0,0,7.46,0.6,13.14-3.39c0,0-3.32,3-9.32,5S667.18,464.39,667.18,464.39z"/>
	<path class="st8" d="M678,470c0,0,7.36,2.79,13.18-5.61c0,0-4.34,7.94-8.76,8.77"/>
	<path class="st8" d="M549.89,481.96c0,0-2.62,1.37-2.75,3.2c0,0,2.74-2.54,4.3-2.85"/>
	<polygon class="st8" points="555.19,484.25 556,488 556.57,484.25 	"/>
	<polygon class="st8" points="561.78,484.16 563,487 563,483.56 	"/>
	<path class="st8" d="M520.81,433.2c0,0-6.81,0.8-8.81-3.2c0,0,2,4,7,5S520.81,433.2,520.81,433.2z"/>
	<path class="st8" d="M521.81,432.61c0,0-5.81-5.61-5.81-9.61c0,0,3.47,7.27,6.23,8.13C525,432,521.81,432.61,521.81,432.61z"/>
	<path class="st8" d="M526,429c0,0-5.37-3.96-5.19-9.48c0.19-5.52,0,0,0,0s2.19,7.27,5.19,7.88C529,428,526,429,526,429z"/>
	<path class="st8" d="M519.68,442.08c0,0-4.68,2.26-7.68-0.41c0,0,2.62,3.23,8.81,2.28S519.68,442.08,519.68,442.08z"/>
	<path class="st8" d="M523.3,449.25c0,0-3.25-0.22-4.27-1.23c0,0,1.71,1.01,4.34,0S523.3,449.25,523.3,449.25z"/>
</g>
<g id="Ebene_2">
	<path class="st9" d="M1149.22,1508.41c-15.03-14.05-29.59-27.84-51.34-35.82c7.53-11.32,14.61-19.53,32.09-24.85
		c22.18-6.75,30.4-46.04-4.01-64.08c18.19-36.12,27.01-78.68,27.01-100.92c0-1.98,0-3.89,0-5.75c0-23.51,0-37.26,0-37.26V365
		c0,0,0-6.43,0-18c0-6.69,0-15.1,0-25c0-22.23-8.82-64.8-27.01-100.92c34.41-18.04,26.19-57.33,4.01-64.08
		c-17.48-5.32-24.56-13.53-32.09-24.85c21.75-7.98,36.31-21.77,51.34-35.82c24.25-22.67-11.25-50.33-64.25-54.33
		c-24.72-1.87-51.44,6.71-72.93,16.39c-35.94-13.35-70.77-12.89-89.88-13.53C888.35,43.72,866.97,71,907.5,82.67
		c10.12,2.91,19.7,6.08,27.95,9.3c-11.41,0.97-26.37,1.62-38.47,0.03c-11.81-1.55-25.54-3.97-39.35-6.55
		c-1.29-1.75-2.52-3.56-3.65-5.45c-21-35-60-35.14-60-35.14H601h-0.03H408c0,0-39,0.14-60,35.14c-1.13,1.89-2.36,3.7-3.65,5.45
		c-13.81,2.59-27.54,5-39.35,6.55c-12.1,1.59-27.06,0.94-38.47-0.03c8.25-3.23,17.83-6.39,27.95-9.3
		C335,71,313.62,43.72,279.81,44.86c-19.12,0.65-53.94,0.18-89.88,13.53C168.44,48.71,141.72,40.13,117,42
		c-53,4-88.5,31.67-64.25,54.33c15.03,14.05,29.59,27.84,51.34,35.82C96.56,143.47,89.48,151.68,72,157
		c-22.18,6.75-30.4,46.04,4.01,64.08C57.82,257.2,49,299.77,49,322c0,9.9,0,18.31,0,25c0,11.57,0,18,0,18v874.74
		c0,0,0,13.75,0,37.26c0,1.86,0,3.77,0,5.75c0,22.23,8.82,64.8,27.01,100.92C41.6,1401.7,49.82,1441,72,1447.75
		c17.48,5.32,24.56,13.53,32.09,24.85c-21.75,7.98-36.31,21.77-51.34,35.82C28.5,1531.08,64,1558.75,117,1562.75
		c24.72,1.87,51.44-6.71,72.93-16.39c35.94,13.35,70.77,12.89,89.88,13.53c33.81,1.14,55.19-26.14,14.66-37.81
		c-10.12-2.91-19.7-6.08-27.95-9.3c11.41-0.97,26.37-1.62,38.47-0.03c11.81,1.55,25.54,3.97,39.35,6.55
		c1.29,1.75,2.52,3.56,3.65,5.45c21,35,60,35.14,60,35.14h192.97H601h192.97c0,0,39-0.14,60-35.14c1.13-1.89,2.36-3.7,3.65-5.45
		c13.81-2.59,27.54-5,39.35-6.55c12.1-1.59,27.06-0.94,38.47,0.03c-8.25,3.23-17.83,6.39-27.95,9.3
		c-40.53,11.67-19.15,38.95,14.66,37.81c19.12-0.65,53.94-0.18,89.88-13.53c21.49,9.68,48.21,18.26,72.93,16.39
		C1137.97,1558.75,1173.47,1531.08,1149.22,1508.41z M994.97,1486.75c-38-29-105.75-3.94-119.88,6.03
		c-4.72,3.33-12,10.58-20.64,18.75c-28.73,6.26-48.08,14.22-68.48,14.22c-27.78,0-182.54,0-184.97,0c0,0-0.01,0-0.03,0
		c-2.43,0-157.19,0-184.97,0c-20.4,0-39.76-7.96-68.48-14.22c-8.64-8.17-15.92-15.42-20.64-18.75
		c-14.12-9.97-81.88-35.03-119.88-6.03c-22.89,17.47-7.31,28.77,10.88,35.21c-8.84,5.86-21.1,10.47-34.85,13.26
		c-30.76-13.93-51.04-38.97-64.84-58.72c10.58-3.56,25.42-2.65,69.82-1.74c49,1,71-21,73-41s-28-39-79-35
		c-22.08,1.73-40.22,13.02-53.7,25.27c-7.97-3.79-16.34-9.05-24.84-16.16c3.25-2.09,7.07-4.14,11.54-6.11c34-15,36-32,37-50
		s-14-23-39-39s-24.75-55-24.75-55H88V347h0.25c0,0-0.25-39,24.75-55s40-21,39-39s-3-35-37-50c-4.47-1.97-8.29-4.02-11.54-6.11
		c8.5-7.12,16.88-12.38,24.84-16.16c13.48,12.25,31.62,23.54,53.7,25.27c51,4,81-15,79-35s-24-42-73-41
		c-44.39,0.91-59.24,1.81-69.82-1.74c13.8-19.75,34.08-44.79,64.84-58.72c13.76,2.79,26.01,7.4,34.85,13.26
		C199.69,89.23,184.11,100.53,207,118c38,29,105.75,3.94,119.88-6.03c4.72-3.33,12-10.58,20.64-18.75C376.24,86.96,395.6,79,416,79
		c27.78,0,182.54,0,184.97,0c0.02,0,0.03,0,0.03,0c2.43,0,157.19,0,184.97,0c20.4,0,39.76,7.96,68.48,14.22
		c8.64,8.17,15.92,15.42,20.64,18.75c14.12,9.97,81.88,35.03,119.88,6.03c22.89-17.47,7.31-28.77-10.88-35.21
		c8.84-5.86,21.1-10.47,34.85-13.26c30.76,13.93,51.04,38.97,64.84,58.72c-10.58,3.56-25.42,2.65-69.82,1.74c-49-1-71,21-73,41
		s28,39,79,35c22.08-1.73,40.22-13.02,53.7-25.27c7.97,3.79,16.34,9.05,24.84,16.16c-3.25,2.09-7.07,4.14-11.54,6.11
		c-34,15-36,32-37,50s14,23,39,39s24.75,55,24.75,55h0.25v910.75h-0.25c0,0,0.25,39-24.75,55s-40,21-39,39s3,35,37,50
		c4.47,1.97,8.29,4.02,11.54,6.11c-8.5,7.12-16.88,12.38-24.84,16.16c-13.48-12.25-31.62-23.54-53.7-25.27c-51-4-81,15-79,35
		s24,42,73,41c44.39-0.91,59.24-1.81,69.82,1.74c-13.8,19.75-34.08,44.79-64.84,58.72c-13.76-2.79-26.01-7.4-34.85-13.26
		C1002.28,1515.51,1017.86,1504.22,994.97,1486.75z M108.37,1462.02c4.97-5.29,15.3-15.57,30.15-26.77
		c23.63,6.02,41.71,4.78,24.47,6.5c-24.85,2.49-44.39,20.51-50.36,26.62C111.13,1466.12,109.71,1463.99,108.37,1462.02z
		 M172,1431.75c-6.88,1.21-16.05,1.12-26.58-1.52c1.17-0.83,2.36-1.65,3.58-2.48c28-19,76-13,83.25,5.73
		c7.25,18.73-24.25,34.27-78.25,32.27c-7-0.26-13.47-0.11-19.5,0.39c6.83-3.55,16.16-8.24,25.5-12.39c18-8,42-1,53-12
		S189,1428.75,172,1431.75z M112.64,136.38c5.97,6.11,25.51,24.14,50.36,26.62c17.23,1.72-0.85,0.48-24.47,6.5
		c-14.85-11.2-25.19-21.48-30.15-26.77C109.71,140.76,111.13,138.62,112.64,136.38z M213,163c-11-11-35-4-53-12
		c-9.34-4.15-18.67-8.84-25.5-12.39c6.03,0.5,12.5,0.65,19.5,0.39c54-2,85.49,13.53,78.25,32.27C225,190,177,196,149,177
		c-1.22-0.83-2.41-1.66-3.58-2.48c10.53-2.63,19.71-2.73,26.58-1.52C189,176,224,174,213,163z M1093.6,142.73
		c-4.97,5.29-15.3,15.57-30.15,26.77c-23.63-6.02-41.71-4.78-24.47-6.5c24.85-2.49,44.39-20.51,50.36-26.62
		C1090.85,138.62,1092.26,140.76,1093.6,142.73z M1029.97,173c6.88-1.21,16.05-1.12,26.58,1.52c-1.17,0.83-2.36,1.65-3.58,2.48
		c-28,19-76,13-83.25-5.73c-7.25-18.73,24.25-34.27,78.25-32.27c7,0.26,13.47,0.11,19.5-0.39c-6.83,3.55-16.16,8.24-25.5,12.39
		c-18,8-42,1-53,12S1012.97,176,1029.97,173z M1089.33,1468.37c-5.97-6.11-25.51-24.14-50.36-26.62c-17.23-1.72,0.85-0.48,24.47-6.5
		c14.85,11.2,25.19,21.48,30.15,26.77C1092.26,1463.99,1090.85,1466.12,1089.33,1468.37z M988.97,1441.75c11,11,35,4,53,12
		c9.34,4.15,18.67,8.84,25.5,12.39c-6.03-0.5-12.5-0.65-19.5-0.39c-54,2-85.49-13.53-78.25-32.27c7.25-18.73,55.25-24.73,83.25-5.73
		c1.22,0.83,2.41,1.66,3.58,2.48c-10.53,2.63-19.71,2.73-26.58,1.52C1012.97,1428.75,977.97,1430.75,988.97,1441.75z
		 M1102.97,1449.75c-1.22,1.13-2.55,2.71-4,4.63c-3.06-4.9-9.56-14.5-19.14-24.39c9.5-3.78,18.82-8.99,26.28-16.2
		C1118.67,1426.07,1114.17,1439.3,1102.97,1449.75z M1139.97,1239.74h-0.18c0,0,0.1,95.03-19.95,141.07
		c-37.62-16.62-57.32-31.51-27.87-55.06c22.77-18.22,31.13-30.68,33.84-48.75h1.16V347c0-30-5-44-35-68
		c-29.45-23.56-9.75-38.45,27.87-55.06c20.04,46.03,19.95,141.07,19.95,141.07h0.18V1239.74z M1102.97,155
		c11.19,10.45,15.7,23.68,3.13,35.96c-7.45-7.21-16.78-12.42-26.28-16.2c9.58-9.89,16.08-19.49,19.14-24.39
		C1100.43,152.29,1101.76,153.87,1102.97,155z M1089.97,73c32.01,11.25,14.62,39.7,2.23,50.41c-0.63-0.96-1.27-1.94-1.93-2.93
		c-16.86-25.24-37.14-41.93-57.96-53.01C1051.51,65.37,1072.23,66.77,1089.97,73z M971.97,59c10.75,0.26,20.64,1.79,29.75,4.3
		c-13.07,6.55-23.24,12.9-28.36,16.25c-8.27-2.13-15.6-3.27-18.4-3.55C944.97,75,887.97,57,971.97,59z M947.88,97.42
		c15.92,7.95,21.19,15.69,4.09,20.58c-23.28,6.65-61.07,0.15-85.22-22.34c7.43,1.32,15.45,2.48,24.22,3.34
		C918.26,101.68,936.66,99.77,947.88,97.42z M406,57c27.79,0,192.51,0,194.97,0c0.02,0,0.03,0,0.03,0c2.46,0,167.18,0,194.97,0
		c14.7,0,31.89,12.41,46.94,25.64c-25.37-4.89-48.68-9.55-57.94-9.55c-15.88,0-181.51,0-183.97,0c0,0-0.01,0-0.03,0
		c-2.47,0-168.09,0-183.97,0c-9.26,0-32.57,4.65-57.94,9.55C374.11,69.41,391.3,57,406,57z M311,99c8.77-0.86,16.79-2.02,24.22-3.34
		c-24.15,22.5-61.94,29-85.22,22.34c-17.1-4.89-11.84-12.63,4.09-20.58C265.31,99.77,283.71,101.68,311,99z M230,59
		c84-2,27,16,17,17c-2.79,0.28-10.12,1.42-18.4,3.55c-5.12-3.35-15.29-9.69-28.36-16.25C209.36,60.79,219.25,59.26,230,59z M112,73
		c17.74-6.23,38.47-7.63,57.66-5.53c-20.82,11.08-41.1,27.77-57.96,53.01c-0.67,1-1.31,1.97-1.93,2.93
		C97.38,112.7,79.99,84.25,112,73z M99,155c1.22-1.13,2.55-2.71,4-4.63c3.06,4.9,9.56,14.5,19.14,24.39
		c-9.5,3.78-18.82,8.99-26.28,16.2C83.3,178.68,87.81,165.45,99,155z M62,365h0.18c0,0-0.1-95.03,19.95-141.07
		c37.62,16.62,57.32,31.51,27.87,55.06c-30,24-35,38-35,68v930h1.16c2.71,18.07,11.07,30.53,33.84,48.75
		c29.45,23.56,9.75,38.45-27.87,55.06c-20.04-46.03-19.95-141.07-19.95-141.07H62V365z M99,1449.75
		c-11.19-10.45-15.7-23.68-3.13-35.96c7.45,7.21,16.78,12.42,26.28,16.2c-9.58,9.89-16.08,19.49-19.14,24.39
		C101.55,1452.45,100.22,1450.88,99,1449.75z M112,1531.75c-32.01-11.25-14.62-39.7-2.23-50.41c0.63,0.96,1.27,1.94,1.93,2.93
		c16.86,25.24,37.14,41.93,57.96,53.01C150.47,1539.37,129.74,1537.98,112,1531.75z M230,1545.75c-10.75-0.26-20.64-1.79-29.75-4.3
		c13.07-6.55,23.24-12.9,28.36-16.25c8.27,2.13,15.6,3.27,18.4,3.55C257,1529.75,314,1547.75,230,1545.75z M254.09,1507.33
		c-15.92-7.95-21.19-15.69-4.09-20.58c23.28-6.65,61.07-0.15,85.22,22.34c-7.43-1.32-15.45-2.48-24.22-3.34
		C283.71,1503.07,265.31,1504.98,254.09,1507.33z M795.97,1547.75c-27.79,0-192.51,0-194.97,0c0,0-0.01,0-0.03,0
		c-2.46,0-167.18,0-194.97,0c-14.7,0-31.89-12.41-46.94-25.64c25.37,4.89,48.68,9.55,57.94,9.55c15.88,0,181.5,0,183.97,0
		c0.02,0,0.03,0,0.03,0c2.46,0,168.09,0,183.97,0c9.26,0,32.57-4.66,57.94-9.55C827.86,1535.33,810.67,1547.75,795.97,1547.75z
		 M890.97,1505.75c-8.77,0.86-16.79,2.02-24.22,3.34c24.15-22.5,61.94-29,85.22-22.34c17.1,4.89,11.84,12.63-4.09,20.58
		C936.66,1504.98,918.26,1503.07,890.97,1505.75z M971.97,1545.75c-84,2-27-16-17-17c2.79-0.28,10.12-1.42,18.4-3.55
		c5.12,3.35,15.29,9.69,28.36,16.25C992.61,1543.95,982.72,1545.49,971.97,1545.75z M1089.97,1531.75
		c-17.74,6.23-38.47,7.63-57.66,5.53c20.82-11.08,41.1-27.77,57.96-53.01c0.67-1,1.31-1.97,1.93-2.93
		C1104.59,1492.04,1121.98,1520.5,1089.97,1531.75z"/>
</g>
</svg>
